Asap-Bold.ufo
<glyph name="exclam" format="1">
  <advance width="294"/>
  <unicode hex="0021"/>
  <outline>
    <contour>
      <point x="154" y="702" type="curve" smooth="yes"/>
      <point x="197" y="702" type="line" smooth="yes"/>
      <point x="236" y="702"/>
      <point x="257" y="692"/>
      <point x="257" y="674" type="curve" smooth="yes"/>
      <point x="240" y="534"/>
      <point x="224" y="394"/>
      <point x="207" y="254" type="curve" smooth="yes"/>
      <point x="204" y="233"/>
      <point x="197" y="222"/>
      <point x="156" y="222" type="curve" smooth="yes"/>
      <point x="145" y="222" type="line" smooth="yes"/>
      <point x="104" y="222"/>
      <point x="94" y="233"/>
      <point x="94" y="254" type="curve" smooth="yes"/>
      <point x="94" y="670" type="line" smooth="yes"/>
      <point x="94" y="691"/>
      <point x="112" y="702"/>
    </contour>
    <contour>
      <point x="134" y="154" type="curve" smooth="yes"/>
      <point x="166" y="154" type="line" smooth="yes"/>
      <point x="208" y="154"/>
      <point x="226" y="143"/>
      <point x="226" y="122" type="curve" smooth="yes"/>
      <point x="226" y="30" type="line" smooth="yes"/>
      <point x="226" y="9"/>
      <point x="208" y="-2"/>
      <point x="166" y="-2" type="curve" smooth="yes"/>
      <point x="134" y="-2" type="line" smooth="yes"/>
      <point x="92" y="-2"/>
      <point x="74" y="9"/>
      <point x="74" y="30" type="curve" smooth="yes"/>
      <point x="74" y="122" type="line" smooth="yes"/>
      <point x="74" y="143"/>
      <point x="92" y="154"/>
    </contour>
  </outline>
</glyph>
<glyph name="quotedbl" format="1">
  <advance width="319"/>
  <unicode hex="0022"/>
  <outline>
    <contour>
      <point x="79" y="702" type="curve" smooth="yes"/>
      <point x="89" y="702" type="line" smooth="yes"/>
      <point x="131" y="702"/>
      <point x="149" y="691"/>
      <point x="149" y="670" type="curve" smooth="yes"/>
      <point x="149" y="662"/>
      <point x="134" y="553"/>
      <point x="127" y="494" type="curve" smooth="yes"/>
      <point x="124" y="473"/>
      <point x="114" y="464"/>
      <point x="93" y="464" type="curve" smooth="yes"/>
      <point x="75" y="464" type="line" smooth="yes"/>
      <point x="54" y="464"/>
      <point x="44" y="473"/>
      <point x="41" y="494" type="curve" smooth="yes"/>
      <point x="19" y="665" type="line"/>
      <point x="19" y="670" type="line" smooth="yes"/>
      <point x="19" y="691"/>
      <point x="37" y="702"/>
    </contour>
    <contour>
      <point x="230" y="702" type="curve" smooth="yes"/>
      <point x="240" y="702" type="line" smooth="yes"/>
      <point x="282" y="702"/>
      <point x="300" y="691"/>
      <point x="300" y="670" type="curve" smooth="yes"/>
      <point x="300" y="662"/>
      <point x="285" y="553"/>
      <point x="278" y="494" type="curve" smooth="yes"/>
      <point x="275" y="473"/>
      <point x="265" y="464"/>
      <point x="244" y="464" type="curve" smooth="yes"/>
      <point x="226" y="464" type="line" smooth="yes"/>
      <point x="205" y="464"/>
      <point x="195" y="473"/>
      <point x="192" y="494" type="curve" smooth="yes"/>
      <point x="170" y="665" type="line"/>
      <point x="170" y="670" type="line" smooth="yes"/>
      <point x="170" y="691"/>
      <point x="188" y="702"/>
    </contour>
  </outline>
</glyph>
<glyph name="numbersign" format="1">
  <advance width="534"/>
  <unicode hex="0023"/>
  <outline>
    <contour>
      <point x="431" y="686" type="curve" smooth="yes"/>
      <point x="444" y="686" type="line" smooth="yes"/>
      <point x="475" y="686"/>
      <point x="489" y="678"/>
      <point x="489" y="664" type="curve" smooth="yes"/>
      <point x="462" y="513" type="line"/>
      <point x="495" y="513" type="line" smooth="yes"/>
      <point x="516" y="513"/>
      <point x="525" y="498"/>
      <point x="525" y="463" type="curve" smooth="yes"/>
      <point x="525" y="453" type="line" smooth="yes"/>
      <point x="525" y="418"/>
      <point x="516" y="403"/>
      <point x="495" y="403" type="curve" smooth="yes"/>
      <point x="442" y="403" type="line"/>
      <point x="421" y="293" type="line"/>
      <point x="463" y="293" type="line" smooth="yes"/>
      <point x="484" y="293"/>
      <point x="493" y="278"/>
      <point x="493" y="243" type="curve" smooth="yes"/>
      <point x="493" y="233" type="line" smooth="yes"/>
      <point x="493" y="198"/>
      <point x="484" y="183"/>
      <point x="463" y="183" type="curve" smooth="yes"/>
      <point x="401" y="183" type="line"/>
      <point x="372" y="29" type="line" smooth="yes"/>
      <point x="368" y="8"/>
      <point x="350" y="-2"/>
      <point x="317" y="-2" type="curve" smooth="yes"/>
      <point x="304" y="-2" type="line" smooth="yes"/>
      <point x="272" y="-2"/>
      <point x="258" y="4"/>
      <point x="258" y="21" type="curve" smooth="yes"/>
      <point x="258" y="27"/>
      <point x="262" y="42"/>
      <point x="288" y="183" type="curve"/>
      <point x="194" y="183" type="line"/>
      <point x="165" y="29" type="line" smooth="yes"/>
      <point x="161" y="8"/>
      <point x="143" y="-2"/>
      <point x="110" y="-2" type="curve" smooth="yes"/>
      <point x="97" y="-2" type="line" smooth="yes"/>
      <point x="65" y="-2"/>
      <point x="51" y="4"/>
      <point x="51" y="21" type="curve" smooth="yes"/>
      <point x="51" y="27"/>
      <point x="55" y="42"/>
      <point x="81" y="183" type="curve"/>
      <point x="38" y="183" type="line" smooth="yes"/>
      <point x="17" y="183"/>
      <point x="8" y="198"/>
      <point x="8" y="233" type="curve" smooth="yes"/>
      <point x="8" y="243" type="line" smooth="yes"/>
      <point x="8" y="278"/>
      <point x="17" y="293"/>
      <point x="38" y="293" type="curve" smooth="yes"/>
      <point x="101" y="293" type="line"/>
      <point x="122" y="403" type="line"/>
      <point x="74" y="403" type="line" smooth="yes"/>
      <point x="53" y="403"/>
      <point x="44" y="418"/>
      <point x="44" y="453" type="curve" smooth="yes"/>
      <point x="44" y="463" type="line" smooth="yes"/>
      <point x="44" y="498"/>
      <point x="53" y="513"/>
      <point x="74" y="513" type="curve" smooth="yes"/>
      <point x="142" y="513" type="line"/>
      <point x="168" y="655" type="line" smooth="yes"/>
      <point x="172" y="676"/>
      <point x="191" y="686"/>
      <point x="224" y="686" type="curve" smooth="yes"/>
      <point x="237" y="686" type="line" smooth="yes"/>
      <point x="268" y="686"/>
      <point x="282" y="678"/>
      <point x="282" y="664" type="curve" smooth="yes"/>
      <point x="255" y="513" type="line"/>
      <point x="349" y="513" type="line"/>
      <point x="375" y="655" type="line" smooth="yes"/>
      <point x="379" y="676"/>
      <point x="398" y="686"/>
    </contour>
    <contour>
      <point x="235" y="403" type="line"/>
      <point x="214" y="293" type="line"/>
      <point x="308" y="293" type="line"/>
      <point x="329" y="403" type="line"/>
    </contour>
  </outline>
</glyph>
<glyph name="dollar" format="1">
  <advance width="496"/>
  <unicode hex="0024"/>
  <outline>
    <contour>
      <point x="260" y="768" type="curve" smooth="yes"/>
      <point x="281" y="768"/>
      <point x="290" y="759"/>
      <point x="290" y="738" type="curve" smooth="yes"/>
      <point x="290" y="707" type="line"/>
      <point x="385" y="703"/>
      <point x="450" y="669"/>
      <point x="450" y="638" type="curve" smooth="yes"/>
      <point x="450" y="611"/>
      <point x="419" y="551"/>
      <point x="395" y="551" type="curve" smooth="yes"/>
      <point x="382" y="551"/>
      <point x="353" y="574"/>
      <point x="290" y="576" type="curve"/>
      <point x="290" y="424" type="line"/>
      <point x="375" y="387"/>
      <point x="480" y="345"/>
      <point x="480" y="214" type="curve" smooth="yes"/>
      <point x="480" y="66"/>
      <point x="387" y="5"/>
      <point x="290" y="-6" type="curve"/>
      <point x="290" y="-51" type="line" smooth="yes"/>
      <point x="290" y="-72"/>
      <point x="281" y="-81"/>
      <point x="263" y="-81" type="curve" smooth="yes"/>
      <point x="242" y="-81"/>
      <point x="233" y="-72"/>
      <point x="233" y="-51" type="curve" smooth="yes"/>
      <point x="233" y="-7" type="line"/>
      <point x="94" y="-3"/>
      <point x="19" y="47"/>
      <point x="19" y="80" type="curve" smooth="yes"/>
      <point x="19" y="111"/>
      <point x="60" y="169"/>
      <point x="81" y="169" type="curve" smooth="yes"/>
      <point x="99" y="169"/>
      <point x="154" y="123"/>
      <point x="233" y="123" type="curve"/>
      <point x="233" y="288" type="line"/>
      <point x="144" y="321"/>
      <point x="33" y="360"/>
      <point x="33" y="503" type="curve" smooth="yes"/>
      <point x="33" y="634"/>
      <point x="129" y="695"/>
      <point x="233" y="706" type="curve"/>
      <point x="233" y="738" type="line" smooth="yes"/>
      <point x="233" y="759"/>
      <point x="242" y="768"/>
    </contour>
    <contour>
      <point x="233" y="450" type="curve"/>
      <point x="233" y="570" type="line"/>
      <point x="189" y="559"/>
      <point x="181" y="534"/>
      <point x="181" y="517" type="curve" smooth="yes"/>
      <point x="181" y="487"/>
      <point x="202" y="467"/>
    </contour>
    <contour>
      <point x="290" y="261" type="curve"/>
      <point x="290" y="134" type="line"/>
      <point x="314" y="144"/>
      <point x="333" y="163"/>
      <point x="333" y="196" type="curve" smooth="yes"/>
      <point x="333" y="224"/>
      <point x="316" y="246"/>
    </contour>
  </outline>
</glyph>
<glyph name="percent" format="1">
  <advance width="765"/>
  <unicode hex="0025"/>
  <outline>
    <contour>
      <point x="195" y="708" type="curve" smooth="yes"/>
      <point x="265" y="708"/>
      <point x="345" y="679"/>
      <point x="345" y="540" type="curve" smooth="yes"/>
      <point x="345" y="401"/>
      <point x="265" y="372"/>
      <point x="195" y="372" type="curve" smooth="yes"/>
      <point x="125" y="372"/>
      <point x="45" y="401"/>
      <point x="45" y="540" type="curve" smooth="yes"/>
      <point x="45" y="679"/>
      <point x="125" y="708"/>
    </contour>
    <contour>
      <point x="559" y="702" type="curve" smooth="yes"/>
      <point x="603" y="702" type="line" smooth="yes"/>
      <point x="617" y="702"/>
      <point x="624" y="696"/>
      <point x="624" y="688" type="curve" smooth="yes"/>
      <point x="624" y="685"/>
      <point x="622" y="680"/>
      <point x="619" y="674" type="curve" smooth="yes"/>
      <point x="262" y="26" type="line" smooth="yes"/>
      <point x="252" y="8"/>
      <point x="239" y="-2"/>
      <point x="218" y="-2" type="curve" smooth="yes"/>
      <point x="174" y="-2" type="line" smooth="yes"/>
      <point x="160" y="-2"/>
      <point x="153" y="4"/>
      <point x="153" y="11" type="curve" smooth="yes"/>
      <point x="153" y="15"/>
      <point x="155" y="20"/>
      <point x="158" y="26" type="curve" smooth="yes"/>
      <point x="515" y="674" type="line" smooth="yes"/>
      <point x="525" y="692"/>
      <point x="538" y="702"/>
    </contour>
    <contour>
      <point x="195" y="622" type="curve" smooth="yes"/>
      <point x="156" y="622"/>
      <point x="147" y="579"/>
      <point x="147" y="540" type="curve" smooth="yes"/>
      <point x="147" y="501"/>
      <point x="156" y="454"/>
      <point x="195" y="454" type="curve" smooth="yes"/>
      <point x="234" y="454"/>
      <point x="242" y="501"/>
      <point x="242" y="540" type="curve" smooth="yes"/>
      <point x="242" y="579"/>
      <point x="234" y="622"/>
    </contour>
    <contour>
      <point x="582" y="328" type="curve" smooth="yes"/>
      <point x="652" y="328"/>
      <point x="732" y="299"/>
      <point x="732" y="160" type="curve" smooth="yes"/>
      <point x="732" y="21"/>
      <point x="652" y="-8"/>
      <point x="582" y="-8" type="curve" smooth="yes"/>
      <point x="512" y="-8"/>
      <point x="432" y="21"/>
      <point x="432" y="160" type="curve" smooth="yes"/>
      <point x="432" y="299"/>
      <point x="512" y="328"/>
    </contour>
    <contour>
      <point x="582" y="242" type="curve" smooth="yes"/>
      <point x="543" y="242"/>
      <point x="534" y="199"/>
      <point x="534" y="160" type="curve" smooth="yes"/>
      <point x="534" y="121"/>
      <point x="543" y="74"/>
      <point x="582" y="74" type="curve" smooth="yes"/>
      <point x="621" y="74"/>
      <point x="629" y="121"/>
      <point x="629" y="160" type="curve" smooth="yes"/>
      <point x="629" y="199"/>
      <point x="621" y="242"/>
    </contour>
  </outline>
</glyph>
<glyph name="ampersand" format="1">
  <advance width="624"/>
  <unicode hex="0026"/>
  <outline>
    <contour>
      <point x="604" y="113" type="curve" smooth="yes"/>
      <point x="624" y="113"/>
      <point x="635" y="49"/>
      <point x="635" y="41" type="curve" smooth="yes"/>
      <point x="635" y="-5"/>
      <point x="570" y="-8"/>
      <point x="539" y="-8" type="curve" smooth="yes"/>
      <point x="491" y="-8"/>
      <point x="455" y="5"/>
      <point x="430" y="32" type="curve"/>
      <point x="374" y="4"/>
      <point x="328" y="-8"/>
      <point x="249" y="-8" type="curve" smooth="yes"/>
      <point x="116" y="-8"/>
      <point x="23" y="71"/>
      <point x="23" y="204" type="curve" smooth="yes"/>
      <point x="23" y="286"/>
      <point x="60" y="353"/>
      <point x="139" y="383" type="curve"/>
      <point x="139" y="387" type="line"/>
      <point x="82" y="411"/>
      <point x="46" y="464"/>
      <point x="46" y="533" type="curve" smooth="yes"/>
      <point x="46" y="640"/>
      <point x="126" y="708"/>
      <point x="251" y="708" type="curve" smooth="yes"/>
      <point x="297" y="708"/>
      <point x="361" y="705"/>
      <point x="361" y="666" type="curve" smooth="yes"/>
      <point x="361" y="618"/>
      <point x="343" y="584"/>
      <point x="326" y="584" type="curve" smooth="yes"/>
      <point x="321" y="584"/>
      <point x="300" y="591"/>
      <point x="277" y="591" type="curve" smooth="yes"/>
      <point x="223" y="591"/>
      <point x="196" y="558"/>
      <point x="196" y="509" type="curve" smooth="yes"/>
      <point x="196" y="459"/>
      <point x="234" y="426"/>
      <point x="299" y="426" type="curve" smooth="yes"/>
      <point x="393" y="426" type="line"/>
      <point x="406" y="521" type="line" smooth="yes"/>
      <point x="409" y="542"/>
      <point x="427" y="553"/>
      <point x="460" y="553" type="curve" smooth="yes"/>
      <point x="491" y="553" type="line" smooth="yes"/>
      <point x="526" y="553"/>
      <point x="541" y="542"/>
      <point x="541" y="521" type="curve" smooth="yes"/>
      <point x="541" y="426" type="line"/>
      <point x="590" y="426" type="line" smooth="yes"/>
      <point x="611" y="426"/>
      <point x="620" y="411"/>
      <point x="620" y="376" type="curve" smooth="yes"/>
      <point x="620" y="359" type="line" smooth="yes"/>
      <point x="620" y="324"/>
      <point x="611" y="309"/>
      <point x="590" y="309" type="curve" smooth="yes"/>
      <point x="541" y="309" type="line"/>
      <point x="541" y="152" type="line" smooth="yes"/>
      <point x="541" y="122"/>
      <point x="551" y="109"/>
      <point x="577" y="109" type="curve" smooth="yes"/>
      <point x="586" y="109"/>
      <point x="598" y="113"/>
    </contour>
    <contour>
      <point x="173" y="206" type="curve" smooth="yes"/>
      <point x="173" y="144"/>
      <point x="213" y="109"/>
      <point x="272" y="109" type="curve" smooth="yes"/>
      <point x="308" y="109"/>
      <point x="345" y="115"/>
      <point x="393" y="136" type="curve"/>
      <point x="393" y="309" type="line"/>
      <point x="290" y="309" type="line" smooth="yes"/>
      <point x="206" y="309"/>
      <point x="173" y="272"/>
    </contour>
  </outline>
</glyph>
<glyph name="quotesingle" format="1">
  <advance width="183"/>
  <unicode hex="0027"/>
  <outline>
    <contour>
      <point x="90" y="702" type="curve" smooth="yes"/>
      <point x="100" y="702" type="line" smooth="yes"/>
      <point x="142" y="702"/>
      <point x="160" y="691"/>
      <point x="160" y="670" type="curve" smooth="yes"/>
      <point x="160" y="662"/>
      <point x="145" y="553"/>
      <point x="138" y="494" type="curve" smooth="yes"/>
      <point x="135" y="473"/>
      <point x="125" y="464"/>
      <point x="104" y="464" type="curve" smooth="yes"/>
      <point x="86" y="464" type="line" smooth="yes"/>
      <point x="65" y="464"/>
      <point x="55" y="473"/>
      <point x="52" y="494" type="curve" smooth="yes"/>
      <point x="30" y="665" type="line"/>
      <point x="30" y="670" type="line" smooth="yes"/>
      <point x="30" y="691"/>
      <point x="48" y="702"/>
    </contour>
  </outline>
</glyph>
<glyph name="parenleft" format="1">
  <advance width="301"/>
  <unicode hex="0028"/>
  <outline>
    <contour>
      <point x="228" y="783" type="curve" smooth="yes"/>
      <point x="248" y="783"/>
      <point x="285" y="760"/>
      <point x="285" y="737" type="curve" smooth="yes"/>
      <point x="285" y="731"/>
      <point x="284" y="724"/>
      <point x="280" y="717" type="curve" smooth="yes"/>
      <point x="199" y="565"/>
      <point x="168" y="437"/>
      <point x="168" y="287" type="curve" smooth="yes"/>
      <point x="168" y="138"/>
      <point x="199" y="10"/>
      <point x="280" y="-142" type="curve" smooth="yes"/>
      <point x="284" y="-149"/>
      <point x="285" y="-156"/>
      <point x="285" y="-162" type="curve" smooth="yes"/>
      <point x="285" y="-185"/>
      <point x="248" y="-208"/>
      <point x="228" y="-208" type="curve" smooth="yes"/>
      <point x="218" y="-208"/>
      <point x="209" y="-203"/>
      <point x="201" y="-192" type="curve" smooth="yes"/>
      <point x="104" y="-53"/>
      <point x="51" y="113"/>
      <point x="51" y="287" type="curve" smooth="yes"/>
      <point x="51" y="461"/>
      <point x="104" y="628"/>
      <point x="201" y="767" type="curve" smooth="yes"/>
      <point x="209" y="778"/>
      <point x="218" y="783"/>
    </contour>
  </outline>
</glyph>
<glyph name="parenright" format="1">
  <advance width="301"/>
  <unicode hex="0029"/>
  <outline>
    <contour>
      <point x="70" y="783" type="curve" smooth="yes"/>
      <point x="80" y="783"/>
      <point x="89" y="778"/>
      <point x="97" y="767" type="curve" smooth="yes"/>
      <point x="194" y="628"/>
      <point x="247" y="461"/>
      <point x="247" y="287" type="curve" smooth="yes"/>
      <point x="247" y="113"/>
      <point x="194" y="-53"/>
      <point x="97" y="-192" type="curve" smooth="yes"/>
      <point x="89" y="-203"/>
      <point x="80" y="-208"/>
      <point x="70" y="-208" type="curve" smooth="yes"/>
      <point x="50" y="-208"/>
      <point x="13" y="-185"/>
      <point x="13" y="-162" type="curve" smooth="yes"/>
      <point x="13" y="-156"/>
      <point x="14" y="-149"/>
      <point x="18" y="-142" type="curve" smooth="yes"/>
      <point x="99" y="10"/>
      <point x="130" y="138"/>
      <point x="130" y="287" type="curve" smooth="yes"/>
      <point x="130" y="437"/>
      <point x="99" y="565"/>
      <point x="18" y="717" type="curve" smooth="yes"/>
      <point x="14" y="724"/>
      <point x="13" y="731"/>
      <point x="13" y="737" type="curve" smooth="yes"/>
      <point x="13" y="760"/>
      <point x="50" y="783"/>
    </contour>
  </outline>
</glyph>
<glyph name="comma" format="1">
  <advance width="198"/>
  <unicode hex="002C"/>
  <outline>
    <contour>
      <point x="95" y="154" type="curve" smooth="yes"/>
      <point x="114" y="154" type="line" smooth="yes"/>
      <point x="156" y="154"/>
      <point x="174" y="135"/>
      <point x="174" y="110" type="curve" smooth="yes"/>
      <point x="174" y="-2"/>
      <point x="80" y="-125"/>
      <point x="36" y="-125" type="curve" smooth="yes"/>
      <point x="18" y="-125"/>
      <point x="-9" y="-119"/>
      <point x="-9" y="-103" type="curve" smooth="yes"/>
      <point x="-9" y="-94"/>
      <point x="-5" y="-83"/>
      <point x="0" y="-70" type="curve" smooth="yes"/>
      <point x="13" y="-38"/>
      <point x="35" y="12"/>
      <point x="35" y="110" type="curve" smooth="yes"/>
      <point x="35" y="137"/>
      <point x="53" y="154"/>
    </contour>
  </outline>
</glyph>
<glyph name="hyphen" format="1">
  <advance width="320"/>
  <unicode hex="002D"/>
  <outline>
    <contour>
      <point x="58" y="319" type="curve" smooth="yes"/>
      <point x="262" y="319" type="line" smooth="yes"/>
      <point x="283" y="319"/>
      <point x="292" y="304"/>
      <point x="292" y="269" type="curve" smooth="yes"/>
      <point x="292" y="262" type="line" smooth="yes"/>
      <point x="292" y="227"/>
      <point x="283" y="212"/>
      <point x="262" y="212" type="curve" smooth="yes"/>
      <point x="58" y="212" type="line" smooth="yes"/>
      <point x="37" y="212"/>
      <point x="28" y="227"/>
      <point x="28" y="262" type="curve" smooth="yes"/>
      <point x="28" y="269" type="line" smooth="yes"/>
      <point x="28" y="304"/>
      <point x="37" y="319"/>
    </contour>
  </outline>
</glyph>
<glyph name="period" format="1">
  <advance width="198"/>
  <unicode hex="002E"/>
  <outline>
    <contour>
      <point x="82" y="154" type="curve" smooth="yes"/>
      <point x="114" y="154" type="line" smooth="yes"/>
      <point x="156" y="154"/>
      <point x="174" y="143"/>
      <point x="174" y="122" type="curve" smooth="yes"/>
      <point x="174" y="30" type="line" smooth="yes"/>
      <point x="174" y="9"/>
      <point x="156" y="-2"/>
      <point x="114" y="-2" type="curve" smooth="yes"/>
      <point x="82" y="-2" type="line" smooth="yes"/>
      <point x="40" y="-2"/>
      <point x="22" y="9"/>
      <point x="22" y="30" type="curve" smooth="yes"/>
      <point x="22" y="122" type="line" smooth="yes"/>
      <point x="22" y="143"/>
      <point x="40" y="154"/>
    </contour>
  </outline>
</glyph>
<glyph name="slash" format="1">
  <advance width="370"/>
  <unicode hex="002F"/>
  <outline>
    <contour>
      <point x="326" y="702" type="line" smooth="yes"/>
      <point x="295" y="702"/>
      <point x="274" y="694"/>
      <point x="265" y="672" type="curve" smooth="yes"/>
      <point x="-26" y="-49" type="line" smooth="yes"/>
      <point x="-28" y="-55"/>
      <point x="-30" y="-60"/>
      <point x="-30" y="-63" type="curve" smooth="yes"/>
      <point x="-30" y="-73"/>
      <point x="-16" y="-79"/>
      <point x="13" y="-79" type="curve" smooth="yes"/>
      <point x="37" y="-79" type="line" smooth="yes"/>
      <point x="68" y="-79"/>
      <point x="89" y="-71"/>
      <point x="98" y="-49" type="curve" smooth="yes"/>
      <point x="389" y="672" type="line" smooth="yes"/>
      <point x="391" y="678"/>
      <point x="392" y="682"/>
      <point x="392" y="686" type="curve" smooth="yes"/>
      <point x="392" y="696"/>
      <point x="379" y="702"/>
      <point x="350" y="702" type="curve" smooth="yes"/>
    </contour>
  </outline>
</glyph>
<glyph name="zero" format="1">
  <advance width="535"/>
  <unicode hex="0030"/>
  <outline>
    <contour>
      <point x="267" y="708" type="curve" smooth="yes"/>
      <point x="415" y="708"/>
      <point x="504" y="575"/>
      <point x="504" y="350" type="curve" smooth="yes"/>
      <point x="504" y="125"/>
      <point x="415" y="-8"/>
      <point x="267" y="-8" type="curve" smooth="yes"/>
      <point x="119" y="-8"/>
      <point x="30" y="125"/>
      <point x="30" y="350" type="curve" smooth="yes"/>
      <point x="30" y="575"/>
      <point x="119" y="708"/>
    </contour>
    <contour>
      <point x="267" y="591" type="curve" smooth="yes"/>
      <point x="211" y="591"/>
      <point x="180" y="509"/>
      <point x="180" y="350" type="curve" smooth="yes"/>
      <point x="180" y="191"/>
      <point x="211" y="109"/>
      <point x="267" y="109" type="curve" smooth="yes"/>
      <point x="323" y="109"/>
      <point x="354" y="191"/>
      <point x="354" y="350" type="curve" smooth="yes"/>
      <point x="354" y="509"/>
      <point x="323" y="591"/>
    </contour>
  </outline>
</glyph>
<glyph name="one" format="1">
  <advance width="535"/>
  <unicode hex="0031"/>
  <outline>
    <contour>
      <point x="63" y="658" type="line" smooth="yes"/>
      <point x="46" y="655"/>
      <point x="37" y="645"/>
      <point x="37" y="630" type="curve" smooth="yes"/>
      <point x="37" y="602"/>
      <point x="43" y="546"/>
      <point x="69" y="546" type="curve"/>
      <point x="205" y="566" type="line"/>
      <point x="205" y="117" type="line"/>
      <point x="72" y="117" type="line" smooth="yes"/>
      <point x="51" y="117"/>
      <point x="42" y="102"/>
      <point x="42" y="67" type="curve" smooth="yes"/>
      <point x="42" y="50" type="line" smooth="yes"/>
      <point x="42" y="15"/>
      <point x="51" y="0"/>
      <point x="72" y="0" type="curve" smooth="yes"/>
      <point x="460" y="0" type="line" smooth="yes"/>
      <point x="481" y="0"/>
      <point x="490" y="15"/>
      <point x="490" y="50" type="curve" smooth="yes"/>
      <point x="490" y="67" type="line" smooth="yes"/>
      <point x="490" y="102"/>
      <point x="481" y="117"/>
      <point x="460" y="117" type="curve" smooth="yes"/>
      <point x="353" y="117" type="line"/>
      <point x="353" y="680" type="line" smooth="yes"/>
      <point x="353" y="692"/>
      <point x="328" y="704"/>
      <point x="312" y="704" type="curve"/>
    </contour>
  </outline>
</glyph>
<glyph name="two" format="1">
  <advance width="535"/>
  <unicode hex="0032"/>
  <outline>
    <contour>
      <point x="259" y="708" type="curve" smooth="yes"/>
      <point x="400" y="708"/>
      <point x="477" y="626"/>
      <point x="477" y="512" type="curve" smooth="yes"/>
      <point x="477" y="448"/>
      <point x="452" y="393"/>
      <point x="416" y="349" type="curve" smooth="yes"/>
      <point x="228" y="117" type="line"/>
      <point x="459" y="117" type="line" smooth="yes"/>
      <point x="480" y="117"/>
      <point x="489" y="102"/>
      <point x="489" y="67" type="curve" smooth="yes"/>
      <point x="489" y="50" type="line" smooth="yes"/>
      <point x="489" y="15"/>
      <point x="480" y="0"/>
      <point x="459" y="0" type="curve" smooth="yes"/>
      <point x="61" y="0" type="line" smooth="yes"/>
      <point x="46" y="0"/>
      <point x="33" y="59"/>
      <point x="33" y="88" type="curve" smooth="yes"/>
      <point x="33" y="95"/>
      <point x="34" y="100"/>
      <point x="36" y="103" type="curve" smooth="yes"/>
      <point x="289" y="413" type="line" smooth="yes"/>
      <point x="311" y="440"/>
      <point x="327" y="472"/>
      <point x="327" y="509" type="curve" smooth="yes"/>
      <point x="327" y="563"/>
      <point x="287" y="590"/>
      <point x="234" y="590" type="curve" smooth="yes"/>
      <point x="170" y="590"/>
      <point x="135" y="547"/>
      <point x="117" y="547" type="curve" smooth="yes"/>
      <point x="86" y="547"/>
      <point x="60" y="590"/>
      <point x="60" y="616" type="curve" smooth="yes"/>
      <point x="60" y="675"/>
      <point x="165" y="708"/>
    </contour>
  </outline>
</glyph>
<glyph name="three" format="1">
  <advance width="535"/>
  <unicode hex="0033"/>
  <outline>
    <contour>
      <point x="251" y="708" type="curve" smooth="yes"/>
      <point x="376" y="708"/>
      <point x="456" y="640"/>
      <point x="456" y="533" type="curve" smooth="yes"/>
      <point x="456" y="464"/>
      <point x="420" y="411"/>
      <point x="363" y="387" type="curve"/>
      <point x="363" y="383" type="line"/>
      <point x="442" y="353"/>
      <point x="479" y="286"/>
      <point x="479" y="204" type="curve" smooth="yes"/>
      <point x="479" y="71"/>
      <point x="386" y="-8"/>
      <point x="253" y="-8" type="curve" smooth="yes"/>
      <point x="178" y="-8"/>
      <point x="36" y="12"/>
      <point x="36" y="74" type="curve" smooth="yes"/>
      <point x="36" y="93"/>
      <point x="62" y="150"/>
      <point x="85" y="150" type="curve" smooth="yes"/>
      <point x="103" y="150"/>
      <point x="149" y="109"/>
      <point x="230" y="109" type="curve" smooth="yes"/>
      <point x="289" y="109"/>
      <point x="329" y="144"/>
      <point x="329" y="206" type="curve" smooth="yes"/>
      <point x="329" y="272"/>
      <point x="296" y="308"/>
      <point x="212" y="308" type="curve" smooth="yes"/>
      <point x="184" y="308" type="line" smooth="yes"/>
      <point x="163" y="308"/>
      <point x="154" y="323"/>
      <point x="154" y="358" type="curve" smooth="yes"/>
      <point x="154" y="376" type="line" smooth="yes"/>
      <point x="154" y="411"/>
      <point x="163" y="426"/>
      <point x="184" y="426" type="curve" smooth="yes"/>
      <point x="203" y="426" type="line" smooth="yes"/>
      <point x="268" y="426"/>
      <point x="306" y="459"/>
      <point x="306" y="509" type="curve" smooth="yes"/>
      <point x="306" y="558"/>
      <point x="279" y="590"/>
      <point x="225" y="590" type="curve" smooth="yes"/>
      <point x="149" y="590"/>
      <point x="125" y="559"/>
      <point x="107" y="559" type="curve" smooth="yes"/>
      <point x="87" y="559"/>
      <point x="57" y="608"/>
      <point x="57" y="635" type="curve" smooth="yes"/>
      <point x="57" y="685"/>
      <point x="152" y="708"/>
    </contour>
  </outline>
</glyph>
<glyph name="four" format="1">
  <advance width="535"/>
  <unicode hex="0034"/>
  <outline>
    <contour>
      <point x="371" y="702" type="curve" smooth="yes"/>
      <point x="398" y="702" type="line" smooth="yes"/>
      <point x="440" y="702"/>
      <point x="458" y="691"/>
      <point x="458" y="670" type="curve" smooth="yes"/>
      <point x="458" y="259" type="line"/>
      <point x="496" y="259" type="line" smooth="yes"/>
      <point x="517" y="259"/>
      <point x="526" y="244"/>
      <point x="526" y="209" type="curve" smooth="yes"/>
      <point x="526" y="192" type="line" smooth="yes"/>
      <point x="526" y="157"/>
      <point x="517" y="142"/>
      <point x="496" y="142" type="curve" smooth="yes"/>
      <point x="458" y="142" type="line"/>
      <point x="458" y="30" type="line" smooth="yes"/>
      <point x="458" y="9"/>
      <point x="440" y="-2"/>
      <point x="398" y="-2" type="curve" smooth="yes"/>
      <point x="370" y="-2" type="line" smooth="yes"/>
      <point x="328" y="-2"/>
      <point x="310" y="9"/>
      <point x="310" y="30" type="curve" smooth="yes"/>
      <point x="310" y="142" type="line"/>
      <point x="48" y="142" type="line" smooth="yes"/>
      <point x="31" y="142"/>
      <point x="11" y="208"/>
      <point x="11" y="235" type="curve" smooth="yes"/>
      <point x="11" y="240"/>
      <point x="12" y="244"/>
      <point x="13" y="246" type="curve" smooth="yes"/>
      <point x="310" y="683" type="line" smooth="yes"/>
      <point x="322" y="700"/>
      <point x="342" y="702"/>
    </contour>
    <contour>
      <point x="160" y="259" type="line"/>
      <point x="310" y="259" type="line"/>
      <point x="310" y="488" type="line"/>
      <point x="306" y="489" type="line"/>
    </contour>
  </outline>
</glyph>
<glyph name="five" format="1">
  <advance width="535"/>
  <unicode hex="0035"/>
  <outline>
    <contour>
      <point x="130" y="700" type="curve" smooth="yes"/>
      <point x="425" y="700" type="line" smooth="yes"/>
      <point x="446" y="700"/>
      <point x="455" y="685"/>
      <point x="455" y="650" type="curve" smooth="yes"/>
      <point x="455" y="623" type="line" smooth="yes"/>
      <point x="455" y="595"/>
      <point x="446" y="583"/>
      <point x="425" y="583" type="curve" smooth="yes"/>
      <point x="223" y="583" type="line"/>
      <point x="213" y="440" type="line"/>
      <point x="239" y="440" type="line" smooth="yes"/>
      <point x="390" y="440"/>
      <point x="490" y="388"/>
      <point x="490" y="216" type="curve" smooth="yes"/>
      <point x="490" y="47"/>
      <point x="355" y="-8"/>
      <point x="234" y="-8" type="curve" smooth="yes"/>
      <point x="121" y="-8"/>
      <point x="38" y="24"/>
      <point x="38" y="64" type="curve" smooth="yes"/>
      <point x="38" y="82"/>
      <point x="69" y="143"/>
      <point x="92" y="143" type="curve" smooth="yes"/>
      <point x="103" y="143"/>
      <point x="153" y="109"/>
      <point x="233" y="109" type="curve" smooth="yes"/>
      <point x="298" y="109"/>
      <point x="340" y="147"/>
      <point x="340" y="212" type="curve" smooth="yes"/>
      <point x="340" y="282"/>
      <point x="307" y="323"/>
      <point x="215" y="323" type="curve" smooth="yes"/>
      <point x="106" y="323" type="line" smooth="yes"/>
      <point x="77" y="323"/>
      <point x="69" y="335"/>
      <point x="69" y="363" type="curve" smooth="yes"/>
      <point x="88" y="660" type="line" smooth="yes"/>
      <point x="90" y="688"/>
      <point x="101" y="700"/>
    </contour>
  </outline>
</glyph>
<glyph name="six" format="1">
  <advance width="535"/>
  <unicode hex="0036"/>
  <outline>
    <contour>
      <point x="373" y="704"/>
      <point x="33" y="637"/>
      <point x="33" y="253" type="curve" smooth="yes"/>
      <point x="33" y="60"/>
      <point x="156" y="-8"/>
      <point x="269" y="-8" type="curve" smooth="yes"/>
      <point x="382" y="-8"/>
      <point x="504" y="54"/>
      <point x="504" y="216" type="curve" smooth="yes"/>
      <point x="504" y="378"/>
      <point x="381" y="428"/>
      <point x="307" y="428" type="curve" smooth="yes"/>
      <point x="278" y="428"/>
      <point x="246" y="424"/>
      <point x="207" y="403" type="curve"/>
      <point x="240" y="502"/>
      <point x="327" y="571"/>
      <point x="424" y="600" type="curve" smooth="yes"/>
      <point x="435" y="603"/>
      <point x="437" y="607"/>
      <point x="437" y="621" type="curve" smooth="yes"/>
      <point x="437" y="641"/>
      <point x="421" y="704"/>
      <point x="387" y="704" type="curve" smooth="yes"/>
    </contour>
    <contour>
      <point x="322" y="311"/>
      <point x="355" y="273"/>
      <point x="355" y="212" type="curve" smooth="yes"/>
      <point x="355" y="151"/>
      <point x="317" y="109"/>
      <point x="270" y="109" type="curve" smooth="yes"/>
      <point x="223" y="109"/>
      <point x="184" y="142"/>
      <point x="184" y="241" type="curve" smooth="yes"/>
      <point x="184" y="257"/>
      <point x="184" y="272"/>
      <point x="185" y="287" type="curve"/>
      <point x="210" y="301"/>
      <point x="237" y="311"/>
      <point x="264" y="311" type="curve" smooth="yes"/>
    </contour>
  </outline>
</glyph>
<glyph name="seven" format="1">
  <advance width="535"/>
  <unicode hex="0037"/>
  <outline>
    <contour>
      <point x="68" y="700" type="curve" smooth="yes"/>
      <point x="464" y="700" type="line" smooth="yes"/>
      <point x="475" y="700"/>
      <point x="494" y="641"/>
      <point x="494" y="610" type="curve" smooth="yes"/>
      <point x="494" y="605"/>
      <point x="493" y="600"/>
      <point x="492" y="597" type="curve" smooth="yes"/>
      <point x="229" y="18" type="line" smooth="yes"/>
      <point x="222" y="2"/>
      <point x="200" y="-2"/>
      <point x="171" y="-2" type="curve" smooth="yes"/>
      <point x="134" y="-2" type="line" smooth="yes"/>
      <point x="94" y="-2"/>
      <point x="75" y="5"/>
      <point x="75" y="17" type="curve" smooth="yes"/>
      <point x="75" y="22"/>
      <point x="77" y="28"/>
      <point x="81" y="36" type="curve" smooth="yes"/>
      <point x="329" y="583" type="line"/>
      <point x="68" y="583" type="line" smooth="yes"/>
      <point x="47" y="583"/>
      <point x="38" y="598"/>
      <point x="38" y="633" type="curve" smooth="yes"/>
      <point x="38" y="650" type="line" smooth="yes"/>
      <point x="38" y="685"/>
      <point x="47" y="700"/>
    </contour>
  </outline>
</glyph>
<glyph name="eight" format="1">
  <advance width="535"/>
  <unicode hex="0038"/>
  <outline>
    <contour>
      <point x="276" y="708" type="curve" smooth="yes"/>
      <point x="406" y="708"/>
      <point x="483" y="628"/>
      <point x="483" y="534" type="curve" smooth="yes"/>
      <point x="483" y="450"/>
      <point x="446" y="412"/>
      <point x="396" y="385" type="curve"/>
      <point x="458" y="357"/>
      <point x="506" y="302"/>
      <point x="506" y="192" type="curve" smooth="yes"/>
      <point x="506" y="100"/>
      <point x="442" y="-8"/>
      <point x="271" y="-8" type="curve" smooth="yes"/>
      <point x="100" y="-8"/>
      <point x="29" y="90"/>
      <point x="29" y="201" type="curve" smooth="yes"/>
      <point x="29" y="295"/>
      <point x="75" y="354"/>
      <point x="130" y="375" type="curve"/>
      <point x="87" y="404"/>
      <point x="56" y="446"/>
      <point x="56" y="519" type="curve" smooth="yes"/>
      <point x="56" y="617"/>
      <point x="127" y="708"/>
    </contour>
    <contour>
      <point x="271" y="591" type="curve" smooth="yes"/>
      <point x="235" y="591"/>
      <point x="202" y="568"/>
      <point x="202" y="524" type="curve" smooth="yes"/>
      <point x="202" y="473"/>
      <point x="238" y="451"/>
      <point x="285" y="432" type="curve"/>
      <point x="321" y="456"/>
      <point x="339" y="488"/>
      <point x="339" y="524" type="curve" smooth="yes"/>
      <point x="339" y="566"/>
      <point x="307" y="591"/>
    </contour>
    <contour>
      <point x="233" y="326" type="curve"/>
      <point x="199" y="301"/>
      <point x="178" y="267"/>
      <point x="178" y="210" type="curve" smooth="yes"/>
      <point x="178" y="150"/>
      <point x="211" y="109"/>
      <point x="269" y="109" type="curve" smooth="yes"/>
      <point x="327" y="109"/>
      <point x="356" y="158"/>
      <point x="356" y="200" type="curve" smooth="yes"/>
      <point x="356" y="279"/>
      <point x="298" y="302"/>
    </contour>
  </outline>
</glyph>
<glyph name="nine" format="1">
  <advance width="535"/>
  <unicode hex="0039"/>
  <outline>
    <contour>
      <point x="264" y="707" type="curve" smooth="yes"/>
      <point x="377" y="707"/>
      <point x="500" y="639"/>
      <point x="500" y="446" type="curve" smooth="yes"/>
      <point x="500" y="62"/>
      <point x="160" y="-5"/>
      <point x="146" y="-5" type="curve" smooth="yes"/>
      <point x="112" y="-5"/>
      <point x="96" y="58"/>
      <point x="96" y="78" type="curve" smooth="yes"/>
      <point x="96" y="92"/>
      <point x="98" y="96"/>
      <point x="109" y="99" type="curve" smooth="yes"/>
      <point x="206" y="128"/>
      <point x="293" y="197"/>
      <point x="326" y="296" type="curve"/>
      <point x="287" y="275"/>
      <point x="255" y="271"/>
      <point x="226" y="271" type="curve" smooth="yes"/>
      <point x="152" y="271"/>
      <point x="29" y="321"/>
      <point x="29" y="483" type="curve" smooth="yes"/>
      <point x="29" y="645"/>
      <point x="151" y="707"/>
    </contour>
    <contour>
      <point x="263" y="590" type="curve" smooth="yes"/>
      <point x="216" y="590"/>
      <point x="178" y="548"/>
      <point x="178" y="487" type="curve" smooth="yes"/>
      <point x="178" y="426"/>
      <point x="211" y="388"/>
      <point x="269" y="388" type="curve" smooth="yes"/>
      <point x="296" y="388"/>
      <point x="323" y="398"/>
      <point x="348" y="412" type="curve"/>
      <point x="349" y="427"/>
      <point x="349" y="442"/>
      <point x="349" y="458" type="curve" smooth="yes"/>
      <point x="349" y="557"/>
      <point x="310" y="590"/>
    </contour>
  </outline>
</glyph>
<glyph name="colon" format="1">
  <advance width="198"/>
  <unicode hex="003A"/>
  <outline>
    <contour>
      <point x="82" y="525" type="curve" smooth="yes"/>
      <point x="114" y="525" type="line" smooth="yes"/>
      <point x="156" y="525"/>
      <point x="174" y="514"/>
      <point x="174" y="493" type="curve" smooth="yes"/>
      <point x="174" y="401" type="line" smooth="yes"/>
      <point x="174" y="380"/>
      <point x="156" y="369"/>
      <point x="114" y="369" type="curve" smooth="yes"/>
      <point x="82" y="369" type="line" smooth="yes"/>
      <point x="40" y="369"/>
      <point x="22" y="380"/>
      <point x="22" y="401" type="curve" smooth="yes"/>
      <point x="22" y="493" type="line" smooth="yes"/>
      <point x="22" y="514"/>
      <point x="40" y="525"/>
    </contour>
    <contour>
      <point x="82" y="154" type="curve" smooth="yes"/>
      <point x="114" y="154" type="line" smooth="yes"/>
      <point x="156" y="154"/>
      <point x="174" y="143"/>
      <point x="174" y="122" type="curve" smooth="yes"/>
      <point x="174" y="30" type="line" smooth="yes"/>
      <point x="174" y="9"/>
      <point x="156" y="-2"/>
      <point x="114" y="-2" type="curve" smooth="yes"/>
      <point x="82" y="-2" type="line" smooth="yes"/>
      <point x="40" y="-2"/>
      <point x="22" y="9"/>
      <point x="22" y="30" type="curve" smooth="yes"/>
      <point x="22" y="122" type="line" smooth="yes"/>
      <point x="22" y="143"/>
      <point x="40" y="154"/>
    </contour>
  </outline>
</glyph>
<glyph name="semicolon" format="1">
  <advance width="198"/>
  <unicode hex="003B"/>
  <outline>
    <contour>
      <point x="82" y="525" type="line" smooth="yes"/>
      <point x="40" y="525"/>
      <point x="22" y="514"/>
      <point x="22" y="493" type="curve" smooth="yes"/>
      <point x="22" y="401" type="line" smooth="yes"/>
      <point x="22" y="380"/>
      <point x="40" y="369"/>
      <point x="82" y="369" type="curve"/>
      <point x="114" y="369" type="line" smooth="yes"/>
      <point x="156" y="369"/>
      <point x="174" y="380"/>
      <point x="174" y="401" type="curve" smooth="yes"/>
      <point x="174" y="493" type="line" smooth="yes"/>
      <point x="174" y="514"/>
      <point x="156" y="525"/>
      <point x="114" y="525" type="curve" smooth="yes"/>
    </contour>
    <component base="comma"/>
  </outline>
</glyph>
<glyph name="less" format="1">
  <advance width="560"/>
  <unicode hex="003C"/>
  <outline>
    <contour>
      <point x="496" y="479"/>
      <point x="491" y="478"/>
      <point x="485" y="476" type="curve" smooth="yes"/>
      <point x="66" y="297" type="line" smooth="yes"/>
      <point x="46" y="288"/>
      <point x="38" y="276"/>
      <point x="38" y="255" type="curve" smooth="yes"/>
      <point x="38" y="236" type="line" smooth="yes"/>
      <point x="38" y="214"/>
      <point x="46" y="202"/>
      <point x="66" y="194" type="curve"/>
      <point x="486" y="14" type="line" smooth="yes"/>
      <point x="492" y="11"/>
      <point x="497" y="10"/>
      <point x="501" y="10" type="curve" smooth="yes"/>
      <point x="510" y="10"/>
      <point x="516" y="23"/>
      <point x="516" y="52" type="curve" smooth="yes"/>
      <point x="516" y="68" type="line" smooth="yes"/>
      <point x="516" y="99"/>
      <point x="508" y="120"/>
      <point x="486" y="129" type="curve" smooth="yes"/>
      <point x="193" y="245" type="line"/>
      <point x="485" y="361" type="line" smooth="yes"/>
      <point x="507" y="370"/>
      <point x="515" y="391"/>
      <point x="515" y="422" type="curve" smooth="yes"/>
      <point x="515" y="438" type="line" smooth="yes"/>
      <point x="515" y="467"/>
      <point x="509" y="479"/>
      <point x="500" y="479" type="curve" smooth="yes"/>
    </contour>
  </outline>
</glyph>
<glyph name="equal" format="1">
  <advance width="560"/>
  <unicode hex="003D"/>
  <outline>
    <contour>
      <point x="71" y="374" type="curve" smooth="yes"/>
      <point x="489" y="374" type="line" smooth="yes"/>
      <point x="510" y="374"/>
      <point x="519" y="359"/>
      <point x="519" y="324" type="curve" smooth="yes"/>
      <point x="519" y="317" type="line" smooth="yes"/>
      <point x="519" y="282"/>
      <point x="510" y="267"/>
      <point x="489" y="267" type="curve" smooth="yes"/>
      <point x="71" y="267" type="line" smooth="yes"/>
      <point x="50" y="267"/>
      <point x="41" y="282"/>
      <point x="41" y="317" type="curve" smooth="yes"/>
      <point x="41" y="324" type="line" smooth="yes"/>
      <point x="41" y="359"/>
      <point x="50" y="374"/>
    </contour>
    <contour>
      <point x="71" y="193" type="curve" smooth="yes"/>
      <point x="489" y="193" type="line" smooth="yes"/>
      <point x="510" y="193"/>
      <point x="519" y="178"/>
      <point x="519" y="143" type="curve" smooth="yes"/>
      <point x="519" y="136" type="line" smooth="yes"/>
      <point x="519" y="101"/>
      <point x="510" y="86"/>
      <point x="489" y="86" type="curve" smooth="yes"/>
      <point x="71" y="86" type="line" smooth="yes"/>
      <point x="50" y="86"/>
      <point x="41" y="101"/>
      <point x="41" y="136" type="curve" smooth="yes"/>
      <point x="41" y="143" type="line" smooth="yes"/>
      <point x="41" y="178"/>
      <point x="50" y="193"/>
    </contour>
  </outline>
</glyph>
<glyph name="greater" format="1">
  <advance width="560"/>
  <unicode hex="003E"/>
  <outline>
    <contour>
      <point x="54" y="479" type="curve" smooth="yes"/>
      <point x="58" y="479"/>
      <point x="63" y="478"/>
      <point x="69" y="476" type="curve" smooth="yes"/>
      <point x="488" y="297" type="line" smooth="yes"/>
      <point x="508" y="288"/>
      <point x="516" y="276"/>
      <point x="516" y="255" type="curve" smooth="yes"/>
      <point x="516" y="236" type="line" smooth="yes"/>
      <point x="516" y="214"/>
      <point x="508" y="202"/>
      <point x="488" y="194" type="curve" smooth="yes"/>
      <point x="68" y="14" type="line" smooth="yes"/>
      <point x="62" y="11"/>
      <point x="57" y="10"/>
      <point x="53" y="10" type="curve" smooth="yes"/>
      <point x="44" y="10"/>
      <point x="38" y="23"/>
      <point x="38" y="52" type="curve" smooth="yes"/>
      <point x="38" y="68" type="line" smooth="yes"/>
      <point x="38" y="99"/>
      <point x="46" y="120"/>
      <point x="68" y="129" type="curve" smooth="yes"/>
      <point x="361" y="245" type="line"/>
      <point x="69" y="361" type="line" smooth="yes"/>
      <point x="47" y="370"/>
      <point x="39" y="391"/>
      <point x="39" y="422" type="curve" smooth="yes"/>
      <point x="39" y="438" type="line" smooth="yes"/>
      <point x="39" y="467"/>
      <point x="45" y="479"/>
    </contour>
  </outline>
</glyph>
<glyph name="question" format="1">
  <advance width="445"/>
  <unicode hex="003F"/>
  <outline>
    <contour>
      <point x="220" y="708" type="curve" smooth="yes"/>
      <point x="354" y="708"/>
      <point x="437" y="640"/>
      <point x="437" y="530" type="curve" smooth="yes"/>
      <point x="437" y="377"/>
      <point x="269" y="345"/>
      <point x="251" y="249" type="curve" smooth="yes"/>
      <point x="245" y="228"/>
      <point x="231" y="222"/>
      <point x="198" y="222" type="curve" smooth="yes"/>
      <point x="175" y="222" type="line" smooth="yes"/>
      <point x="140" y="222"/>
      <point x="126" y="230"/>
      <point x="126" y="251" type="curve" smooth="yes"/>
      <point x="126" y="309"/>
      <point x="159" y="357"/>
      <point x="194" y="399" type="curve" smooth="yes"/>
      <point x="236" y="448"/>
      <point x="281" y="487"/>
      <point x="281" y="520" type="curve" smooth="yes"/>
      <point x="281" y="555"/>
      <point x="258" y="576"/>
      <point x="207" y="576" type="curve" smooth="yes"/>
      <point x="149" y="576"/>
      <point x="109" y="545"/>
      <point x="95" y="545" type="curve" smooth="yes"/>
      <point x="67" y="545"/>
      <point x="32" y="606"/>
      <point x="32" y="627" type="curve" smooth="yes"/>
      <point x="32" y="686"/>
      <point x="142" y="708"/>
    </contour>
    <contour>
      <point x="170" y="154" type="curve" smooth="yes"/>
      <point x="202" y="154" type="line" smooth="yes"/>
      <point x="244" y="154"/>
      <point x="262" y="143"/>
      <point x="262" y="122" type="curve" smooth="yes"/>
      <point x="262" y="30" type="line" smooth="yes"/>
      <point x="262" y="9"/>
      <point x="244" y="-2"/>
      <point x="202" y="-2" type="curve" smooth="yes"/>
      <point x="170" y="-2" type="line" smooth="yes"/>
      <point x="128" y="-2"/>
      <point x="110" y="9"/>
      <point x="110" y="30" type="curve" smooth="yes"/>
      <point x="110" y="122" type="line" smooth="yes"/>
      <point x="110" y="143"/>
      <point x="128" y="154"/>
    </contour>
  </outline>
</glyph>
<glyph name="A" format="1">
  <advance width="613"/>
  <unicode hex="0041"/>
  <outline>
    <contour>
      <point x="281" y="702" type="line" smooth="yes"/>
      <point x="252" y="702"/>
      <point x="230" y="697"/>
      <point x="224" y="681" type="curve" smooth="yes"/>
      <point x="4" y="38" type="line" smooth="yes"/>
      <point x="2" y="31"/>
      <point x="0" y="25"/>
      <point x="0" y="20" type="curve" smooth="yes"/>
      <point x="0" y="6"/>
      <point x="19" y="-2"/>
      <point x="61" y="-2" type="curve" smooth="yes"/>
      <point x="101" y="-2" type="line" smooth="yes"/>
      <point x="125" y="-2"/>
      <point x="142" y="4"/>
      <point x="147" y="19" type="curve" smooth="yes"/>
      <point x="187" y="141" type="line"/>
      <point x="423" y="141" type="line"/>
      <point x="463" y="19" type="line" smooth="yes"/>
      <point x="468" y="3"/>
      <point x="490" y="-2"/>
      <point x="519" y="-2" type="curve" smooth="yes"/>
      <point x="563" y="-2" type="line" smooth="yes"/>
      <point x="598" y="-2"/>
      <point x="613" y="6"/>
      <point x="613" y="20" type="curve" smooth="yes"/>
      <point x="613" y="25"/>
      <point x="612" y="31"/>
      <point x="610" y="38" type="curve" smooth="yes"/>
      <point x="390" y="681" type="line" smooth="yes"/>
      <point x="384" y="697"/>
      <point x="362" y="702"/>
      <point x="333" y="702" type="curve" smooth="yes"/>
    </contour>
    <contour>
      <point x="312" y="494"/>
      <point x="316" y="472"/>
      <point x="323" y="451" type="curve" smooth="yes"/>
      <point x="380" y="273" type="line"/>
      <point x="230" y="273" type="line"/>
      <point x="289" y="451" type="line" smooth="yes"/>
      <point x="297" y="472"/>
      <point x="300" y="494"/>
      <point x="304" y="515" type="curve"/>
      <point x="308" y="515" type="line"/>
    </contour>
    <contour>
      <point x="552" y="0" type="move" name="ogonek"/>
    </contour>
    <contour>
      <point x="310" y="0" type="move" name="bottom"/>
    </contour>
    <contour>
      <point x="307" y="700" type="move" name="top"/>
    </contour>
  </outline>
</glyph>
<glyph name="B" format="1">
  <advance width="593"/>
  <unicode hex="0042"/>
  <outline>
    <contour>
      <point x="109" y="700" type="curve" smooth="yes"/>
      <point x="307" y="700" type="line" smooth="yes"/>
      <point x="476" y="700"/>
      <point x="543" y="628"/>
      <point x="543" y="523" type="curve" smooth="yes"/>
      <point x="543" y="455"/>
      <point x="495" y="396"/>
      <point x="435" y="371" type="curve"/>
      <point x="436" y="367" type="line"/>
      <point x="516" y="351"/>
      <point x="571" y="280"/>
      <point x="571" y="203" type="curve" smooth="yes"/>
      <point x="571" y="74"/>
      <point x="490" y="0"/>
      <point x="321" y="0" type="curve" smooth="yes"/>
      <point x="109" y="0" type="line" smooth="yes"/>
      <point x="81" y="0"/>
      <point x="69" y="12"/>
      <point x="69" y="40" type="curve" smooth="yes"/>
      <point x="69" y="660" type="line" smooth="yes"/>
      <point x="69" y="688"/>
      <point x="81" y="700"/>
    </contour>
    <contour>
      <point x="223" y="570" type="line"/>
      <point x="223" y="421" type="line"/>
      <point x="292" y="421" type="line" smooth="yes"/>
      <point x="352" y="421"/>
      <point x="385" y="454"/>
      <point x="385" y="496" type="curve" smooth="yes"/>
      <point x="385" y="545"/>
      <point x="355" y="570"/>
      <point x="294" y="570" type="curve" smooth="yes"/>
    </contour>
    <contour>
      <point x="223" y="290" type="line"/>
      <point x="223" y="131" type="line"/>
      <point x="321" y="131" type="line" smooth="yes"/>
      <point x="379" y="131"/>
      <point x="413" y="160"/>
      <point x="413" y="212" type="curve" smooth="yes"/>
      <point x="413" y="264"/>
      <point x="374" y="290"/>
      <point x="305" y="290" type="curve" smooth="yes"/>
    </contour>
  </outline>
</glyph>
<glyph name="D" format="1">
  <advance width="695"/>
  <unicode hex="0044"/>
  <outline>
    <contour>
      <point x="333" y="700" type="move" name="Anchor-1"/>
    </contour>
    <contour>
      <point x="331" y="0" type="move" name="Anchor-0"/>
    </contour>
    <contour>
      <point x="109" y="700" type="curve" smooth="yes"/>
      <point x="333" y="700" type="line" smooth="yes"/>
      <point x="539" y="700"/>
      <point x="653" y="576"/>
      <point x="653" y="350" type="curve" smooth="yes"/>
      <point x="653" y="124"/>
      <point x="539" y="0"/>
      <point x="333" y="0" type="curve" smooth="yes"/>
      <point x="109" y="0" type="line" smooth="yes"/>
      <point x="81" y="0"/>
      <point x="69" y="12"/>
      <point x="69" y="40" type="curve" smooth="yes"/>
      <point x="69" y="660" type="line" smooth="yes"/>
      <point x="69" y="688"/>
      <point x="81" y="700"/>
    </contour>
    <contour>
      <point x="224" y="569" type="line"/>
      <point x="224" y="131" type="line"/>
      <point x="333" y="131" type="line" smooth="yes"/>
      <point x="440" y="131"/>
      <point x="495" y="208"/>
      <point x="495" y="350" type="curve" smooth="yes"/>
      <point x="495" y="492"/>
      <point x="440" y="569"/>
      <point x="333" y="569" type="curve" smooth="yes"/>
    </contour>
  </outline>
</glyph>
<glyph name="E" format="1">
  <advance width="546"/>
  <unicode hex="0045"/>
  <outline>
    <contour>
      <point x="109" y="700" type="line" smooth="yes"/>
      <point x="81" y="700"/>
      <point x="69" y="688"/>
      <point x="69" y="660" type="curve" smooth="yes"/>
      <point x="69" y="40" type="line" smooth="yes"/>
      <point x="69" y="12"/>
      <point x="81" y="0"/>
      <point x="109" y="0" type="curve" smooth="yes"/>
      <point x="476" y="0" type="line" smooth="yes"/>
      <point x="497" y="0"/>
      <point x="506" y="15"/>
      <point x="506" y="50" type="curve" smooth="yes"/>
      <point x="506" y="81" type="line" smooth="yes"/>
      <point x="506" y="116"/>
      <point x="497" y="131"/>
      <point x="476" y="131" type="curve" smooth="yes"/>
      <point x="223" y="131" type="line"/>
      <point x="223" y="293" type="line"/>
      <point x="448" y="293" type="line" smooth="yes"/>
      <point x="469" y="293"/>
      <point x="478" y="308"/>
      <point x="478" y="343" type="curve" smooth="yes"/>
      <point x="478" y="374" type="line" smooth="yes"/>
      <point x="478" y="409"/>
      <point x="469" y="424"/>
      <point x="448" y="424" type="curve" smooth="yes"/>
      <point x="223" y="424" type="line"/>
      <point x="223" y="569" type="line"/>
      <point x="475" y="569" type="line" smooth="yes"/>
      <point x="496" y="569"/>
      <point x="505" y="584"/>
      <point x="505" y="619" type="curve" smooth="yes"/>
      <point x="505" y="650" type="line" smooth="yes"/>
      <point x="505" y="685"/>
      <point x="496" y="700"/>
      <point x="475" y="700" type="curve" smooth="yes"/>
    </contour>
    <contour>
      <point x="473" y="0" type="move" name="ogonek"/>
    </contour>
    <contour>
      <point x="287" y="0" type="move" name="bottom"/>
    </contour>
    <contour>
      <point x="295" y="700" type="move" name="top"/>
    </contour>
  </outline>
</glyph>
<glyph name="F" format="1">
  <advance width="503"/>
  <unicode hex="0046"/>
  <outline>
    <contour>
      <point x="109" y="700" type="line" smooth="yes"/>
      <point x="81" y="700"/>
      <point x="69" y="688"/>
      <point x="69" y="660" type="curve" smooth="yes"/>
      <point x="69" y="30" type="line" smooth="yes"/>
      <point x="69" y="9"/>
      <point x="87" y="-2"/>
      <point x="129" y="-2" type="curve" smooth="yes"/>
      <point x="163" y="-2" type="line" smooth="yes"/>
      <point x="205" y="-2"/>
      <point x="223" y="9"/>
      <point x="223" y="30" type="curve" smooth="yes"/>
      <point x="223" y="292" type="line"/>
      <point x="436" y="292" type="line" smooth="yes"/>
      <point x="457" y="292"/>
      <point x="466" y="307"/>
      <point x="466" y="342" type="curve" smooth="yes"/>
      <point x="466" y="373" type="line" smooth="yes"/>
      <point x="466" y="408"/>
      <point x="457" y="423"/>
      <point x="436" y="423" type="curve" smooth="yes"/>
      <point x="223" y="423" type="line"/>
      <point x="223" y="569" type="line"/>
      <point x="443" y="569" type="line" smooth="yes"/>
      <point x="464" y="569"/>
      <point x="473" y="584"/>
      <point x="473" y="619" type="curve" smooth="yes"/>
      <point x="473" y="650" type="line" smooth="yes"/>
      <point x="473" y="685"/>
      <point x="464" y="700"/>
      <point x="443" y="700" type="curve" smooth="yes"/>
    </contour>
  </outline>
</glyph>
<glyph name="G" format="1">
  <advance width="672"/>
  <unicode hex="0047"/>
  <outline>
    <contour>
      <point x="350" y="700" type="move" name="Anchor-1"/>
    </contour>
    <contour>
      <point x="355" y="0" type="move" name="Anchor-0"/>
    </contour>
    <contour>
      <point x="379" y="708" type="curve" smooth="yes"/>
      <point x="467" y="708"/>
      <point x="593" y="680"/>
      <point x="593" y="638" type="curve" smooth="yes"/>
      <point x="593" y="610"/>
      <point x="553" y="544"/>
      <point x="528" y="544" type="curve" smooth="yes"/>
      <point x="516" y="544"/>
      <point x="471" y="576"/>
      <point x="376" y="576" type="curve" smooth="yes"/>
      <point x="258" y="576"/>
      <point x="203" y="501"/>
      <point x="203" y="351" type="curve" smooth="yes"/>
      <point x="203" y="201"/>
      <point x="259" y="123"/>
      <point x="374" y="123" type="curve" smooth="yes"/>
      <point x="402" y="123"/>
      <point x="425" y="125"/>
      <point x="452" y="130" type="curve"/>
      <point x="452" y="257" type="line"/>
      <point x="364" y="257" type="line" smooth="yes"/>
      <point x="343" y="257"/>
      <point x="334" y="272"/>
      <point x="334" y="307" type="curve" smooth="yes"/>
      <point x="334" y="339" type="line" smooth="yes"/>
      <point x="334" y="374"/>
      <point x="343" y="389"/>
      <point x="364" y="389" type="curve" smooth="yes"/>
      <point x="567" y="389" type="line" smooth="yes"/>
      <point x="595" y="389"/>
      <point x="607" y="377"/>
      <point x="607" y="349" type="curve" smooth="yes"/>
      <point x="607" y="71" type="line" smooth="yes"/>
      <point x="607" y="2"/>
      <point x="445" y="-8"/>
      <point x="374" y="-8" type="curve" smooth="yes"/>
      <point x="150" y="-8"/>
      <point x="45" y="105"/>
      <point x="45" y="352" type="curve" smooth="yes"/>
      <point x="45" y="590"/>
      <point x="157" y="708"/>
    </contour>
  </outline>
</glyph>
<glyph name="H" format="1">
  <advance width="733"/>
  <unicode hex="0048"/>
  <outline>
    <contour>
      <point x="569" y="702" type="line" smooth="yes"/>
      <point x="527" y="702"/>
      <point x="509" y="691"/>
      <point x="509" y="670" type="curve" smooth="yes"/>
      <point x="509" y="423" type="line"/>
      <point x="239" y="423" type="line"/>
      <point x="239" y="670" type="line" smooth="yes"/>
      <point x="239" y="691"/>
      <point x="221" y="702"/>
      <point x="179" y="702" type="curve" smooth="yes"/>
      <point x="144" y="702" type="line" smooth="yes"/>
      <point x="102" y="702"/>
      <point x="84" y="691"/>
      <point x="84" y="670" type="curve" smooth="yes"/>
      <point x="84" y="30" type="line" smooth="yes"/>
      <point x="84" y="9"/>
      <point x="102" y="-2"/>
      <point x="144" y="-2" type="curve" smooth="yes"/>
      <point x="179" y="-2" type="line" smooth="yes"/>
      <point x="221" y="-2"/>
      <point x="239" y="9"/>
      <point x="239" y="30" type="curve" smooth="yes"/>
      <point x="239" y="291" type="line"/>
      <point x="509" y="291" type="line"/>
      <point x="509" y="30" type="line" smooth="yes"/>
      <point x="509" y="9"/>
      <point x="527" y="-2"/>
      <point x="569" y="-2" type="curve" smooth="yes"/>
      <point x="604" y="-2" type="line" smooth="yes"/>
      <point x="646" y="-2"/>
      <point x="664" y="9"/>
      <point x="664" y="30" type="curve" smooth="yes"/>
      <point x="664" y="670" type="line" smooth="yes"/>
      <point x="664" y="691"/>
      <point x="646" y="702"/>
      <point x="604" y="702" type="curve" smooth="yes"/>
    </contour>
    <contour>
      <point x="375" y="523" type="move" name="center"/>
    </contour>
    <contour>
      <point x="381" y="0" type="move" name="bottom"/>
    </contour>
    <contour>
      <point x="367" y="700" type="move" name="top"/>
    </contour>
  </outline>
</glyph>
<glyph name="I" format="1">
  <advance width="282"/>
  <unicode hex="0049"/>
  <outline>
    <contour>
      <point x="141" y="700" type="move" name="Anchor-1"/>
    </contour>
    <contour>
      <point x="141" y="0" type="move" name="Anchor-0"/>
    </contour>
    <contour>
      <point x="123" y="703" type="curve" smooth="yes"/>
      <point x="158" y="703" type="line" smooth="yes"/>
      <point x="200" y="703"/>
      <point x="218" y="691"/>
      <point x="218" y="670" type="curve" smooth="yes"/>
      <point x="218" y="30" type="line" smooth="yes"/>
      <point x="218" y="9"/>
      <point x="200" y="-3"/>
      <point x="158" y="-3" type="curve" smooth="yes"/>
      <point x="123" y="-3" type="line" smooth="yes"/>
      <point x="81" y="-3"/>
      <point x="63" y="9"/>
      <point x="63" y="30" type="curve" smooth="yes"/>
      <point x="63" y="670" type="line" smooth="yes"/>
      <point x="63" y="691"/>
      <point x="81" y="703"/>
    </contour>
  </outline>
</glyph>
<glyph name="J" format="1">
  <advance width="402"/>
  <unicode hex="004A"/>
  <outline>
    <contour>
      <point x="261" y="700" type="move" name="Anchor-1"/>
    </contour>
    <contour>
      <point x="0" y="0" type="move" name="Anchor-0"/>
    </contour>
    <contour>
      <point x="241" y="703" type="curve" smooth="yes"/>
      <point x="276" y="703" type="line" smooth="yes"/>
      <point x="318" y="703"/>
      <point x="336" y="691"/>
      <point x="336" y="670" type="curve" smooth="yes"/>
      <point x="336" y="202" type="line" smooth="yes"/>
      <point x="336" y="75"/>
      <point x="273" y="-8"/>
      <point x="124" y="-8" type="curve" smooth="yes"/>
      <point x="100" y="-8"/>
      <point x="0" y="-5"/>
      <point x="0" y="38" type="curve" smooth="yes"/>
      <point x="0" y="56"/>
      <point x="10" y="128"/>
      <point x="41" y="131" type="curve" smooth="yes"/>
      <point x="51" y="131"/>
      <point x="65" y="123"/>
      <point x="97" y="123" type="curve" smooth="yes"/>
      <point x="157" y="123"/>
      <point x="181" y="154"/>
      <point x="181" y="227" type="curve" smooth="yes"/>
      <point x="181" y="670" type="line" smooth="yes"/>
      <point x="181" y="691"/>
      <point x="199" y="703"/>
    </contour>
  </outline>
</glyph>
<glyph name="L" format="1">
  <advance width="484"/>
  <unicode hex="004C"/>
  <outline>
    <contour>
      <point x="150" y="700" type="move" name="Anchor-1"/>
    </contour>
    <contour>
      <point x="242" y="0" type="move" name="Anchor-0"/>
    </contour>
    <contour>
      <point x="129" y="702" type="curve" smooth="yes"/>
      <point x="163" y="702" type="line" smooth="yes"/>
      <point x="205" y="702"/>
      <point x="223" y="691"/>
      <point x="223" y="670" type="curve" smooth="yes"/>
      <point x="223" y="131" type="line"/>
      <point x="446" y="131" type="line" smooth="yes"/>
      <point x="467" y="131"/>
      <point x="476" y="116"/>
      <point x="476" y="81" type="curve" smooth="yes"/>
      <point x="476" y="50" type="line" smooth="yes"/>
      <point x="476" y="15"/>
      <point x="467" y="0"/>
      <point x="446" y="0" type="curve" smooth="yes"/>
      <point x="109" y="0" type="line" smooth="yes"/>
      <point x="81" y="0"/>
      <point x="69" y="12"/>
      <point x="69" y="40" type="curve" smooth="yes"/>
      <point x="69" y="670" type="line" smooth="yes"/>
      <point x="69" y="691"/>
      <point x="87" y="702"/>
    </contour>
  </outline>
</glyph>
<glyph name="M" format="1">
  <advance width="843"/>
  <unicode hex="004D"/>
  <outline>
    <contour>
      <point x="662" y="702" type="line" smooth="yes"/>
      <point x="633" y="702"/>
      <point x="610" y="695"/>
      <point x="599" y="675" type="curve" smooth="yes"/>
      <point x="430" y="379" type="line"/>
      <point x="421" y="362" type="line"/>
      <point x="413" y="376" type="line"/>
      <point x="245" y="675" type="line" smooth="yes"/>
      <point x="234" y="695"/>
      <point x="211" y="702"/>
      <point x="182" y="702" type="curve" smooth="yes"/>
      <point x="129" y="702" type="line" smooth="yes"/>
      <point x="87" y="702"/>
      <point x="69" y="691"/>
      <point x="69" y="670" type="curve" smooth="yes"/>
      <point x="69" y="30" type="line" smooth="yes"/>
      <point x="69" y="9"/>
      <point x="87" y="-2"/>
      <point x="129" y="-2" type="curve" smooth="yes"/>
      <point x="158" y="-2" type="line" smooth="yes"/>
      <point x="200" y="-2"/>
      <point x="218" y="9"/>
      <point x="218" y="30" type="curve" smooth="yes"/>
      <point x="218" y="444" type="line"/>
      <point x="222" y="445" type="line"/>
      <point x="367" y="186" type="line"/>
      <point x="376" y="174"/>
      <point x="388" y="167"/>
      <point x="407" y="167" type="curve" smooth="yes"/>
      <point x="436" y="167" type="line" smooth="yes"/>
      <point x="455" y="167"/>
      <point x="467" y="174"/>
      <point x="476" y="186" type="curve"/>
      <point x="621" y="445" type="line"/>
      <point x="625" y="444" type="line"/>
      <point x="625" y="30" type="line" smooth="yes"/>
      <point x="625" y="9"/>
      <point x="643" y="-2"/>
      <point x="685" y="-2" type="curve" smooth="yes"/>
      <point x="714" y="-2" type="line" smooth="yes"/>
      <point x="756" y="-2"/>
      <point x="774" y="9"/>
      <point x="774" y="30" type="curve" smooth="yes"/>
      <point x="774" y="670" type="line" smooth="yes"/>
      <point x="774" y="691"/>
      <point x="756" y="702"/>
      <point x="714" y="702" type="curve" smooth="yes"/>
    </contour>
  </outline>
</glyph>
<glyph name="N" format="1">
  <advance width="719"/>
  <unicode hex="004E"/>
  <outline>
    <contour>
      <point x="360" y="700" type="move" name="Anchor-1"/>
    </contour>
    <contour>
      <point x="360" y="0" type="move" name="Anchor-0"/>
    </contour>
    <contour>
      <point x="561" y="702" type="curve" smooth="yes"/>
      <point x="590" y="702" type="line" smooth="yes"/>
      <point x="632" y="702"/>
      <point x="650" y="691"/>
      <point x="650" y="670" type="curve" smooth="yes"/>
      <point x="650" y="30" type="line" smooth="yes"/>
      <point x="650" y="9"/>
      <point x="632" y="-2"/>
      <point x="590" y="-2" type="curve" smooth="yes"/>
      <point x="552" y="-2" type="line" smooth="yes"/>
      <point x="523" y="-2"/>
      <point x="501" y="2"/>
      <point x="486" y="25" type="curve" smooth="yes"/>
      <point x="218" y="435" type="line"/>
      <point x="218" y="30" type="line" smooth="yes"/>
      <point x="218" y="9"/>
      <point x="200" y="-2"/>
      <point x="158" y="-2" type="curve" smooth="yes"/>
      <point x="129" y="-2" type="line" smooth="yes"/>
      <point x="87" y="-2"/>
      <point x="69" y="9"/>
      <point x="69" y="30" type="curve" smooth="yes"/>
      <point x="69" y="670" type="line" smooth="yes"/>
      <point x="69" y="691"/>
      <point x="87" y="702"/>
      <point x="129" y="702" type="curve" smooth="yes"/>
      <point x="172" y="702" type="line" smooth="yes"/>
      <point x="201" y="702"/>
      <point x="223" y="698"/>
      <point x="238" y="675" type="curve" smooth="yes"/>
      <point x="474" y="311" type="line"/>
      <point x="501" y="270" type="line"/>
      <point x="501" y="670" type="line" smooth="yes"/>
      <point x="501" y="691"/>
      <point x="519" y="702"/>
    </contour>
  </outline>
</glyph>
<glyph name="O" format="1">
  <advance width="731"/>
  <unicode hex="004F"/>
  <outline>
    <contour>
      <point x="366" y="700" type="move" name="Anchor-1"/>
    </contour>
    <contour>
      <point x="367" y="0" type="move" name="Anchor-0"/>
    </contour>
    <contour>
      <point x="366" y="708" type="curve" smooth="yes"/>
      <point x="572" y="708"/>
      <point x="686" y="581"/>
      <point x="686" y="350" type="curve" smooth="yes"/>
      <point x="686" y="119"/>
      <point x="572" y="-8"/>
      <point x="366" y="-8" type="curve" smooth="yes"/>
      <point x="160" y="-8"/>
      <point x="45" y="119"/>
      <point x="45" y="350" type="curve" smooth="yes"/>
      <point x="45" y="581"/>
      <point x="160" y="708"/>
    </contour>
    <contour>
      <point x="366" y="576" type="curve" smooth="yes"/>
      <point x="259" y="576"/>
      <point x="203" y="497"/>
      <point x="203" y="350" type="curve" smooth="yes"/>
      <point x="203" y="203"/>
      <point x="259" y="123"/>
      <point x="366" y="123" type="curve" smooth="yes"/>
      <point x="473" y="123"/>
      <point x="528" y="203"/>
      <point x="528" y="350" type="curve" smooth="yes"/>
      <point x="528" y="497"/>
      <point x="473" y="576"/>
    </contour>
  </outline>
</glyph>
<glyph name="P" format="1">
  <advance width="570"/>
  <unicode hex="0050"/>
  <outline>
    <contour>
      <point x="109" y="700" type="curve" smooth="yes"/>
      <point x="319" y="700" type="line" smooth="yes"/>
      <point x="408" y="700"/>
      <point x="557" y="674"/>
      <point x="557" y="481" type="curve" smooth="yes"/>
      <point x="557" y="288"/>
      <point x="383" y="262"/>
      <point x="329" y="262" type="curve" smooth="yes"/>
      <point x="223" y="262" type="line"/>
      <point x="223" y="30" type="line" smooth="yes"/>
      <point x="223" y="9"/>
      <point x="205" y="-2"/>
      <point x="163" y="-2" type="curve" smooth="yes"/>
      <point x="129" y="-2" type="line" smooth="yes"/>
      <point x="87" y="-2"/>
      <point x="69" y="9"/>
      <point x="69" y="30" type="curve" smooth="yes"/>
      <point x="69" y="660" type="line" smooth="yes"/>
      <point x="69" y="688"/>
      <point x="81" y="700"/>
    </contour>
    <contour>
      <point x="223" y="569" type="line"/>
      <point x="223" y="394" type="line"/>
      <point x="312" y="394" type="line" smooth="yes"/>
      <point x="350" y="394"/>
      <point x="399" y="409"/>
      <point x="399" y="481" type="curve" smooth="yes"/>
      <point x="399" y="553"/>
      <point x="350" y="569"/>
      <point x="312" y="569" type="curve" smooth="yes"/>
    </contour>
  </outline>
</glyph>
<glyph name="Q" format="1">
  <advance width="731"/>
  <unicode hex="0051"/>
  <outline>
    <contour>
      <point x="366" y="708" type="curve" smooth="yes"/>
      <point x="572" y="708"/>
      <point x="686" y="581"/>
      <point x="686" y="350" type="curve" smooth="yes"/>
      <point x="686" y="192"/>
      <point x="630" y="83"/>
      <point x="529" y="31" type="curve"/>
      <point x="529" y="27" type="line"/>
      <point x="682" y="-28" type="line" smooth="yes"/>
      <point x="691" y="-31"/>
      <point x="696" y="-37"/>
      <point x="696" y="-44" type="curve" smooth="yes"/>
      <point x="696" y="-60"/>
      <point x="673" y="-146"/>
      <point x="641" y="-146" type="curve" smooth="yes"/>
      <point x="631" y="-146"/>
      <point x="634" y="-145"/>
      <point x="227" y="16" type="curve" smooth="yes"/>
      <point x="109" y="62"/>
      <point x="45" y="177"/>
      <point x="45" y="350" type="curve" smooth="yes"/>
      <point x="45" y="581"/>
      <point x="160" y="708"/>
    </contour>
    <contour>
      <point x="366" y="576" type="curve" smooth="yes"/>
      <point x="259" y="576"/>
      <point x="203" y="497"/>
      <point x="203" y="350" type="curve" smooth="yes"/>
      <point x="203" y="200"/>
      <point x="259" y="119"/>
      <point x="366" y="119" type="curve" smooth="yes"/>
      <point x="473" y="119"/>
      <point x="528" y="200"/>
      <point x="528" y="350" type="curve" smooth="yes"/>
      <point x="528" y="497"/>
      <point x="473" y="576"/>
    </contour>
  </outline>
</glyph>
<glyph name="S" format="1">
  <advance width="500"/>
  <unicode hex="0053"/>
  <outline>
    <contour>
      <point x="250" y="700" type="move" name="Anchor-1"/>
    </contour>
    <contour>
      <point x="250" y="0" type="move" name="Anchor-0"/>
    </contour>
    <contour>
      <point x="273" y="708" type="curve" smooth="yes"/>
      <point x="379" y="708"/>
      <point x="453" y="671"/>
      <point x="453" y="638" type="curve" smooth="yes"/>
      <point x="453" y="611"/>
      <point x="422" y="551"/>
      <point x="398" y="551" type="curve" smooth="yes"/>
      <point x="385" y="551"/>
      <point x="354" y="576"/>
      <point x="287" y="576" type="curve" smooth="yes"/>
      <point x="209" y="576"/>
      <point x="194" y="543"/>
      <point x="194" y="520" type="curve" smooth="yes"/>
      <point x="194" y="465"/>
      <point x="243" y="445"/>
      <point x="301" y="422" type="curve" smooth="yes"/>
      <point x="383" y="388"/>
      <point x="483" y="347"/>
      <point x="483" y="211" type="curve" smooth="yes"/>
      <point x="483" y="48"/>
      <point x="366" y="-8"/>
      <point x="257" y="-8" type="curve" smooth="yes"/>
      <point x="105" y="-8"/>
      <point x="22" y="46"/>
      <point x="22" y="80" type="curve" smooth="yes"/>
      <point x="22" y="111"/>
      <point x="63" y="169"/>
      <point x="84" y="169" type="curve" smooth="yes"/>
      <point x="102" y="169"/>
      <point x="151" y="123"/>
      <point x="231" y="123" type="curve" smooth="yes"/>
      <point x="274" y="123"/>
      <point x="325" y="136"/>
      <point x="325" y="193" type="curve" smooth="yes"/>
      <point x="325" y="253"/>
      <point x="246" y="270"/>
      <point x="171" y="305" type="curve" smooth="yes"/>
      <point x="102" y="338"/>
      <point x="36" y="386"/>
      <point x="36" y="506" type="curve" smooth="yes"/>
      <point x="36" y="650"/>
      <point x="156" y="708"/>
    </contour>
  </outline>
</glyph>
<glyph name="T" format="1">
  <advance width="549"/>
  <unicode hex="0054"/>
  <outline>
    <contour>
      <point x="275" y="700" type="move" name="Anchor-1"/>
    </contour>
    <contour>
      <point x="275" y="0" type="move" name="Anchor-0"/>
    </contour>
    <contour>
      <point x="38" y="700" type="curve" smooth="yes"/>
      <point x="511" y="700" type="line" smooth="yes"/>
      <point x="532" y="700"/>
      <point x="541" y="685"/>
      <point x="541" y="650" type="curve" smooth="yes"/>
      <point x="541" y="619" type="line" smooth="yes"/>
      <point x="541" y="584"/>
      <point x="532" y="569"/>
      <point x="511" y="569" type="curve" smooth="yes"/>
      <point x="352" y="569" type="line"/>
      <point x="352" y="30" type="line" smooth="yes"/>
      <point x="352" y="9"/>
      <point x="334" y="-2"/>
      <point x="292" y="-2" type="curve" smooth="yes"/>
      <point x="257" y="-2" type="line" smooth="yes"/>
      <point x="215" y="-2"/>
      <point x="197" y="9"/>
      <point x="197" y="30" type="curve" smooth="yes"/>
      <point x="197" y="569" type="line"/>
      <point x="38" y="569" type="line" smooth="yes"/>
      <point x="17" y="569"/>
      <point x="8" y="584"/>
      <point x="8" y="619" type="curve" smooth="yes"/>
      <point x="8" y="650" type="line" smooth="yes"/>
      <point x="8" y="685"/>
      <point x="17" y="700"/>
    </contour>
  </outline>
</glyph>
<glyph name="V" format="1">
  <advance width="617"/>
  <unicode hex="0056"/>
  <outline>
    <contour>
      <point x="517" y="702" type="curve" smooth="yes"/>
      <point x="548" y="702" type="line" smooth="yes"/>
      <point x="590" y="702"/>
      <point x="608" y="694"/>
      <point x="608" y="680" type="curve" smooth="yes"/>
      <point x="608" y="675"/>
      <point x="607" y="669"/>
      <point x="605" y="662" type="curve" smooth="yes"/>
      <point x="389" y="19" type="line" smooth="yes"/>
      <point x="384" y="3"/>
      <point x="362" y="-2"/>
      <point x="333" y="-2" type="curve" smooth="yes"/>
      <point x="281" y="-2" type="line" smooth="yes"/>
      <point x="252" y="-2"/>
      <point x="230" y="3"/>
      <point x="225" y="19" type="curve" smooth="yes"/>
      <point x="9" y="662" type="line" smooth="yes"/>
      <point x="7" y="669"/>
      <point x="5" y="675"/>
      <point x="5" y="680" type="curve" smooth="yes"/>
      <point x="5" y="694"/>
      <point x="24" y="702"/>
      <point x="66" y="702" type="curve" smooth="yes"/>
      <point x="99" y="702" type="line" smooth="yes"/>
      <point x="128" y="702"/>
      <point x="151" y="695"/>
      <point x="158" y="673" type="curve" smooth="yes"/>
      <point x="293" y="240" type="line"/>
      <point x="304" y="205" type="line"/>
      <point x="308" y="205" type="line"/>
      <point x="319" y="240" type="line"/>
      <point x="458" y="673" type="line" smooth="yes"/>
      <point x="465" y="694"/>
      <point x="488" y="702"/>
    </contour>
  </outline>
</glyph>
<glyph name="Y" format="1">
  <advance width="559"/>
  <unicode hex="0059"/>
  <outline>
    <contour>
      <point x="280" y="700" type="move" name="Anchor-1"/>
    </contour>
    <contour>
      <point x="282" y="0" type="move" name="Anchor-0"/>
    </contour>
    <contour>
      <point x="466" y="702" type="curve" smooth="yes"/>
      <point x="502" y="702" type="line" smooth="yes"/>
      <point x="546" y="702"/>
      <point x="565" y="694"/>
      <point x="565" y="682" type="curve" smooth="yes"/>
      <point x="565" y="676"/>
      <point x="562" y="667"/>
      <point x="556" y="657" type="curve" smooth="yes"/>
      <point x="357" y="333" type="line"/>
      <point x="357" y="30" type="line" smooth="yes"/>
      <point x="357" y="9"/>
      <point x="339" y="-2"/>
      <point x="297" y="-2" type="curve" smooth="yes"/>
      <point x="263" y="-2" type="line" smooth="yes"/>
      <point x="221" y="-2"/>
      <point x="203" y="9"/>
      <point x="203" y="30" type="curve" smooth="yes"/>
      <point x="203" y="336" type="line"/>
      <point x="4" y="657" type="line" smooth="yes"/>
      <point x="-2" y="667"/>
      <point x="-6" y="676"/>
      <point x="-6" y="682" type="curve" smooth="yes"/>
      <point x="-6" y="694"/>
      <point x="14" y="702"/>
      <point x="58" y="702" type="curve" smooth="yes"/>
      <point x="101" y="702" type="line" smooth="yes"/>
      <point x="130" y="702"/>
      <point x="152" y="698"/>
      <point x="161" y="683" type="curve" smooth="yes"/>
      <point x="283" y="469" type="line"/>
      <point x="406" y="683" type="line" smooth="yes"/>
      <point x="415" y="698"/>
      <point x="437" y="702"/>
    </contour>
  </outline>
</glyph>
<glyph name="Z" format="1">
  <advance width="616"/>
  <unicode hex="005A"/>
  <outline>
    <contour>
      <point x="308" y="700" type="move" name="Anchor-1"/>
    </contour>
    <contour>
      <point x="299" y="0" type="move" name="Anchor-0"/>
    </contour>
    <contour>
      <point x="86" y="700" type="curve" smooth="yes"/>
      <point x="543" y="700" type="line" smooth="yes"/>
      <point x="559" y="700"/>
      <point x="580" y="634"/>
      <point x="580" y="608" type="curve" smooth="yes"/>
      <point x="580" y="604"/>
      <point x="580" y="602"/>
      <point x="579" y="600" type="curve" smooth="yes"/>
      <point x="245" y="131" type="line"/>
      <point x="550" y="131" type="line" smooth="yes"/>
      <point x="571" y="131"/>
      <point x="580" y="116"/>
      <point x="580" y="81" type="curve" smooth="yes"/>
      <point x="580" y="50" type="line" smooth="yes"/>
      <point x="580" y="15"/>
      <point x="571" y="0"/>
      <point x="550" y="0" type="curve" smooth="yes"/>
      <point x="66" y="0" type="line" smooth="yes"/>
      <point x="49" y="0"/>
      <point x="27" y="62"/>
      <point x="27" y="89" type="curve" smooth="yes"/>
      <point x="27" y="93"/>
      <point x="28" y="97"/>
      <point x="29" y="99" type="curve" smooth="yes"/>
      <point x="364" y="569" type="line"/>
      <point x="86" y="569" type="line" smooth="yes"/>
      <point x="65" y="569"/>
      <point x="56" y="584"/>
      <point x="56" y="619" type="curve" smooth="yes"/>
      <point x="56" y="650" type="line" smooth="yes"/>
      <point x="56" y="685"/>
      <point x="65" y="700"/>
    </contour>
  </outline>
</glyph>
<glyph name="bracketleft" format="1">
  <advance width="291"/>
  <unicode hex="005B"/>
  <outline>
    <contour>
      <point x="105" y="768" type="curve" smooth="yes"/>
      <point x="231" y="768" type="line" smooth="yes"/>
      <point x="252" y="768"/>
      <point x="261" y="756"/>
      <point x="261" y="728" type="curve" smooth="yes"/>
      <point x="261" y="713" type="line" smooth="yes"/>
      <point x="261" y="685"/>
      <point x="252" y="673"/>
      <point x="231" y="673" type="curve" smooth="yes"/>
      <point x="180" y="673" type="line"/>
      <point x="180" y="-43" type="line"/>
      <point x="231" y="-43" type="line" smooth="yes"/>
      <point x="252" y="-43"/>
      <point x="261" y="-55"/>
      <point x="261" y="-83" type="curve" smooth="yes"/>
      <point x="261" y="-98" type="line" smooth="yes"/>
      <point x="261" y="-126"/>
      <point x="252" y="-138"/>
      <point x="231" y="-138" type="curve" smooth="yes"/>
      <point x="105" y="-138" type="line" smooth="yes"/>
      <point x="77" y="-138"/>
      <point x="65" y="-126"/>
      <point x="65" y="-98" type="curve" smooth="yes"/>
      <point x="65" y="728" type="line" smooth="yes"/>
      <point x="65" y="756"/>
      <point x="77" y="768"/>
    </contour>
  </outline>
</glyph>
<glyph name="backslash" format="1">
  <advance width="361"/>
  <unicode hex="005C"/>
  <outline>
    <contour>
      <point x="45" y="702" type="curve" smooth="yes"/>
      <point x="68" y="702" type="line" smooth="yes"/>
      <point x="99" y="702"/>
      <point x="121" y="694"/>
      <point x="128" y="672" type="curve" smooth="yes"/>
      <point x="359" y="8" type="line" smooth="yes"/>
      <point x="361" y="3"/>
      <point x="362" y="-2"/>
      <point x="362" y="-6" type="curve" smooth="yes"/>
      <point x="362" y="-16"/>
      <point x="348" y="-22"/>
      <point x="319" y="-22" type="curve" smooth="yes"/>
      <point x="295" y="-22" type="line" smooth="yes"/>
      <point x="264" y="-22"/>
      <point x="242" y="-13"/>
      <point x="235" y="8" type="curve" smooth="yes"/>
      <point x="5" y="672" type="line" smooth="yes"/>
      <point x="3" y="677"/>
      <point x="2" y="681"/>
      <point x="2" y="685" type="curve" smooth="yes"/>
      <point x="2" y="695"/>
      <point x="15" y="702"/>
    </contour>
  </outline>
</glyph>
<glyph name="bracketright" format="1">
  <advance width="291"/>
  <unicode hex="005D"/>
  <outline>
    <contour>
      <point x="61" y="768" type="line" smooth="yes"/>
      <point x="40" y="768"/>
      <point x="31" y="756"/>
      <point x="31" y="728" type="curve" smooth="yes"/>
      <point x="31" y="713" type="line" smooth="yes"/>
      <point x="31" y="685"/>
      <point x="40" y="673"/>
      <point x="61" y="673" type="curve" smooth="yes"/>
      <point x="112" y="673" type="line"/>
      <point x="112" y="-43" type="line"/>
      <point x="61" y="-43" type="line" smooth="yes"/>
      <point x="40" y="-43"/>
      <point x="31" y="-55"/>
      <point x="31" y="-83" type="curve" smooth="yes"/>
      <point x="31" y="-98" type="line" smooth="yes"/>
      <point x="31" y="-126"/>
      <point x="40" y="-138"/>
      <point x="61" y="-138" type="curve" smooth="yes"/>
      <point x="187" y="-138" type="line" smooth="yes"/>
      <point x="215" y="-138"/>
      <point x="227" y="-126"/>
      <point x="227" y="-98" type="curve" smooth="yes"/>
      <point x="227" y="728" type="line" smooth="yes"/>
      <point x="227" y="756"/>
      <point x="215" y="768"/>
      <point x="187" y="768" type="curve" smooth="yes"/>
    </contour>
  </outline>
</glyph>
<glyph name="asciicircum" format="1">
  <advance width="450"/>
  <unicode hex="005E"/>
  <outline>
    <contour>
      <point x="210" y="686" type="curve" smooth="yes"/>
      <point x="241" y="686" type="line" smooth="yes"/>
      <point x="261" y="686"/>
      <point x="274" y="676"/>
      <point x="283" y="656" type="curve" smooth="yes"/>
      <point x="412" y="348" type="line" smooth="yes"/>
      <point x="415" y="342"/>
      <point x="416" y="337"/>
      <point x="416" y="333" type="curve" smooth="yes"/>
      <point x="416" y="324"/>
      <point x="406" y="318"/>
      <point x="384" y="318" type="curve" smooth="yes"/>
      <point x="363" y="318" type="line" smooth="yes"/>
      <point x="337" y="318"/>
      <point x="320" y="327"/>
      <point x="311" y="348" type="curve" smooth="yes"/>
      <point x="225" y="555" type="line"/>
      <point x="139" y="348" type="line" smooth="yes"/>
      <point x="130" y="327"/>
      <point x="114" y="318"/>
      <point x="88" y="318" type="curve" smooth="yes"/>
      <point x="67" y="318" type="line" smooth="yes"/>
      <point x="45" y="318"/>
      <point x="35" y="324"/>
      <point x="35" y="333" type="curve" smooth="yes"/>
      <point x="35" y="337"/>
      <point x="36" y="342"/>
      <point x="39" y="348" type="curve" smooth="yes"/>
      <point x="168" y="656" type="line" smooth="yes"/>
      <point x="176" y="676"/>
      <point x="189" y="686"/>
    </contour>
  </outline>
</glyph>
<glyph name="underscore" format="1">
  <advance width="534"/>
  <unicode hex="005F"/>
  <outline>
    <contour>
      <point x="10" y="-36" type="curve" smooth="yes"/>
      <point x="525" y="-36" type="line" smooth="yes"/>
      <point x="546" y="-36"/>
      <point x="555" y="-51"/>
      <point x="555" y="-86" type="curve" smooth="yes"/>
      <point x="555" y="-93" type="line" smooth="yes"/>
      <point x="555" y="-128"/>
      <point x="546" y="-143"/>
      <point x="525" y="-143" type="curve" smooth="yes"/>
      <point x="10" y="-143" type="line" smooth="yes"/>
      <point x="-11" y="-143"/>
      <point x="-20" y="-128"/>
      <point x="-20" y="-93" type="curve" smooth="yes"/>
      <point x="-20" y="-86" type="line" smooth="yes"/>
      <point x="-20" y="-51"/>
      <point x="-11" y="-36"/>
    </contour>
  </outline>
</glyph>
<glyph name="grave" format="1">
  <advance width="320"/>
  <unicode hex="0060"/>
  <outline>
    <contour>
      <point x="74" y="734"/>
      <point x="54" y="731"/>
      <point x="54" y="720" type="curve" smooth="yes"/>
      <point x="54" y="708"/>
      <point x="61" y="706"/>
      <point x="158" y="600" type="curve" smooth="yes"/>
      <point x="169" y="588"/>
      <point x="186" y="575"/>
      <point x="233" y="575" type="curve" smooth="yes"/>
      <point x="257" y="575"/>
      <point x="264" y="579"/>
      <point x="264" y="590" type="curve" smooth="yes"/>
      <point x="264" y="601"/>
      <point x="245" y="626"/>
      <point x="199" y="707" type="curve" smooth="yes"/>
      <point x="187" y="728"/>
      <point x="154" y="734"/>
      <point x="114" y="734" type="curve" smooth="yes"/>
    </contour>
    <contour>
      <point x="185" y="700" type="move" name="top"/>
    </contour>
    <contour>
      <point x="188" y="523" type="move" name="_top"/>
    </contour>
  </outline>
</glyph>
<glyph name="a" format="1">
  <advance width="545"/>
  <unicode hex="0061"/>
  <outline>
    <contour>
      <point x="273" y="523" type="move" name="Anchor-1"/>
    </contour>
    <contour>
      <point x="273" y="0" type="move" name="Anchor-0"/>
    </contour>
    <contour>
      <point x="262" y="531" type="curve" smooth="yes"/>
      <point x="420" y="531"/>
      <point x="477" y="461"/>
      <point x="477" y="364" type="curve" smooth="yes"/>
      <point x="477" y="176" type="line" smooth="yes"/>
      <point x="477" y="73"/>
      <point x="489" y="52"/>
      <point x="489" y="31" type="curve" smooth="yes"/>
      <point x="489" y="7"/>
      <point x="402" y="-1"/>
      <point x="377" y="-1" type="curve" smooth="yes"/>
      <point x="345" y="-1"/>
      <point x="343" y="41"/>
      <point x="337" y="68" type="curve"/>
      <point x="330" y="55"/>
      <point x="282" y="-8"/>
      <point x="190" y="-8" type="curve" smooth="yes"/>
      <point x="82" y="-8"/>
      <point x="42" y="56"/>
      <point x="42" y="138" type="curve" smooth="yes"/>
      <point x="42" y="220"/>
      <point x="75" y="324"/>
      <point x="329" y="324" type="curve"/>
      <point x="329" y="357" type="line" smooth="yes"/>
      <point x="329" y="395"/>
      <point x="306" y="414"/>
      <point x="251" y="414" type="curve" smooth="yes"/>
      <point x="178" y="414"/>
      <point x="135" y="382"/>
      <point x="123" y="382" type="curve" smooth="yes"/>
      <point x="102" y="382"/>
      <point x="71" y="441"/>
      <point x="71" y="462" type="curve" smooth="yes"/>
      <point x="71" y="496"/>
      <point x="151" y="531"/>
    </contour>
    <contour>
      <point x="329" y="172" type="curve"/>
      <point x="329" y="227" type="line"/>
      <point x="234" y="227"/>
      <point x="189" y="201"/>
      <point x="189" y="153" type="curve" smooth="yes"/>
      <point x="189" y="128"/>
      <point x="206" y="109"/>
      <point x="239" y="109" type="curve" smooth="yes"/>
      <point x="277" y="109"/>
      <point x="313" y="136"/>
    </contour>
  </outline>
</glyph>
<glyph name="b" format="1">
  <advance width="569"/>
  <unicode hex="0062"/>
  <outline>
    <contour>
      <point x="126" y="754" type="curve" smooth="yes"/>
      <point x="154" y="754" type="line" smooth="yes"/>
      <point x="196" y="754"/>
      <point x="214" y="743"/>
      <point x="214" y="722" type="curve" smooth="yes"/>
      <point x="214" y="500" type="line"/>
      <point x="235" y="515"/>
      <point x="269" y="531"/>
      <point x="316" y="531" type="curve" smooth="yes"/>
      <point x="451" y="531"/>
      <point x="527" y="425"/>
      <point x="527" y="262" type="curve" smooth="yes"/>
      <point x="527" y="88"/>
      <point x="448" y="-8"/>
      <point x="340" y="-8" type="curve" smooth="yes"/>
      <point x="278" y="-8"/>
      <point x="229" y="24"/>
      <point x="206" y="67" type="curve"/>
      <point x="203" y="53"/>
      <point x="200" y="38"/>
      <point x="196" y="24" type="curve" smooth="yes"/>
      <point x="190" y="2"/>
      <point x="170" y="-2"/>
      <point x="138" y="-2" type="curve" smooth="yes"/>
      <point x="126" y="-2" type="line" smooth="yes"/>
      <point x="84" y="-2"/>
      <point x="66" y="9"/>
      <point x="66" y="30" type="curve" smooth="yes"/>
      <point x="66" y="722" type="line" smooth="yes"/>
      <point x="66" y="743"/>
      <point x="84" y="754"/>
    </contour>
    <contour>
      <point x="284" y="414" type="curve" smooth="yes"/>
      <point x="253" y="414"/>
      <point x="230" y="404"/>
      <point x="214" y="395" type="curve"/>
      <point x="214" y="172" type="line"/>
      <point x="232" y="141"/>
      <point x="258" y="113"/>
      <point x="296" y="113" type="curve" smooth="yes"/>
      <point x="351" y="113"/>
      <point x="377" y="165"/>
      <point x="377" y="262" type="curve" smooth="yes"/>
      <point x="377" y="362"/>
      <point x="347" y="414"/>
    </contour>
  </outline>
</glyph>
<glyph name="e" format="1">
  <advance width="539"/>
  <unicode hex="0065"/>
  <outline>
    <contour>
      <point x="270" y="523" type="move" name="Anchor-1"/>
    </contour>
    <contour>
      <point x="270" y="0" type="move" name="Anchor-0"/>
    </contour>
    <contour>
      <point x="285" y="531" type="curve" smooth="yes"/>
      <point x="442" y="531"/>
      <point x="501" y="412"/>
      <point x="501" y="273" type="curve" smooth="yes"/>
      <point x="501" y="256"/>
      <point x="463" y="214"/>
      <point x="450" y="214" type="curve" smooth="yes"/>
      <point x="195" y="214" type="line"/>
      <point x="202" y="134"/>
      <point x="245" y="109"/>
      <point x="310" y="109" type="curve" smooth="yes"/>
      <point x="373" y="109"/>
      <point x="417" y="140"/>
      <point x="431" y="140" type="curve" smooth="yes"/>
      <point x="453" y="140"/>
      <point x="483" y="84"/>
      <point x="483" y="64" type="curve" smooth="yes"/>
      <point x="483" y="14"/>
      <point x="359" y="-8"/>
      <point x="303" y="-8" type="curve" smooth="yes"/>
      <point x="122" y="-8"/>
      <point x="42" y="97"/>
      <point x="42" y="258" type="curve" smooth="yes"/>
      <point x="42" y="455"/>
      <point x="142" y="531"/>
    </contour>
    <contour>
      <point x="285" y="414" type="curve" smooth="yes"/>
      <point x="243" y="414"/>
      <point x="207" y="390"/>
      <point x="195" y="313" type="curve"/>
      <point x="357" y="313" type="line"/>
      <point x="357" y="371"/>
      <point x="335" y="414"/>
    </contour>
  </outline>
</glyph>
<glyph name="i" format="1">
  <advance width="265"/>
  <unicode hex="0069"/>
  <outline>
    <contour>
      <point x="0" y="0" type="move" name="Anchor-1"/>
    </contour>
    <contour>
      <point x="131" y="0" type="move" name="Anchor-0"/>
    </contour>
    <contour>
      <point x="119" y="754" type="curve" smooth="yes"/>
      <point x="147" y="754" type="line" smooth="yes"/>
      <point x="189" y="754"/>
      <point x="207" y="743"/>
      <point x="207" y="722" type="curve" smooth="yes"/>
      <point x="207" y="641" type="line" smooth="yes"/>
      <point x="207" y="620"/>
      <point x="189" y="609"/>
      <point x="147" y="609" type="curve" smooth="yes"/>
      <point x="119" y="609" type="line" smooth="yes"/>
      <point x="77" y="609"/>
      <point x="59" y="620"/>
      <point x="59" y="641" type="curve" smooth="yes"/>
      <point x="59" y="722" type="line" smooth="yes"/>
      <point x="59" y="743"/>
      <point x="77" y="754"/>
    </contour>
    <contour>
      <point x="119" y="525" type="curve" smooth="yes"/>
      <point x="147" y="525" type="line" smooth="yes"/>
      <point x="189" y="525"/>
      <point x="207" y="514"/>
      <point x="207" y="493" type="curve" smooth="yes"/>
      <point x="207" y="30" type="line" smooth="yes"/>
      <point x="207" y="9"/>
      <point x="189" y="-2"/>
      <point x="147" y="-2" type="curve" smooth="yes"/>
      <point x="119" y="-2" type="line" smooth="yes"/>
      <point x="77" y="-2"/>
      <point x="59" y="9"/>
      <point x="59" y="30" type="curve" smooth="yes"/>
      <point x="59" y="493" type="line" smooth="yes"/>
      <point x="59" y="514"/>
      <point x="77" y="525"/>
    </contour>
  </outline>
</glyph>
<glyph name="j" format="1">
  <advance width="276"/>
  <unicode hex="006A"/>
  <outline>
    <contour>
      <point x="130" y="754" type="curve" smooth="yes"/>
      <point x="158" y="754" type="line" smooth="yes"/>
      <point x="200" y="754"/>
      <point x="218" y="743"/>
      <point x="218" y="722" type="curve" smooth="yes"/>
      <point x="218" y="641" type="line" smooth="yes"/>
      <point x="218" y="620"/>
      <point x="200" y="609"/>
      <point x="158" y="609" type="curve" smooth="yes"/>
      <point x="130" y="609" type="line" smooth="yes"/>
      <point x="88" y="609"/>
      <point x="70" y="620"/>
      <point x="70" y="641" type="curve" smooth="yes"/>
      <point x="70" y="722" type="line" smooth="yes"/>
      <point x="70" y="743"/>
      <point x="88" y="754"/>
    </contour>
    <contour>
      <point x="130" y="525" type="curve" smooth="yes"/>
      <point x="158" y="525" type="line" smooth="yes"/>
      <point x="200" y="525"/>
      <point x="218" y="514"/>
      <point x="218" y="493" type="curve" smooth="yes"/>
      <point x="218" y="-50" type="line" smooth="yes"/>
      <point x="218" y="-159"/>
      <point x="155" y="-212"/>
      <point x="72" y="-212" type="curve" smooth="yes"/>
      <point x="-7" y="-212"/>
      <point x="-32" y="-199"/>
      <point x="-32" y="-160" type="curve" smooth="yes"/>
      <point x="-32" y="-137"/>
      <point x="-17" y="-91"/>
      <point x="4" y="-91" type="curve" smooth="yes"/>
      <point x="10" y="-91"/>
      <point x="23" y="-95"/>
      <point x="34" y="-95" type="curve" smooth="yes"/>
      <point x="60" y="-95"/>
      <point x="70" y="-82"/>
      <point x="70" y="-52" type="curve" smooth="yes"/>
      <point x="70" y="493" type="line" smooth="yes"/>
      <point x="70" y="514"/>
      <point x="88" y="525"/>
    </contour>
  </outline>
</glyph>
<glyph name="l" format="1">
  <advance width="297"/>
  <unicode hex="006C"/>
  <outline>
    <contour>
      <point x="123" y="754" type="line" smooth="yes"/>
      <point x="81" y="754"/>
      <point x="63" y="743"/>
      <point x="63" y="722" type="curve" smooth="yes"/>
      <point x="63" y="154" type="line" smooth="yes"/>
      <point x="63" y="43"/>
      <point x="115" y="-8"/>
      <point x="209" y="-8" type="curve" smooth="yes"/>
      <point x="240" y="-8"/>
      <point x="305" y="-5"/>
      <point x="305" y="41" type="curve" smooth="yes"/>
      <point x="305" y="49"/>
      <point x="294" y="113"/>
      <point x="274" y="113" type="curve" smooth="yes"/>
      <point x="268" y="113"/>
      <point x="256" y="109"/>
      <point x="247" y="109" type="curve" smooth="yes"/>
      <point x="221" y="109"/>
      <point x="211" y="122"/>
      <point x="211" y="152" type="curve" smooth="yes"/>
      <point x="211" y="722" type="line" smooth="yes"/>
      <point x="211" y="743"/>
      <point x="193" y="754"/>
      <point x="151" y="754" type="curve" smooth="yes"/>
    </contour>
    <contour>
      <point x="305" y="335" type="move" name="center"/>
    </contour>
    <contour>
      <point x="193" y="752" type="move" name="caron"/>
    </contour>
    <contour>
      <point x="136" y="720" type="move" name="top"/>
    </contour>
    <contour>
      <point x="183" y="0" type="move" name="bottom"/>
    </contour>
  </outline>
</glyph>
<glyph name="m" format="1">
  <advance width="848"/>
  <unicode hex="006D"/>
  <outline>
    <contour>
      <point x="636" y="531" type="curve" smooth="yes"/>
      <point x="736" y="531"/>
      <point x="782" y="480"/>
      <point x="782" y="369" type="curve" smooth="yes"/>
      <point x="782" y="30" type="line" smooth="yes"/>
      <point x="782" y="9"/>
      <point x="764" y="-2"/>
      <point x="722" y="-2" type="curve" smooth="yes"/>
      <point x="694" y="-2" type="line" smooth="yes"/>
      <point x="652" y="-2"/>
      <point x="634" y="9"/>
      <point x="634" y="30" type="curve" smooth="yes"/>
      <point x="634" y="347" type="line" smooth="yes"/>
      <point x="634" y="386"/>
      <point x="619" y="409"/>
      <point x="575" y="409" type="curve" smooth="yes"/>
      <point x="532" y="409"/>
      <point x="508" y="373"/>
      <point x="496" y="352" type="curve"/>
      <point x="496" y="30" type="line" smooth="yes"/>
      <point x="496" y="9"/>
      <point x="478" y="-2"/>
      <point x="436" y="-2" type="curve" smooth="yes"/>
      <point x="408" y="-2" type="line" smooth="yes"/>
      <point x="366" y="-2"/>
      <point x="348" y="9"/>
      <point x="348" y="30" type="curve" smooth="yes"/>
      <point x="348" y="347" type="line" smooth="yes"/>
      <point x="348" y="386"/>
      <point x="333" y="409"/>
      <point x="289" y="409" type="curve" smooth="yes"/>
      <point x="248" y="409"/>
      <point x="222" y="374"/>
      <point x="210" y="351" type="curve"/>
      <point x="210" y="30" type="line" smooth="yes"/>
      <point x="210" y="9"/>
      <point x="192" y="-2"/>
      <point x="150" y="-2" type="curve" smooth="yes"/>
      <point x="122" y="-2" type="line" smooth="yes"/>
      <point x="80" y="-2"/>
      <point x="62" y="9"/>
      <point x="62" y="30" type="curve" smooth="yes"/>
      <point x="62" y="347" type="line" smooth="yes"/>
      <point x="62" y="447"/>
      <point x="50" y="468"/>
      <point x="50" y="488" type="curve" smooth="yes"/>
      <point x="50" y="512"/>
      <point x="137" y="520"/>
      <point x="162" y="520" type="curve" smooth="yes"/>
      <point x="194" y="520"/>
      <point x="196" y="480"/>
      <point x="202" y="455" type="curve"/>
      <point x="231" y="493"/>
      <point x="285" y="531"/>
      <point x="350" y="531" type="curve" smooth="yes"/>
      <point x="419" y="531"/>
      <point x="462" y="507"/>
      <point x="482" y="455" type="curve"/>
      <point x="512" y="493"/>
      <point x="569" y="531"/>
    </contour>
  </outline>
</glyph>
<glyph name="n" format="1">
  <advance width="557"/>
  <unicode hex="006E"/>
  <outline>
    <contour>
      <point x="279" y="523" type="move" name="Anchor-1"/>
    </contour>
    <contour>
      <point x="279" y="0" type="move" name="Anchor-0"/>
    </contour>
    <contour>
      <point x="351" y="531" type="curve" smooth="yes"/>
      <point x="451" y="531"/>
      <point x="498" y="480"/>
      <point x="498" y="369" type="curve" smooth="yes"/>
      <point x="498" y="30" type="line" smooth="yes"/>
      <point x="498" y="9"/>
      <point x="480" y="-2"/>
      <point x="438" y="-2" type="curve" smooth="yes"/>
      <point x="410" y="-2" type="line" smooth="yes"/>
      <point x="368" y="-2"/>
      <point x="350" y="9"/>
      <point x="350" y="30" type="curve" smooth="yes"/>
      <point x="350" y="347" type="line" smooth="yes"/>
      <point x="350" y="386"/>
      <point x="334" y="409"/>
      <point x="290" y="409" type="curve" smooth="yes"/>
      <point x="249" y="409"/>
      <point x="222" y="374"/>
      <point x="210" y="351" type="curve"/>
      <point x="210" y="30" type="line" smooth="yes"/>
      <point x="210" y="9"/>
      <point x="192" y="-2"/>
      <point x="150" y="-2" type="curve" smooth="yes"/>
      <point x="122" y="-2" type="line" smooth="yes"/>
      <point x="80" y="-2"/>
      <point x="62" y="9"/>
      <point x="62" y="30" type="curve" smooth="yes"/>
      <point x="62" y="347" type="line" smooth="yes"/>
      <point x="62" y="447"/>
      <point x="50" y="468"/>
      <point x="50" y="488" type="curve" smooth="yes"/>
      <point x="50" y="512"/>
      <point x="137" y="520"/>
      <point x="162" y="520" type="curve" smooth="yes"/>
      <point x="194" y="520"/>
      <point x="196" y="480"/>
      <point x="202" y="455" type="curve"/>
      <point x="231" y="493"/>
      <point x="286" y="531"/>
    </contour>
  </outline>
</glyph>
<glyph name="o" format="1">
  <advance width="569"/>
  <unicode hex="006F"/>
  <outline>
    <contour>
      <point x="126" y="531"/>
      <point x="42" y="436"/>
      <point x="42" y="262" type="curve" smooth="yes"/>
      <point x="42" y="88"/>
      <point x="126" y="-8"/>
      <point x="285" y="-8" type="curve" smooth="yes"/>
      <point x="444" y="-8"/>
      <point x="527" y="88"/>
      <point x="527" y="262" type="curve" smooth="yes"/>
      <point x="527" y="436"/>
      <point x="444" y="531"/>
      <point x="285" y="531" type="curve" smooth="yes"/>
    </contour>
    <contour>
      <point x="349" y="414"/>
      <point x="377" y="362"/>
      <point x="377" y="262" type="curve" smooth="yes"/>
      <point x="377" y="162"/>
      <point x="349" y="109"/>
      <point x="285" y="109" type="curve" smooth="yes"/>
      <point x="221" y="109"/>
      <point x="192" y="162"/>
      <point x="192" y="262" type="curve" smooth="yes"/>
      <point x="192" y="362"/>
      <point x="221" y="414"/>
      <point x="285" y="414" type="curve" smooth="yes"/>
    </contour>
    <contour>
      <point x="353" y="0" type="move" name="ogonek"/>
    </contour>
    <contour>
      <point x="285" y="523" type="move" name="top"/>
    </contour>
    <contour>
      <point x="387" y="505" type="move" name="horn"/>
    </contour>
    <contour>
      <point x="291" y="0" type="move" name="bottom"/>
    </contour>
  </outline>
</glyph>
<glyph name="q" format="1">
  <advance width="566"/>
  <unicode hex="0071"/>
  <outline>
    <contour>
      <point x="234" y="531" type="curve" smooth="yes"/>
      <point x="296" y="531"/>
      <point x="345" y="499"/>
      <point x="368" y="456" type="curve"/>
      <point x="378" y="499" type="line" smooth="yes"/>
      <point x="383" y="521"/>
      <point x="404" y="525"/>
      <point x="436" y="525" type="curve" smooth="yes"/>
      <point x="448" y="525" type="line" smooth="yes"/>
      <point x="490" y="525"/>
      <point x="508" y="514"/>
      <point x="508" y="493" type="curve" smooth="yes"/>
      <point x="508" y="-174" type="line" smooth="yes"/>
      <point x="508" y="-195"/>
      <point x="490" y="-206"/>
      <point x="448" y="-206" type="curve" smooth="yes"/>
      <point x="420" y="-206" type="line" smooth="yes"/>
      <point x="378" y="-206"/>
      <point x="360" y="-195"/>
      <point x="360" y="-174" type="curve" smooth="yes"/>
      <point x="360" y="23" type="line"/>
      <point x="339" y="8"/>
      <point x="305" y="-8"/>
      <point x="258" y="-8" type="curve" smooth="yes"/>
      <point x="120" y="-8"/>
      <point x="42" y="98"/>
      <point x="42" y="261" type="curve" smooth="yes"/>
      <point x="42" y="435"/>
      <point x="123" y="531"/>
    </contour>
    <contour>
      <point x="278" y="410" type="curve" smooth="yes"/>
      <point x="220" y="410"/>
      <point x="192" y="358"/>
      <point x="192" y="261" type="curve" smooth="yes"/>
      <point x="192" y="161"/>
      <point x="224" y="109"/>
      <point x="290" y="109" type="curve" smooth="yes"/>
      <point x="321" y="109"/>
      <point x="344" y="119"/>
      <point x="360" y="128" type="curve"/>
      <point x="360" y="351" type="line"/>
      <point x="342" y="382"/>
      <point x="316" y="410"/>
    </contour>
  </outline>
</glyph>
<glyph name="u" format="1">
  <advance width="557"/>
  <unicode hex="0075"/>
  <outline>
    <contour>
      <point x="279" y="523" type="move" name="Anchor-1"/>
    </contour>
    <contour>
      <point x="251" y="0" type="move" name="Anchor-0"/>
    </contour>
    <contour>
      <point x="407" y="525" type="curve" smooth="yes"/>
      <point x="435" y="525" type="line" smooth="yes"/>
      <point x="477" y="525"/>
      <point x="495" y="514"/>
      <point x="495" y="493" type="curve" smooth="yes"/>
      <point x="495" y="176" type="line" smooth="yes"/>
      <point x="495" y="73"/>
      <point x="507" y="52"/>
      <point x="507" y="31" type="curve" smooth="yes"/>
      <point x="507" y="7"/>
      <point x="420" y="-1"/>
      <point x="395" y="-1" type="curve" smooth="yes"/>
      <point x="363" y="-1"/>
      <point x="361" y="41"/>
      <point x="355" y="68" type="curve"/>
      <point x="326" y="30"/>
      <point x="271" y="-8"/>
      <point x="206" y="-8" type="curve" smooth="yes"/>
      <point x="106" y="-8"/>
      <point x="59" y="43"/>
      <point x="59" y="154" type="curve" smooth="yes"/>
      <point x="59" y="493" type="line" smooth="yes"/>
      <point x="59" y="514"/>
      <point x="77" y="525"/>
      <point x="119" y="525" type="curve" smooth="yes"/>
      <point x="147" y="525" type="line" smooth="yes"/>
      <point x="189" y="525"/>
      <point x="207" y="514"/>
      <point x="207" y="493" type="curve" smooth="yes"/>
      <point x="207" y="176" type="line" smooth="yes"/>
      <point x="207" y="137"/>
      <point x="223" y="114"/>
      <point x="267" y="114" type="curve" smooth="yes"/>
      <point x="308" y="114"/>
      <point x="335" y="149"/>
      <point x="347" y="172" type="curve"/>
      <point x="347" y="493" type="line" smooth="yes"/>
      <point x="347" y="514"/>
      <point x="365" y="525"/>
    </contour>
  </outline>
</glyph>
<glyph name="v" format="1">
  <advance width="485"/>
  <unicode hex="0076"/>
  <outline>
    <contour>
      <point x="391" y="525" type="curve" smooth="yes"/>
      <point x="416" y="525" type="line" smooth="yes"/>
      <point x="458" y="525"/>
      <point x="476" y="517"/>
      <point x="476" y="503" type="curve" smooth="yes"/>
      <point x="476" y="498"/>
      <point x="475" y="492"/>
      <point x="473" y="485" type="curve" smooth="yes"/>
      <point x="314" y="19" type="line" smooth="yes"/>
      <point x="309" y="3"/>
      <point x="287" y="-2"/>
      <point x="258" y="-2" type="curve" smooth="yes"/>
      <point x="226" y="-2" type="line" smooth="yes"/>
      <point x="197" y="-2"/>
      <point x="175" y="3"/>
      <point x="170" y="19" type="curve" smooth="yes"/>
      <point x="11" y="485" type="line" smooth="yes"/>
      <point x="9" y="492"/>
      <point x="7" y="498"/>
      <point x="7" y="503" type="curve" smooth="yes"/>
      <point x="7" y="517"/>
      <point x="26" y="525"/>
      <point x="68" y="525" type="curve" smooth="yes"/>
      <point x="101" y="525" type="line" smooth="yes"/>
      <point x="130" y="525"/>
      <point x="152" y="520"/>
      <point x="157" y="504" type="curve" smooth="yes"/>
      <point x="216" y="319" type="line" smooth="yes"/>
      <point x="223" y="295"/>
      <point x="234" y="242"/>
      <point x="244" y="198" type="curve"/>
      <point x="248" y="198" type="line"/>
      <point x="257" y="242"/>
      <point x="269" y="296"/>
      <point x="276" y="319" type="curve" smooth="yes"/>
      <point x="335" y="504" type="line" smooth="yes"/>
      <point x="340" y="520"/>
      <point x="362" y="525"/>
    </contour>
  </outline>
</glyph>
<glyph name="x" format="1">
  <advance width="485"/>
  <unicode hex="0078"/>
  <outline>
    <contour>
      <point x="386" y="525" type="curve" smooth="yes"/>
      <point x="415" y="525" type="line" smooth="yes"/>
      <point x="458" y="525"/>
      <point x="478" y="518"/>
      <point x="478" y="507" type="curve" smooth="yes"/>
      <point x="478" y="501"/>
      <point x="474" y="493"/>
      <point x="467" y="482" type="curve" smooth="yes"/>
      <point x="321" y="266" type="line"/>
      <point x="469" y="42" type="line" smooth="yes"/>
      <point x="476" y="31"/>
      <point x="480" y="23"/>
      <point x="480" y="16" type="curve" smooth="yes"/>
      <point x="480" y="5"/>
      <point x="460" y="-2"/>
      <point x="417" y="-2" type="curve" smooth="yes"/>
      <point x="385" y="-2" type="line" smooth="yes"/>
      <point x="356" y="-2"/>
      <point x="335" y="-1"/>
      <point x="324" y="17" type="curve" smooth="yes"/>
      <point x="255" y="127" type="line"/>
      <point x="242" y="148" type="line"/>
      <point x="238" y="141"/>
      <point x="233" y="134"/>
      <point x="229" y="127" type="curve" smooth="yes"/>
      <point x="159" y="17" type="line" smooth="yes"/>
      <point x="148" y="-1"/>
      <point x="127" y="-2"/>
      <point x="98" y="-2" type="curve" smooth="yes"/>
      <point x="68" y="-2" type="line" smooth="yes"/>
      <point x="25" y="-2"/>
      <point x="5" y="5"/>
      <point x="5" y="16" type="curve" smooth="yes"/>
      <point x="5" y="22"/>
      <point x="9" y="30"/>
      <point x="16" y="41" type="curve" smooth="yes"/>
      <point x="167" y="265" type="line"/>
      <point x="25" y="481" type="line" smooth="yes"/>
      <point x="18" y="492"/>
      <point x="14" y="500"/>
      <point x="14" y="507" type="curve" smooth="yes"/>
      <point x="14" y="518"/>
      <point x="34" y="525"/>
      <point x="77" y="525" type="curve" smooth="yes"/>
      <point x="109" y="525" type="line" smooth="yes"/>
      <point x="138" y="525"/>
      <point x="159" y="524"/>
      <point x="170" y="506" type="curve" smooth="yes"/>
      <point x="231" y="407" type="line"/>
      <point x="246" y="383" type="line"/>
      <point x="252" y="392"/>
      <point x="257" y="400"/>
      <point x="263" y="409" type="curve" smooth="yes"/>
      <point x="325" y="506" type="line" smooth="yes"/>
      <point x="336" y="524"/>
      <point x="357" y="525"/>
    </contour>
  </outline>
</glyph>
<glyph name="y" format="1">
  <advance width="481"/>
  <unicode hex="0079"/>
  <outline>
    <contour>
      <point x="393" y="525" type="line" smooth="yes"/>
      <point x="364" y="525"/>
      <point x="342" y="520"/>
      <point x="337" y="504" type="curve" smooth="yes"/>
      <point x="278" y="319" type="line" smooth="yes"/>
      <point x="271" y="297"/>
      <point x="259" y="241"/>
      <point x="250" y="198" type="curve"/>
      <point x="246" y="198" type="line"/>
      <point x="237" y="241"/>
      <point x="225" y="296"/>
      <point x="218" y="319" type="curve" smooth="yes"/>
      <point x="159" y="504" type="line" smooth="yes"/>
      <point x="154" y="520"/>
      <point x="132" y="525"/>
      <point x="103" y="525" type="curve" smooth="yes"/>
      <point x="71" y="525" type="line" smooth="yes"/>
      <point x="29" y="525"/>
      <point x="10" y="517"/>
      <point x="10" y="503" type="curve" smooth="yes"/>
      <point x="10" y="498"/>
      <point x="12" y="492"/>
      <point x="14" y="485" type="curve" smooth="yes"/>
      <point x="179" y="0" type="line"/>
      <point x="116" y="-167" type="line" smooth="yes"/>
      <point x="113" y="-174"/>
      <point x="112" y="-180"/>
      <point x="112" y="-185" type="curve" smooth="yes"/>
      <point x="112" y="-198"/>
      <point x="131" y="-206"/>
      <point x="172" y="-206" type="curve" smooth="yes"/>
      <point x="189" y="-206" type="line" smooth="yes"/>
      <point x="218" y="-206"/>
      <point x="239" y="-201"/>
      <point x="245" y="-185" type="curve" smooth="yes"/>
      <point x="474" y="485" type="line" smooth="yes"/>
      <point x="476" y="492"/>
      <point x="477" y="498"/>
      <point x="477" y="503" type="curve" smooth="yes"/>
      <point x="477" y="517"/>
      <point x="459" y="525"/>
      <point x="417" y="525" type="curve" smooth="yes"/>
    </contour>
    <contour>
      <point x="241" y="523" type="move" name="top"/>
    </contour>
    <contour>
      <point x="361" y="-36" type="move" name="bottom"/>
    </contour>
  </outline>
</glyph>
<glyph name="z" format="1">
  <advance width="489"/>
  <unicode hex="007A"/>
  <outline>
    <contour>
      <point x="245" y="523" type="move" name="Anchor-1"/>
    </contour>
    <contour>
      <point x="241" y="0" type="move" name="Anchor-0"/>
    </contour>
    <contour>
      <point x="73" y="523" type="curve" smooth="yes"/>
      <point x="427" y="523" type="line" smooth="yes"/>
      <point x="438" y="523"/>
      <point x="456" y="474"/>
      <point x="456" y="446" type="curve" smooth="yes"/>
      <point x="456" y="439"/>
      <point x="455" y="434"/>
      <point x="453" y="431" type="curve" smooth="yes"/>
      <point x="225" y="117" type="line"/>
      <point x="430" y="117" type="line" smooth="yes"/>
      <point x="451" y="117"/>
      <point x="460" y="102"/>
      <point x="460" y="67" type="curve" smooth="yes"/>
      <point x="460" y="50" type="line" smooth="yes"/>
      <point x="460" y="15"/>
      <point x="451" y="0"/>
      <point x="430" y="0" type="curve" smooth="yes"/>
      <point x="56" y="0" type="line" smooth="yes"/>
      <point x="43" y="0"/>
      <point x="27" y="50"/>
      <point x="27" y="76" type="curve" smooth="yes"/>
      <point x="27" y="82"/>
      <point x="28" y="87"/>
      <point x="30" y="90" type="curve" smooth="yes"/>
      <point x="259" y="406" type="line"/>
      <point x="73" y="406" type="line" smooth="yes"/>
      <point x="52" y="406"/>
      <point x="43" y="421"/>
      <point x="43" y="456" type="curve" smooth="yes"/>
      <point x="43" y="473" type="line" smooth="yes"/>
      <point x="43" y="508"/>
      <point x="52" y="523"/>
    </contour>
  </outline>
</glyph>
<glyph name="braceleft" format="1">
  <advance width="274"/>
  <unicode hex="007B"/>
  <outline>
    <contour>
      <point x="193" y="768" type="curve" smooth="yes"/>
      <point x="232" y="768" type="line" smooth="yes"/>
      <point x="253" y="768"/>
      <point x="262" y="756"/>
      <point x="262" y="728" type="curve" smooth="yes"/>
      <point x="262" y="714" type="line" smooth="yes"/>
      <point x="262" y="688"/>
      <point x="254" y="675"/>
      <point x="236" y="674" type="curve" smooth="yes"/>
      <point x="238" y="674" type="line" smooth="yes"/>
      <point x="217" y="674"/>
      <point x="209" y="664"/>
      <point x="209" y="638" type="curve" smooth="yes"/>
      <point x="209" y="468" type="line" smooth="yes"/>
      <point x="209" y="394"/>
      <point x="185" y="340"/>
      <point x="141" y="315" type="curve"/>
      <point x="185" y="290"/>
      <point x="209" y="236"/>
      <point x="209" y="162" type="curve" smooth="yes"/>
      <point x="209" y="-8" type="line" smooth="yes"/>
      <point x="209" y="-32"/>
      <point x="216" y="-44"/>
      <point x="233" y="-44" type="curve" smooth="yes"/>
      <point x="234" y="-44" type="line" smooth="yes"/>
      <point x="253" y="-45"/>
      <point x="262" y="-57"/>
      <point x="262" y="-84" type="curve" smooth="yes"/>
      <point x="262" y="-98" type="line" smooth="yes"/>
      <point x="262" y="-126"/>
      <point x="253" y="-138"/>
      <point x="232" y="-138" type="curve" smooth="yes"/>
      <point x="193" y="-138" type="line" smooth="yes"/>
      <point x="135" y="-138"/>
      <point x="94" y="-90"/>
      <point x="94" y="-22" type="curve" smooth="yes"/>
      <point x="94" y="146" type="line" smooth="yes"/>
      <point x="94" y="211"/>
      <point x="82" y="244"/>
      <point x="47" y="259" type="curve" smooth="yes"/>
      <point x="28" y="270"/>
      <point x="18" y="283"/>
      <point x="18" y="309" type="curve" smooth="yes"/>
      <point x="18" y="321" type="line" smooth="yes"/>
      <point x="18" y="347"/>
      <point x="28" y="360"/>
      <point x="47" y="371" type="curve" smooth="yes"/>
      <point x="82" y="386"/>
      <point x="94" y="419"/>
      <point x="94" y="484" type="curve" smooth="yes"/>
      <point x="94" y="652" type="line" smooth="yes"/>
      <point x="94" y="720"/>
      <point x="135" y="768"/>
    </contour>
  </outline>
</glyph>
<glyph name="braceright" format="1">
  <advance width="274"/>
  <unicode hex="007D"/>
  <outline>
    <contour>
      <point x="49" y="768" type="curve" smooth="yes"/>
      <point x="88" y="768" type="line" smooth="yes"/>
      <point x="146" y="768"/>
      <point x="187" y="720"/>
      <point x="187" y="652" type="curve" smooth="yes"/>
      <point x="187" y="484" type="line" smooth="yes"/>
      <point x="187" y="419"/>
      <point x="199" y="386"/>
      <point x="234" y="371" type="curve" smooth="yes"/>
      <point x="253" y="360"/>
      <point x="263" y="347"/>
      <point x="263" y="321" type="curve" smooth="yes"/>
      <point x="263" y="309" type="line" smooth="yes"/>
      <point x="263" y="283"/>
      <point x="253" y="270"/>
      <point x="234" y="259" type="curve" smooth="yes"/>
      <point x="199" y="244"/>
      <point x="187" y="211"/>
      <point x="187" y="146" type="curve" smooth="yes"/>
      <point x="187" y="-22" type="line" smooth="yes"/>
      <point x="187" y="-90"/>
      <point x="146" y="-138"/>
      <point x="88" y="-138" type="curve" smooth="yes"/>
      <point x="49" y="-138" type="line" smooth="yes"/>
      <point x="28" y="-138"/>
      <point x="19" y="-126"/>
      <point x="19" y="-98" type="curve" smooth="yes"/>
      <point x="19" y="-84" type="line" smooth="yes"/>
      <point x="19" y="-56"/>
      <point x="27" y="-44"/>
      <point x="47" y="-44" type="curve" smooth="yes"/>
      <point x="48" y="-44" type="line" smooth="yes"/>
      <point x="65" y="-44"/>
      <point x="72" y="-31"/>
      <point x="72" y="-8" type="curve" smooth="yes"/>
      <point x="72" y="162" type="line" smooth="yes"/>
      <point x="72" y="236"/>
      <point x="96" y="290"/>
      <point x="140" y="315" type="curve"/>
      <point x="96" y="340"/>
      <point x="72" y="394"/>
      <point x="72" y="468" type="curve" smooth="yes"/>
      <point x="72" y="638" type="line" smooth="yes"/>
      <point x="72" y="664"/>
      <point x="66" y="674"/>
      <point x="45" y="674" type="curve" smooth="yes"/>
      <point x="44" y="674" type="line" smooth="yes"/>
      <point x="26" y="674"/>
      <point x="19" y="688"/>
      <point x="19" y="714" type="curve" smooth="yes"/>
      <point x="19" y="728" type="line" smooth="yes"/>
      <point x="19" y="756"/>
      <point x="28" y="768"/>
    </contour>
  </outline>
</glyph>
<glyph name="asciitilde" format="1">
  <advance width="547"/>
  <unicode hex="007E"/>
  <outline>
    <contour>
      <point x="418" y="316" type="curve" smooth="yes"/>
      <point x="434" y="324"/>
      <point x="453" y="326"/>
      <point x="470" y="310" type="curve" smooth="yes"/>
      <point x="486" y="295"/>
      <point x="486" y="281"/>
      <point x="461" y="256" type="curve" smooth="yes"/>
      <point x="431" y="231"/>
      <point x="384" y="215"/>
      <point x="336" y="215" type="curve" smooth="yes"/>
      <point x="295" y="215"/>
      <point x="272" y="223"/>
      <point x="250" y="231" type="curve" smooth="yes"/>
      <point x="233" y="237"/>
      <point x="217" y="242"/>
      <point x="191" y="242" type="curve" smooth="yes"/>
      <point x="165" y="242"/>
      <point x="148" y="235"/>
      <point x="131" y="228" type="curve" smooth="yes"/>
      <point x="115" y="220"/>
      <point x="96" y="227"/>
      <point x="81" y="242" type="curve" smooth="yes"/>
      <point x="67" y="257"/>
      <point x="72" y="274"/>
      <point x="88" y="287" type="curve" smooth="yes"/>
      <point x="122" y="310"/>
      <point x="161" y="328"/>
      <point x="209" y="328" type="curve" smooth="yes"/>
      <point x="254" y="328"/>
      <point x="279" y="319"/>
      <point x="301" y="312" type="curve" smooth="yes"/>
      <point x="318" y="306"/>
      <point x="332" y="301"/>
      <point x="354" y="301" type="curve" smooth="yes"/>
      <point x="380" y="301"/>
      <point x="399" y="306"/>
    </contour>
  </outline>
</glyph>
<glyph name="exclamdown" format="1">
  <advance width="294"/>
  <unicode hex="00A1"/>
  <outline>
    <contour>
      <point x="148" y="300" type="line" smooth="yes"/>
      <point x="107" y="300"/>
      <point x="100" y="289"/>
      <point x="97" y="268" type="curve"/>
      <point x="80" y="128"/>
      <point x="47" y="-131"/>
      <point x="47" y="-152" type="curve"/>
      <point x="47" y="-170"/>
      <point x="68" y="-180"/>
      <point x="107" y="-180" type="curve" smooth="yes"/>
      <point x="150" y="-180" type="line" smooth="yes"/>
      <point x="192" y="-180"/>
      <point x="210" y="-169"/>
      <point x="210" y="-148" type="curve" smooth="yes"/>
      <point x="210" y="268" type="line" smooth="yes"/>
      <point x="210" y="289"/>
      <point x="200" y="300"/>
      <point x="159" y="300" type="curve" smooth="yes"/>
    </contour>
    <contour>
      <point x="138" y="525" type="line" smooth="yes"/>
      <point x="96" y="525"/>
      <point x="78" y="514"/>
      <point x="78" y="493" type="curve" smooth="yes"/>
      <point x="78" y="401" type="line" smooth="yes"/>
      <point x="78" y="380"/>
      <point x="96" y="369"/>
      <point x="138" y="369" type="curve"/>
      <point x="170" y="369" type="line" smooth="yes"/>
      <point x="212" y="369"/>
      <point x="230" y="380"/>
      <point x="230" y="401" type="curve" smooth="yes"/>
      <point x="230" y="493" type="line" smooth="yes"/>
      <point x="230" y="514"/>
      <point x="212" y="525"/>
      <point x="170" y="525" type="curve" smooth="yes"/>
    </contour>
  </outline>
</glyph>
<glyph name="cent" format="1">
  <advance width="486"/>
  <unicode hex="00A2"/>
  <outline>
    <contour>
      <point x="290" y="587" type="curve" smooth="yes"/>
      <point x="311" y="587"/>
      <point x="320" y="578"/>
      <point x="320" y="557" type="curve" smooth="yes"/>
      <point x="320" y="530" type="line"/>
      <point x="384" y="525"/>
      <point x="457" y="502"/>
      <point x="457" y="462" type="curve" smooth="yes"/>
      <point x="457" y="443"/>
      <point x="421" y="385"/>
      <point x="404" y="385" type="curve" smooth="yes"/>
      <point x="392" y="385"/>
      <point x="367" y="408"/>
      <point x="320" y="413" type="curve"/>
      <point x="320" y="110" type="line"/>
      <point x="371" y="115"/>
      <point x="397" y="138"/>
      <point x="409" y="138" type="curve" smooth="yes"/>
      <point x="431" y="138"/>
      <point x="461" y="82"/>
      <point x="461" y="62" type="curve" smooth="yes"/>
      <point x="461" y="17"/>
      <point x="372" y="0"/>
      <point x="320" y="-6" type="curve"/>
      <point x="320" y="-48" type="line" smooth="yes"/>
      <point x="320" y="-69"/>
      <point x="311" y="-78"/>
      <point x="293" y="-78" type="curve" smooth="yes"/>
      <point x="272" y="-78"/>
      <point x="263" y="-69"/>
      <point x="263" y="-48" type="curve" smooth="yes"/>
      <point x="263" y="-7" type="line"/>
      <point x="113" y="1"/>
      <point x="42" y="88"/>
      <point x="42" y="258" type="curve" smooth="yes"/>
      <point x="42" y="425"/>
      <point x="109" y="519"/>
      <point x="263" y="530" type="curve"/>
      <point x="263" y="557" type="line" smooth="yes"/>
      <point x="263" y="578"/>
      <point x="272" y="587"/>
    </contour>
    <contour>
      <point x="263" y="113" type="curve"/>
      <point x="263" y="409" type="line"/>
      <point x="213" y="394"/>
      <point x="192" y="345"/>
      <point x="192" y="262" type="curve" smooth="yes"/>
      <point x="192" y="176"/>
      <point x="213" y="127"/>
    </contour>
  </outline>
</glyph>
<glyph name="currency" format="1">
  <advance width="534"/>
  <unicode hex="00A4"/>
  <outline>
    <contour>
      <point x="106" y="514" type="curve" smooth="yes"/>
      <point x="115" y="514"/>
      <point x="123" y="510"/>
      <point x="131" y="502" type="curve" smooth="yes"/>
      <point x="159" y="474" type="line"/>
      <point x="189" y="490"/>
      <point x="223" y="500"/>
      <point x="260" y="500" type="curve" smooth="yes"/>
      <point x="297" y="500"/>
      <point x="332" y="490"/>
      <point x="363" y="473" type="curve"/>
      <point x="392" y="502" type="line" smooth="yes"/>
      <point x="400" y="510"/>
      <point x="409" y="514"/>
      <point x="417" y="514" type="curve" smooth="yes"/>
      <point x="426" y="514"/>
      <point x="434" y="510"/>
      <point x="442" y="502" type="curve" smooth="yes"/>
      <point x="472" y="472" type="line" smooth="yes"/>
      <point x="480" y="464"/>
      <point x="484" y="456"/>
      <point x="484" y="447" type="curve" smooth="yes"/>
      <point x="484" y="439"/>
      <point x="480" y="430"/>
      <point x="472" y="422" type="curve" smooth="yes"/>
      <point x="443" y="393" type="line"/>
      <point x="461" y="362"/>
      <point x="471" y="327"/>
      <point x="471" y="289" type="curve" smooth="yes"/>
      <point x="471" y="252"/>
      <point x="461" y="218"/>
      <point x="445" y="188" type="curve"/>
      <point x="469" y="164" type="line" smooth="yes"/>
      <point x="477" y="156"/>
      <point x="481" y="148"/>
      <point x="481" y="139" type="curve" smooth="yes"/>
      <point x="481" y="131"/>
      <point x="477" y="122"/>
      <point x="469" y="114" type="curve" smooth="yes"/>
      <point x="439" y="84" type="line" smooth="yes"/>
      <point x="431" y="76"/>
      <point x="423" y="72"/>
      <point x="414" y="72" type="curve" smooth="yes"/>
      <point x="406" y="72"/>
      <point x="397" y="76"/>
      <point x="389" y="84" type="curve" smooth="yes"/>
      <point x="366" y="107" type="line"/>
      <point x="335" y="88"/>
      <point x="298" y="78"/>
      <point x="260" y="78" type="curve" smooth="yes"/>
      <point x="222" y="78"/>
      <point x="186" y="88"/>
      <point x="155" y="105" type="curve"/>
      <point x="134" y="84" type="line" smooth="yes"/>
      <point x="126" y="76"/>
      <point x="118" y="72"/>
      <point x="109" y="72" type="curve" smooth="yes"/>
      <point x="101" y="72"/>
      <point x="92" y="76"/>
      <point x="84" y="84" type="curve" smooth="yes"/>
      <point x="54" y="114" type="line" smooth="yes"/>
      <point x="46" y="122"/>
      <point x="42" y="131"/>
      <point x="42" y="139" type="curve" smooth="yes"/>
      <point x="42" y="148"/>
      <point x="46" y="156"/>
      <point x="54" y="164" type="curve" smooth="yes"/>
      <point x="76" y="186" type="line"/>
      <point x="59" y="216"/>
      <point x="49" y="251"/>
      <point x="49" y="289" type="curve" smooth="yes"/>
      <point x="49" y="327"/>
      <point x="59" y="364"/>
      <point x="78" y="395" type="curve"/>
      <point x="51" y="422" type="line" smooth="yes"/>
      <point x="43" y="430"/>
      <point x="39" y="439"/>
      <point x="39" y="447" type="curve" smooth="yes"/>
      <point x="39" y="456"/>
      <point x="43" y="464"/>
      <point x="51" y="472" type="curve" smooth="yes"/>
      <point x="81" y="502" type="line" smooth="yes"/>
      <point x="89" y="510"/>
      <point x="98" y="514"/>
    </contour>
    <contour>
      <point x="260" y="386" type="curve" smooth="yes"/>
      <point x="206" y="386"/>
      <point x="163" y="343"/>
      <point x="163" y="289" type="curve" smooth="yes"/>
      <point x="163" y="235"/>
      <point x="206" y="192"/>
      <point x="260" y="192" type="curve" smooth="yes"/>
      <point x="314" y="192"/>
      <point x="357" y="235"/>
      <point x="357" y="289" type="curve" smooth="yes"/>
      <point x="357" y="343"/>
      <point x="314" y="386"/>
    </contour>
  </outline>
</glyph>
<glyph name="yen" format="1">
  <advance width="559"/>
  <unicode hex="00A5"/>
  <outline>
    <contour>
      <point x="565" y="682" type="curve" smooth="yes"/>
      <point x="565" y="676"/>
      <point x="562" y="667"/>
      <point x="556" y="657" type="curve" smooth="yes"/>
      <point x="404" y="409" type="line"/>
      <point x="487" y="409" type="line" smooth="yes"/>
      <point x="508" y="409"/>
      <point x="517" y="400"/>
      <point x="517" y="379" type="curve" smooth="yes"/>
      <point x="517" y="364" type="line" smooth="yes"/>
      <point x="517" y="343"/>
      <point x="508" y="333"/>
      <point x="487" y="333" type="curve" smooth="yes"/>
      <point x="357" y="333" type="line"/>
      <point x="357" y="270" type="line"/>
      <point x="487" y="270" type="line" smooth="yes"/>
      <point x="508" y="270"/>
      <point x="517" y="261"/>
      <point x="517" y="240" type="curve" smooth="yes"/>
      <point x="517" y="225" type="line" smooth="yes"/>
      <point x="517" y="204"/>
      <point x="508" y="195"/>
      <point x="487" y="195" type="curve" smooth="yes"/>
      <point x="357" y="195" type="line"/>
      <point x="357" y="30" type="line" smooth="yes"/>
      <point x="357" y="9"/>
      <point x="339" y="-2"/>
      <point x="297" y="-2" type="curve" smooth="yes"/>
      <point x="263" y="-2" type="line" smooth="yes"/>
      <point x="221" y="-2"/>
      <point x="203" y="9"/>
      <point x="203" y="30" type="curve" smooth="yes"/>
      <point x="203" y="195" type="line"/>
      <point x="70" y="195" type="line" smooth="yes"/>
      <point x="49" y="195"/>
      <point x="40" y="204"/>
      <point x="40" y="225" type="curve" smooth="yes"/>
      <point x="40" y="240" type="line" smooth="yes"/>
      <point x="40" y="261"/>
      <point x="49" y="270"/>
      <point x="70" y="270" type="curve" smooth="yes"/>
      <point x="203" y="270" type="line"/>
      <point x="203" y="334" type="line"/>
      <point x="70" y="334" type="line" smooth="yes"/>
      <point x="49" y="334"/>
      <point x="40" y="343"/>
      <point x="40" y="364" type="curve" smooth="yes"/>
      <point x="40" y="379" type="line" smooth="yes"/>
      <point x="40" y="400"/>
      <point x="49" y="409"/>
      <point x="70" y="409" type="curve" smooth="yes"/>
      <point x="158" y="409" type="line"/>
      <point x="4" y="657" type="line" smooth="yes"/>
      <point x="-2" y="667"/>
      <point x="-6" y="676"/>
      <point x="-6" y="682" type="curve" smooth="yes"/>
      <point x="-6" y="694"/>
      <point x="14" y="702"/>
      <point x="58" y="702" type="curve" smooth="yes"/>
      <point x="101" y="702" type="line" smooth="yes"/>
      <point x="130" y="702"/>
      <point x="152" y="698"/>
      <point x="161" y="683" type="curve" smooth="yes"/>
      <point x="283" y="469" type="line"/>
      <point x="406" y="683" type="line" smooth="yes"/>
      <point x="415" y="698"/>
      <point x="437" y="702"/>
      <point x="466" y="702" type="curve" smooth="yes"/>
      <point x="502" y="702" type="line" smooth="yes"/>
      <point x="546" y="702"/>
      <point x="565" y="694"/>
    </contour>
  </outline>
</glyph>
<glyph name="brokenbar" format="1">
  <advance width="250"/>
  <unicode hex="00A6"/>
  <outline>
    <contour>
      <point x="118" y="770" type="curve" smooth="yes"/>
      <point x="133" y="770" type="line" smooth="yes"/>
      <point x="168" y="770"/>
      <point x="183" y="759"/>
      <point x="183" y="738" type="curve" smooth="yes"/>
      <point x="183" y="412" type="line" smooth="yes"/>
      <point x="183" y="391"/>
      <point x="168" y="380"/>
      <point x="133" y="380" type="curve" smooth="yes"/>
      <point x="118" y="380" type="line" smooth="yes"/>
      <point x="83" y="380"/>
      <point x="68" y="391"/>
      <point x="68" y="412" type="curve" smooth="yes"/>
      <point x="68" y="738" type="line" smooth="yes"/>
      <point x="68" y="759"/>
      <point x="83" y="770"/>
    </contour>
    <contour>
      <point x="118" y="250" type="curve" smooth="yes"/>
      <point x="133" y="250" type="line" smooth="yes"/>
      <point x="168" y="250"/>
      <point x="183" y="239"/>
      <point x="183" y="218" type="curve" smooth="yes"/>
      <point x="183" y="-108" type="line" smooth="yes"/>
      <point x="183" y="-129"/>
      <point x="168" y="-140"/>
      <point x="133" y="-140" type="curve" smooth="yes"/>
      <point x="118" y="-140" type="line" smooth="yes"/>
      <point x="83" y="-140"/>
      <point x="68" y="-129"/>
      <point x="68" y="-108" type="curve" smooth="yes"/>
      <point x="68" y="218" type="line" smooth="yes"/>
      <point x="68" y="239"/>
      <point x="83" y="250"/>
    </contour>
  </outline>
</glyph>
<glyph name="section" format="1">
  <advance width="429"/>
  <unicode hex="00A7"/>
  <outline>
    <contour>
      <point x="225" y="708" type="curve" smooth="yes"/>
      <point x="258" y="708"/>
      <point x="373" y="701"/>
      <point x="373" y="645" type="curve" smooth="yes"/>
      <point x="373" y="632"/>
      <point x="350" y="571"/>
      <point x="330" y="571" type="curve" smooth="yes"/>
      <point x="320" y="571"/>
      <point x="290" y="592"/>
      <point x="245" y="592" type="curve" smooth="yes"/>
      <point x="209" y="592"/>
      <point x="191" y="582"/>
      <point x="191" y="561" type="curve" smooth="yes"/>
      <point x="191" y="494"/>
      <point x="391" y="526"/>
      <point x="391" y="351" type="curve" smooth="yes"/>
      <point x="391" y="307"/>
      <point x="378" y="270"/>
      <point x="354" y="242" type="curve"/>
      <point x="376" y="221"/>
      <point x="392" y="192"/>
      <point x="392" y="147" type="curve" smooth="yes"/>
      <point x="392" y="51"/>
      <point x="321" y="-7"/>
      <point x="208" y="-7" type="curve" smooth="yes"/>
      <point x="175" y="-7"/>
      <point x="60" y="0"/>
      <point x="60" y="56" type="curve" smooth="yes"/>
      <point x="60" y="69"/>
      <point x="83" y="130"/>
      <point x="103" y="130" type="curve" smooth="yes"/>
      <point x="113" y="130"/>
      <point x="143" y="109"/>
      <point x="188" y="109" type="curve" smooth="yes"/>
      <point x="224" y="109"/>
      <point x="242" y="119"/>
      <point x="242" y="140" type="curve" smooth="yes"/>
      <point x="242" y="207"/>
      <point x="42" y="175"/>
      <point x="42" y="350" type="curve" smooth="yes"/>
      <point x="42" y="393"/>
      <point x="55" y="430"/>
      <point x="79" y="459" type="curve"/>
      <point x="56" y="479"/>
      <point x="41" y="508"/>
      <point x="41" y="554" type="curve" smooth="yes"/>
      <point x="41" y="650"/>
      <point x="112" y="708"/>
    </contour>
    <contour>
      <point x="181" y="409" type="curve"/>
      <point x="174" y="396"/>
      <point x="172" y="380"/>
      <point x="172" y="366" type="curve" smooth="yes"/>
      <point x="172" y="323"/>
      <point x="208" y="307"/>
      <point x="252" y="292" type="curve"/>
      <point x="258" y="305"/>
      <point x="261" y="320"/>
      <point x="261" y="335" type="curve" smooth="yes"/>
      <point x="261" y="378"/>
      <point x="224" y="394"/>
    </contour>
  </outline>
</glyph>
<glyph name="dieresis" format="1">
  <advance width="320"/>
  <unicode hex="00A8"/>
  <outline>
    <contour>
      <point x="167" y="700" type="move" name="Anchor-3"/>
    </contour>
    <contour>
      <point x="71" y="702" type="curve" smooth="yes"/>
      <point x="113" y="702"/>
      <point x="131" y="691"/>
      <point x="131" y="670" type="curve" smooth="yes"/>
      <point x="131" y="610" type="line" smooth="yes"/>
      <point x="131" y="589"/>
      <point x="113" y="578"/>
      <point x="71" y="578" type="curve" smooth="yes"/>
      <point x="29" y="578"/>
      <point x="11" y="589"/>
      <point x="11" y="610" type="curve" smooth="yes"/>
      <point x="11" y="670" type="line" smooth="yes"/>
      <point x="11" y="691"/>
      <point x="29" y="702"/>
    </contour>
    <contour>
      <point x="251" y="702" type="curve" smooth="yes"/>
      <point x="293" y="702"/>
      <point x="311" y="691"/>
      <point x="311" y="670" type="curve" smooth="yes"/>
      <point x="311" y="610" type="line" smooth="yes"/>
      <point x="311" y="589"/>
      <point x="293" y="578"/>
      <point x="251" y="578" type="curve" smooth="yes"/>
      <point x="209" y="578"/>
      <point x="191" y="589"/>
      <point x="191" y="610" type="curve" smooth="yes"/>
      <point x="191" y="670" type="line" smooth="yes"/>
      <point x="191" y="691"/>
      <point x="209" y="702"/>
    </contour>
  </outline>
</glyph>
<glyph name="copyright" format="1">
  <advance width="739"/>
  <unicode hex="00A9"/>
  <outline>
    <contour>
      <point x="368" y="708" type="curve" smooth="yes"/>
      <point x="566" y="708"/>
      <point x="726" y="548"/>
      <point x="726" y="350" type="curve" smooth="yes"/>
      <point x="726" y="152"/>
      <point x="566" y="-8"/>
      <point x="368" y="-8" type="curve" smooth="yes"/>
      <point x="170" y="-8"/>
      <point x="10" y="152"/>
      <point x="10" y="350" type="curve" smooth="yes"/>
      <point x="10" y="548"/>
      <point x="170" y="708"/>
    </contour>
    <contour>
      <point x="368" y="644" type="curve" smooth="yes"/>
      <point x="206" y="644"/>
      <point x="74" y="512"/>
      <point x="74" y="350" type="curve" smooth="yes"/>
      <point x="74" y="188"/>
      <point x="206" y="56"/>
      <point x="368" y="56" type="curve" smooth="yes"/>
      <point x="530" y="56"/>
      <point x="662" y="188"/>
      <point x="662" y="350" type="curve" smooth="yes"/>
      <point x="662" y="512"/>
      <point x="530" y="644"/>
    </contour>
    <contour>
      <point x="383" y="552" type="curve" smooth="yes"/>
      <point x="433" y="552"/>
      <point x="500" y="536"/>
      <point x="500" y="513" type="curve" smooth="yes"/>
      <point x="500" y="497"/>
      <point x="478" y="460"/>
      <point x="464" y="460" type="curve" smooth="yes"/>
      <point x="457" y="460"/>
      <point x="435" y="478"/>
      <point x="382" y="478" type="curve" smooth="yes"/>
      <point x="316" y="478"/>
      <point x="285" y="436"/>
      <point x="285" y="353" type="curve" smooth="yes"/>
      <point x="285" y="269"/>
      <point x="316" y="225"/>
      <point x="381" y="225" type="curve" smooth="yes"/>
      <point x="434" y="225"/>
      <point x="464" y="248"/>
      <point x="472" y="248" type="curve" smooth="yes"/>
      <point x="490" y="248"/>
      <point x="505" y="208"/>
      <point x="505" y="199" type="curve" smooth="yes"/>
      <point x="505" y="165"/>
      <point x="425" y="152"/>
      <point x="381" y="152" type="curve" smooth="yes"/>
      <point x="256" y="152"/>
      <point x="197" y="215"/>
      <point x="197" y="353" type="curve" smooth="yes"/>
      <point x="197" y="486"/>
      <point x="259" y="552"/>
    </contour>
  </outline>
</glyph>
<glyph name="ordfeminine" format="1">
  <advance width="319"/>
  <unicode hex="00AA"/>
  <outline>
    <contour>
      <point x="152" y="708" type="curve" smooth="yes"/>
      <point x="230" y="708"/>
      <point x="258" y="673"/>
      <point x="258" y="625" type="curve" smooth="yes"/>
      <point x="258" y="531" type="line" smooth="yes"/>
      <point x="258" y="480"/>
      <point x="264" y="469"/>
      <point x="264" y="460" type="curve" smooth="yes"/>
      <point x="264" y="447"/>
      <point x="221" y="443"/>
      <point x="208" y="443" type="curve" smooth="yes"/>
      <point x="193" y="443"/>
      <point x="192" y="464"/>
      <point x="189" y="477" type="curve"/>
      <point x="186" y="471"/>
      <point x="161" y="440"/>
      <point x="115" y="440" type="curve" smooth="yes"/>
      <point x="62" y="440"/>
      <point x="42" y="471"/>
      <point x="42" y="512" type="curve" smooth="yes"/>
      <point x="42" y="553"/>
      <point x="59" y="605"/>
      <point x="185" y="605" type="curve"/>
      <point x="185" y="621" type="line" smooth="yes"/>
      <point x="185" y="641"/>
      <point x="173" y="649"/>
      <point x="146" y="649" type="curve" smooth="yes"/>
      <point x="109" y="649"/>
      <point x="88" y="634"/>
      <point x="82" y="634" type="curve" smooth="yes"/>
      <point x="72" y="634"/>
      <point x="57" y="663"/>
      <point x="57" y="674" type="curve" smooth="yes"/>
      <point x="57" y="690"/>
      <point x="96" y="708"/>
    </contour>
    <contour>
      <point x="185" y="529" type="curve"/>
      <point x="185" y="556" type="line"/>
      <point x="138" y="556"/>
      <point x="115" y="544"/>
      <point x="115" y="520" type="curve" smooth="yes"/>
      <point x="115" y="508"/>
      <point x="123" y="498"/>
      <point x="140" y="498" type="curve" smooth="yes"/>
      <point x="159" y="498"/>
      <point x="177" y="511"/>
    </contour>
  </outline>
</glyph>
<glyph name="logicalnot" format="1">
  <advance width="560"/>
  <unicode hex="00AC"/>
  <outline>
    <contour>
      <point x="60" y="349" type="curve" smooth="yes"/>
      <point x="490" y="349" type="line" smooth="yes"/>
      <point x="518" y="349"/>
      <point x="530" y="337"/>
      <point x="530" y="309" type="curve" smooth="yes"/>
      <point x="530" y="104" type="line" smooth="yes"/>
      <point x="530" y="83"/>
      <point x="518" y="72"/>
      <point x="490" y="72" type="curve" smooth="yes"/>
      <point x="470" y="72" type="line" smooth="yes"/>
      <point x="442" y="72"/>
      <point x="430" y="83"/>
      <point x="430" y="104" type="curve" smooth="yes"/>
      <point x="430" y="242" type="line"/>
      <point x="60" y="242" type="line" smooth="yes"/>
      <point x="39" y="242"/>
      <point x="30" y="257"/>
      <point x="30" y="292" type="curve" smooth="yes"/>
      <point x="30" y="299" type="line" smooth="yes"/>
      <point x="30" y="334"/>
      <point x="39" y="349"/>
    </contour>
  </outline>
</glyph>
<glyph name="softhyphen" format="1">
  <advance width="320"/>
  <unicode hex="00AD"/>
  <outline>
    <contour>
      <point x="60" y="319" type="curve" smooth="yes"/>
      <point x="255" y="319" type="line" smooth="yes"/>
      <point x="276" y="319"/>
      <point x="285" y="304"/>
      <point x="285" y="269" type="curve" smooth="yes"/>
      <point x="285" y="262" type="line" smooth="yes"/>
      <point x="285" y="227"/>
      <point x="276" y="212"/>
      <point x="255" y="212" type="curve" smooth="yes"/>
      <point x="60" y="212" type="line" smooth="yes"/>
      <point x="39" y="212"/>
      <point x="30" y="227"/>
      <point x="30" y="262" type="curve" smooth="yes"/>
      <point x="30" y="269" type="line" smooth="yes"/>
      <point x="30" y="304"/>
      <point x="39" y="319"/>
    </contour>
  </outline>
</glyph>
<glyph name="degree" format="1">
  <advance width="345"/>
  <unicode hex="00B0"/>
  <outline>
    <contour>
      <point x="97" y="708"/>
      <point x="38" y="648"/>
      <point x="38" y="575" type="curve" smooth="yes"/>
      <point x="38" y="502"/>
      <point x="97" y="443"/>
      <point x="170" y="443" type="curve" smooth="yes"/>
      <point x="243" y="443"/>
      <point x="303" y="502"/>
      <point x="303" y="575" type="curve" smooth="yes"/>
      <point x="303" y="648"/>
      <point x="243" y="708"/>
      <point x="170" y="708" type="curve" smooth="yes"/>
    </contour>
    <contour>
      <point x="207" y="646"/>
      <point x="238" y="614"/>
      <point x="238" y="575" type="curve" smooth="yes"/>
      <point x="238" y="536"/>
      <point x="207" y="505"/>
      <point x="170" y="505" type="curve" smooth="yes"/>
      <point x="133" y="505"/>
      <point x="103" y="536"/>
      <point x="103" y="575" type="curve" smooth="yes"/>
      <point x="103" y="614"/>
      <point x="133" y="646"/>
      <point x="170" y="646" type="curve" smooth="yes"/>
    </contour>
  </outline>
</glyph>
<glyph name="plusminus" format="1">
  <advance width="560"/>
  <unicode hex="00B1"/>
  <outline>
    <contour>
      <point x="272" y="603" type="curve" smooth="yes"/>
      <point x="286" y="603" type="line" smooth="yes"/>
      <point x="321" y="603"/>
      <point x="336" y="594"/>
      <point x="336" y="573" type="curve" smooth="yes"/>
      <point x="336" y="419" type="line"/>
      <point x="489" y="419" type="line" smooth="yes"/>
      <point x="510" y="419"/>
      <point x="519" y="404"/>
      <point x="519" y="369" type="curve" smooth="yes"/>
      <point x="519" y="362" type="line" smooth="yes"/>
      <point x="519" y="327"/>
      <point x="510" y="312"/>
      <point x="489" y="312" type="curve" smooth="yes"/>
      <point x="336" y="312" type="line"/>
      <point x="336" y="160" type="line" smooth="yes"/>
      <point x="336" y="139"/>
      <point x="321" y="130"/>
      <point x="286" y="130" type="curve" smooth="yes"/>
      <point x="272" y="130" type="line" smooth="yes"/>
      <point x="237" y="130"/>
      <point x="222" y="139"/>
      <point x="222" y="160" type="curve" smooth="yes"/>
      <point x="222" y="312" type="line"/>
      <point x="71" y="312" type="line" smooth="yes"/>
      <point x="50" y="312"/>
      <point x="41" y="327"/>
      <point x="41" y="362" type="curve" smooth="yes"/>
      <point x="41" y="369" type="line" smooth="yes"/>
      <point x="41" y="404"/>
      <point x="50" y="419"/>
      <point x="71" y="419" type="curve" smooth="yes"/>
      <point x="222" y="419" type="line"/>
      <point x="222" y="573" type="line" smooth="yes"/>
      <point x="222" y="594"/>
      <point x="237" y="603"/>
    </contour>
    <contour>
      <point x="71" y="107" type="curve" smooth="yes"/>
      <point x="489" y="107" type="line" smooth="yes"/>
      <point x="510" y="107"/>
      <point x="519" y="92"/>
      <point x="519" y="57" type="curve" smooth="yes"/>
      <point x="519" y="50" type="line" smooth="yes"/>
      <point x="519" y="15"/>
      <point x="510" y="0"/>
      <point x="489" y="0" type="curve" smooth="yes"/>
      <point x="71" y="0" type="line" smooth="yes"/>
      <point x="50" y="0"/>
      <point x="41" y="15"/>
      <point x="41" y="50" type="curve" smooth="yes"/>
      <point x="41" y="57" type="line" smooth="yes"/>
      <point x="41" y="92"/>
      <point x="50" y="107"/>
    </contour>
  </outline>
</glyph>
<glyph name="twosuperior" format="1">
  <advance width="320"/>
  <unicode hex="00B2"/>
  <outline>
    <contour>
      <point x="149" y="706" type="curve" smooth="yes"/>
      <point x="230" y="706"/>
      <point x="276" y="658"/>
      <point x="276" y="592" type="curve" smooth="yes"/>
      <point x="276" y="554"/>
      <point x="261" y="522"/>
      <point x="240" y="496" type="curve" smooth="yes"/>
      <point x="131" y="360" type="line"/>
      <point x="265" y="360" type="line" smooth="yes"/>
      <point x="278" y="360"/>
      <point x="283" y="352"/>
      <point x="283" y="332" type="curve" smooth="yes"/>
      <point x="283" y="322" type="line" smooth="yes"/>
      <point x="283" y="301"/>
      <point x="278" y="292"/>
      <point x="265" y="292" type="curve" smooth="yes"/>
      <point x="33" y="292" type="line" smooth="yes"/>
      <point x="24" y="292"/>
      <point x="16" y="327"/>
      <point x="16" y="344" type="curve" smooth="yes"/>
      <point x="16" y="348"/>
      <point x="17" y="351"/>
      <point x="18" y="353" type="curve" smooth="yes"/>
      <point x="166" y="533" type="line" smooth="yes"/>
      <point x="179" y="549"/>
      <point x="188" y="568"/>
      <point x="188" y="590" type="curve" smooth="yes"/>
      <point x="188" y="622"/>
      <point x="164" y="637"/>
      <point x="134" y="637" type="curve" smooth="yes"/>
      <point x="96" y="637"/>
      <point x="74" y="613"/>
      <point x="66" y="613" type="curve" smooth="yes"/>
      <point x="48" y="613"/>
      <point x="32" y="637"/>
      <point x="32" y="653" type="curve" smooth="yes"/>
      <point x="32" y="687"/>
      <point x="93" y="706"/>
    </contour>
  </outline>
</glyph>
<glyph name="acute" format="1">
  <advance width="320"/>
  <unicode hex="00B4"/>
  <outline>
    <contour>
      <point x="130" y="700" type="move" name="Anchor-3"/>
    </contour>
    <contour>
      <point x="204" y="734" type="curve" smooth="yes"/>
      <point x="244" y="734"/>
      <point x="264" y="731"/>
      <point x="264" y="720" type="curve" smooth="yes"/>
      <point x="264" y="708"/>
      <point x="257" y="706"/>
      <point x="160" y="600" type="curve" smooth="yes"/>
      <point x="149" y="588"/>
      <point x="132" y="575"/>
      <point x="85" y="575" type="curve" smooth="yes"/>
      <point x="61" y="575"/>
      <point x="54" y="579"/>
      <point x="54" y="590" type="curve" smooth="yes"/>
      <point x="54" y="601"/>
      <point x="73" y="626"/>
      <point x="119" y="707" type="curve" smooth="yes"/>
      <point x="131" y="728"/>
      <point x="164" y="734"/>
    </contour>
  </outline>
</glyph>
<glyph name="uni00B5" format="1">
  <advance width="566"/>
  <unicode hex="00B5"/>
  <outline>
    <contour>
      <point x="489" y="493" type="curve" smooth="yes"/>
      <point x="489" y="176" type="line" smooth="yes"/>
      <point x="489" y="73"/>
      <point x="501" y="52"/>
      <point x="501" y="31" type="curve" smooth="yes"/>
      <point x="501" y="7"/>
      <point x="414" y="-1"/>
      <point x="389" y="-1" type="curve" smooth="yes"/>
      <point x="357" y="-1"/>
      <point x="355" y="41"/>
      <point x="349" y="68" type="curve"/>
      <point x="320" y="29"/>
      <point x="265" y="-7"/>
      <point x="201" y="-8" type="curve"/>
      <point x="201" y="-174" type="line" smooth="yes"/>
      <point x="201" y="-195"/>
      <point x="183" y="-206"/>
      <point x="141" y="-206" type="curve" smooth="yes"/>
      <point x="113" y="-206" type="line" smooth="yes"/>
      <point x="71" y="-206"/>
      <point x="53" y="-195"/>
      <point x="53" y="-174" type="curve" smooth="yes"/>
      <point x="53" y="493" type="line" smooth="yes"/>
      <point x="53" y="514"/>
      <point x="71" y="525"/>
      <point x="113" y="525" type="curve" smooth="yes"/>
      <point x="141" y="525" type="line" smooth="yes"/>
      <point x="183" y="525"/>
      <point x="201" y="514"/>
      <point x="201" y="493" type="curve" smooth="yes"/>
      <point x="201" y="176" type="line" smooth="yes"/>
      <point x="201" y="137"/>
      <point x="217" y="114"/>
      <point x="261" y="114" type="curve" smooth="yes"/>
      <point x="302" y="114"/>
      <point x="329" y="149"/>
      <point x="341" y="172" type="curve"/>
      <point x="341" y="493" type="line" smooth="yes"/>
      <point x="341" y="514"/>
      <point x="359" y="525"/>
      <point x="401" y="525" type="curve" smooth="yes"/>
      <point x="429" y="525" type="line" smooth="yes"/>
      <point x="471" y="525"/>
      <point x="489" y="514"/>
    </contour>
  </outline>
</glyph>
<glyph name="periodcentered" format="1">
  <advance width="267"/>
  <unicode hex="00B7"/>
  <outline>
    <contour>
      <point x="141" y="429" type="curve" smooth="yes"/>
      <point x="180" y="429"/>
      <point x="211" y="398"/>
      <point x="211" y="359" type="curve" smooth="yes"/>
      <point x="211" y="320"/>
      <point x="180" y="289"/>
      <point x="141" y="289" type="curve" smooth="yes"/>
      <point x="102" y="289"/>
      <point x="71" y="320"/>
      <point x="71" y="359" type="curve" smooth="yes"/>
      <point x="71" y="398"/>
      <point x="102" y="429"/>
    </contour>
  </outline>
</glyph>
<glyph name="cedilla" format="1">
  <advance width="320"/>
  <unicode hex="00B8"/>
  <outline>
    <contour>
      <point x="156" y="-203" type="move" name="Anchor-2"/>
    </contour>
    <contour>
      <point x="214" y="10" type="line"/>
      <point x="202" y="-36" type="line"/>
      <point x="237" y="-41"/>
      <point x="279" y="-61"/>
      <point x="279" y="-112" type="curve" smooth="yes"/>
      <point x="279" y="-180"/>
      <point x="239" y="-212"/>
      <point x="160" y="-212" type="curve" smooth="yes"/>
      <point x="104" y="-212"/>
      <point x="29" y="-194"/>
      <point x="29" y="-162" type="curve" smooth="yes"/>
      <point x="29" y="-128"/>
      <point x="54" y="-118"/>
      <point x="61" y="-118" type="curve" smooth="yes"/>
      <point x="84" y="-118"/>
      <point x="110" y="-139"/>
      <point x="152" y="-139" type="curve" smooth="yes"/>
      <point x="170" y="-139"/>
      <point x="176" y="-133"/>
      <point x="176" y="-122" type="curve" smooth="yes"/>
      <point x="176" y="-97"/>
      <point x="123" y="-98"/>
      <point x="123" y="-74" type="curve" smooth="yes"/>
      <point x="123" y="-70"/>
      <point x="124" y="-64"/>
      <point x="148" y="10" type="curve"/>
    </contour>
  </outline>
</glyph>
<glyph name="onesuperior" format="1">
  <advance width="217"/>
  <unicode hex="00B9"/>
  <outline>
    <contour>
      <point x="30" y="678" type="curve" smooth="yes"/>
      <point x="176" y="704" type="line" smooth="yes"/>
      <point x="184" y="704"/>
      <point x="199" y="697"/>
      <point x="199" y="690" type="curve" smooth="yes"/>
      <point x="199" y="312" type="line" smooth="yes"/>
      <point x="199" y="300"/>
      <point x="188" y="293"/>
      <point x="164" y="293" type="curve" smooth="yes"/>
      <point x="148" y="293" type="line" smooth="yes"/>
      <point x="124" y="293"/>
      <point x="113" y="300"/>
      <point x="113" y="312" type="curve" smooth="yes"/>
      <point x="113" y="624" type="line"/>
      <point x="34" y="611" type="line" smooth="yes"/>
      <point x="19" y="611"/>
      <point x="15" y="645"/>
      <point x="15" y="661" type="curve" smooth="yes"/>
      <point x="15" y="670"/>
      <point x="20" y="676"/>
    </contour>
  </outline>
</glyph>
<glyph name="ordmasculine" format="1">
  <advance width="337"/>
  <unicode hex="00BA"/>
  <outline>
    <contour>
      <point x="168" y="708" type="curve" smooth="yes"/>
      <point x="247" y="708"/>
      <point x="288" y="661"/>
      <point x="288" y="575" type="curve" smooth="yes"/>
      <point x="288" y="488"/>
      <point x="247" y="441"/>
      <point x="168" y="441" type="curve" smooth="yes"/>
      <point x="89" y="441"/>
      <point x="47" y="488"/>
      <point x="47" y="575" type="curve" smooth="yes"/>
      <point x="47" y="661"/>
      <point x="89" y="708"/>
    </contour>
    <contour>
      <point x="168" y="650" type="curve" smooth="yes"/>
      <point x="136" y="650"/>
      <point x="122" y="624"/>
      <point x="122" y="575" type="curve" smooth="yes"/>
      <point x="122" y="525"/>
      <point x="136" y="499"/>
      <point x="168" y="499" type="curve" smooth="yes"/>
      <point x="200" y="499"/>
      <point x="213" y="525"/>
      <point x="213" y="575" type="curve" smooth="yes"/>
      <point x="213" y="624"/>
      <point x="200" y="650"/>
    </contour>
  </outline>
</glyph>
<glyph name="guillemotright" format="1">
  <advance width="471"/>
  <unicode hex="00BB"/>
  <outline>
    <contour>
      <point x="101" y="469" type="curve" smooth="yes"/>
      <point x="111" y="469"/>
      <point x="119" y="465"/>
      <point x="128" y="455" type="curve" smooth="yes"/>
      <point x="255" y="302" type="line" smooth="yes"/>
      <point x="267" y="288"/>
      <point x="271" y="276"/>
      <point x="271" y="258" type="curve" smooth="yes"/>
      <point x="271" y="240"/>
      <point x="267" y="228"/>
      <point x="255" y="214" type="curve" smooth="yes"/>
      <point x="128" y="61" type="line" smooth="yes"/>
      <point x="119" y="51"/>
      <point x="110" y="46"/>
      <point x="101" y="46" type="curve" smooth="yes"/>
      <point x="79" y="46"/>
      <point x="42" y="75"/>
      <point x="42" y="95" type="curve" smooth="yes"/>
      <point x="42" y="103"/>
      <point x="45" y="110"/>
      <point x="51" y="118" type="curve" smooth="yes"/>
      <point x="161" y="258" type="line"/>
      <point x="51" y="398" type="line" smooth="yes"/>
      <point x="45" y="406"/>
      <point x="42" y="413"/>
      <point x="42" y="420" type="curve" smooth="yes"/>
      <point x="42" y="443"/>
      <point x="82" y="469"/>
    </contour>
    <contour>
      <point x="300" y="469" type="curve" smooth="yes"/>
      <point x="310" y="469"/>
      <point x="318" y="465"/>
      <point x="327" y="455" type="curve" smooth="yes"/>
      <point x="454" y="302" type="line" smooth="yes"/>
      <point x="466" y="288"/>
      <point x="470" y="276"/>
      <point x="470" y="258" type="curve" smooth="yes"/>
      <point x="470" y="240"/>
      <point x="466" y="228"/>
      <point x="454" y="214" type="curve" smooth="yes"/>
      <point x="327" y="61" type="line" smooth="yes"/>
      <point x="318" y="51"/>
      <point x="309" y="46"/>
      <point x="300" y="46" type="curve" smooth="yes"/>
      <point x="278" y="46"/>
      <point x="241" y="75"/>
      <point x="241" y="95" type="curve" smooth="yes"/>
      <point x="241" y="103"/>
      <point x="244" y="110"/>
      <point x="250" y="118" type="curve" smooth="yes"/>
      <point x="360" y="258" type="line"/>
      <point x="250" y="398" type="line" smooth="yes"/>
      <point x="244" y="406"/>
      <point x="241" y="413"/>
      <point x="241" y="420" type="curve" smooth="yes"/>
      <point x="241" y="443"/>
      <point x="281" y="469"/>
    </contour>
  </outline>
</glyph>
<glyph name="onequarter" format="1">
  <advance width="671"/>
  <unicode hex="00BC"/>
  <outline>
    <contour>
      <point x="522" y="700" type="line" smooth="yes"/>
      <point x="502" y="700"/>
      <point x="487" y="692"/>
      <point x="477" y="674" type="curve" smooth="yes"/>
      <point x="118" y="26" type="line" smooth="yes"/>
      <point x="114" y="20"/>
      <point x="112" y="15"/>
      <point x="112" y="11" type="curve" smooth="yes"/>
      <point x="112" y="3"/>
      <point x="119" y="0"/>
      <point x="133" y="0" type="curve" smooth="yes"/>
      <point x="150" y="0" type="line" smooth="yes"/>
      <point x="170" y="0"/>
      <point x="184" y="7"/>
      <point x="195" y="26" type="curve" smooth="yes"/>
      <point x="554" y="674" type="line" smooth="yes"/>
      <point x="558" y="680"/>
      <point x="560" y="685"/>
      <point x="560" y="689" type="curve" smooth="yes"/>
      <point x="560" y="696"/>
      <point x="553" y="700"/>
      <point x="539" y="700" type="curve" smooth="yes"/>
    </contour>
    <contour>
      <point x="30" y="678" type="line" smooth="yes"/>
      <point x="20" y="676"/>
      <point x="15" y="670"/>
      <point x="15" y="661" type="curve" smooth="yes"/>
      <point x="15" y="645"/>
      <point x="19" y="611"/>
      <point x="34" y="611" type="curve"/>
      <point x="113" y="624" type="line"/>
      <point x="113" y="312" type="line" smooth="yes"/>
      <point x="113" y="300"/>
      <point x="124" y="293"/>
      <point x="148" y="293" type="curve"/>
      <point x="164" y="293" type="line" smooth="yes"/>
      <point x="188" y="293"/>
      <point x="199" y="300"/>
      <point x="199" y="312" type="curve" smooth="yes"/>
      <point x="199" y="690" type="line" smooth="yes"/>
      <point x="199" y="697"/>
      <point x="184" y="704"/>
      <point x="176" y="704" type="curve"/>
    </contour>
    <contour>
      <point x="558" y="410" type="line" smooth="yes"/>
      <point x="541" y="410"/>
      <point x="529" y="408"/>
      <point x="522" y="399" type="curve"/>
      <point x="349" y="143" type="line" smooth="yes"/>
      <point x="348" y="141"/>
      <point x="348" y="139"/>
      <point x="348" y="136" type="curve" smooth="yes"/>
      <point x="348" y="120"/>
      <point x="359" y="82"/>
      <point x="369" y="82" type="curve" smooth="yes"/>
      <point x="522" y="82" type="line"/>
      <point x="522" y="17" type="line" smooth="yes"/>
      <point x="522" y="4"/>
      <point x="533" y="-2"/>
      <point x="557" y="-2" type="curve" smooth="yes"/>
      <point x="573" y="-2" type="line" smooth="yes"/>
      <point x="598" y="-2"/>
      <point x="608" y="4"/>
      <point x="608" y="17" type="curve" smooth="yes"/>
      <point x="608" y="82" type="line"/>
      <point x="631" y="82" type="line" smooth="yes"/>
      <point x="643" y="82"/>
      <point x="648" y="91"/>
      <point x="648" y="111" type="curve" smooth="yes"/>
      <point x="648" y="121" type="line" smooth="yes"/>
      <point x="648" y="141"/>
      <point x="643" y="150"/>
      <point x="631" y="150" type="curve" smooth="yes"/>
      <point x="608" y="150" type="line"/>
      <point x="608" y="391" type="line" smooth="yes"/>
      <point x="608" y="403"/>
      <point x="598" y="410"/>
      <point x="573" y="410" type="curve" smooth="yes"/>
    </contour>
    <contour>
      <point x="522" y="240" type="line"/>
      <point x="522" y="150" type="line"/>
      <point x="435" y="150" type="line"/>
      <point x="525" y="293" type="line"/>
      <point x="529" y="293" type="line"/>
    </contour>
  </outline>
</glyph>
<glyph name="onehalf" format="1">
  <advance width="746"/>
  <unicode hex="00BD"/>
  <outline>
    <contour>
      <point x="522" y="700" type="line" smooth="yes"/>
      <point x="502" y="700"/>
      <point x="487" y="692"/>
      <point x="477" y="674" type="curve" smooth="yes"/>
      <point x="118" y="26" type="line" smooth="yes"/>
      <point x="114" y="20"/>
      <point x="112" y="15"/>
      <point x="112" y="11" type="curve" smooth="yes"/>
      <point x="112" y="3"/>
      <point x="119" y="0"/>
      <point x="133" y="0" type="curve" smooth="yes"/>
      <point x="150" y="0" type="line" smooth="yes"/>
      <point x="170" y="0"/>
      <point x="184" y="7"/>
      <point x="195" y="26" type="curve" smooth="yes"/>
      <point x="554" y="674" type="line" smooth="yes"/>
      <point x="558" y="680"/>
      <point x="560" y="685"/>
      <point x="560" y="689" type="curve" smooth="yes"/>
      <point x="560" y="696"/>
      <point x="553" y="700"/>
      <point x="539" y="700" type="curve" smooth="yes"/>
    </contour>
    <contour>
      <point x="30" y="678" type="line" smooth="yes"/>
      <point x="20" y="676"/>
      <point x="15" y="670"/>
      <point x="15" y="661" type="curve" smooth="yes"/>
      <point x="15" y="645"/>
      <point x="19" y="611"/>
      <point x="34" y="611" type="curve"/>
      <point x="113" y="624" type="line"/>
      <point x="113" y="312" type="line" smooth="yes"/>
      <point x="113" y="300"/>
      <point x="124" y="293"/>
      <point x="148" y="293" type="curve"/>
      <point x="164" y="293" type="line" smooth="yes"/>
      <point x="188" y="293"/>
      <point x="199" y="300"/>
      <point x="199" y="312" type="curve" smooth="yes"/>
      <point x="199" y="690" type="line" smooth="yes"/>
      <point x="199" y="697"/>
      <point x="184" y="704"/>
      <point x="176" y="704" type="curve"/>
    </contour>
    <contour>
      <point x="511" y="414"/>
      <point x="450" y="395"/>
      <point x="450" y="361" type="curve" smooth="yes"/>
      <point x="450" y="345"/>
      <point x="466" y="321"/>
      <point x="484" y="321" type="curve" smooth="yes"/>
      <point x="492" y="321"/>
      <point x="514" y="345"/>
      <point x="552" y="345" type="curve" smooth="yes"/>
      <point x="582" y="345"/>
      <point x="606" y="330"/>
      <point x="606" y="298" type="curve" smooth="yes"/>
      <point x="606" y="276"/>
      <point x="597" y="257"/>
      <point x="584" y="241" type="curve" smooth="yes"/>
      <point x="436" y="61" type="line" smooth="yes"/>
      <point x="435" y="59"/>
      <point x="434" y="56"/>
      <point x="434" y="52" type="curve" smooth="yes"/>
      <point x="434" y="35"/>
      <point x="442" y="0"/>
      <point x="451" y="0" type="curve" smooth="yes"/>
      <point x="683" y="0" type="line" smooth="yes"/>
      <point x="696" y="0"/>
      <point x="701" y="9"/>
      <point x="701" y="30" type="curve" smooth="yes"/>
      <point x="701" y="40" type="line" smooth="yes"/>
      <point x="701" y="60"/>
      <point x="696" y="68"/>
      <point x="683" y="68" type="curve" smooth="yes"/>
      <point x="549" y="68" type="line"/>
      <point x="658" y="204" type="line" smooth="yes"/>
      <point x="679" y="230"/>
      <point x="694" y="262"/>
      <point x="694" y="300" type="curve" smooth="yes"/>
      <point x="694" y="366"/>
      <point x="648" y="414"/>
      <point x="567" y="414" type="curve" smooth="yes"/>
    </contour>
  </outline>
</glyph>
<glyph name="threequarters" format="1">
  <advance width="738"/>
  <unicode hex="00BE"/>
  <outline>
    <contour>
      <point x="153" y="708" type="curve" smooth="yes"/>
      <point x="227" y="708"/>
      <point x="274" y="668"/>
      <point x="274" y="605" type="curve" smooth="yes"/>
      <point x="274" y="565"/>
      <point x="253" y="535"/>
      <point x="219" y="520" type="curve"/>
      <point x="219" y="516" type="line"/>
      <point x="265" y="498"/>
      <point x="287" y="460"/>
      <point x="287" y="412" type="curve" smooth="yes"/>
      <point x="287" y="334"/>
      <point x="233" y="287"/>
      <point x="154" y="287" type="curve" smooth="yes"/>
      <point x="110" y="287"/>
      <point x="27" y="299"/>
      <point x="27" y="336" type="curve" smooth="yes"/>
      <point x="27" y="347"/>
      <point x="42" y="380"/>
      <point x="56" y="380" type="curve" smooth="yes"/>
      <point x="66" y="380"/>
      <point x="93" y="356"/>
      <point x="141" y="356" type="curve" smooth="yes"/>
      <point x="176" y="356"/>
      <point x="199" y="377"/>
      <point x="199" y="413" type="curve" smooth="yes"/>
      <point x="199" y="452"/>
      <point x="180" y="473"/>
      <point x="130" y="473" type="curve" smooth="yes"/>
      <point x="114" y="473" type="line" smooth="yes"/>
      <point x="102" y="473"/>
      <point x="96" y="482"/>
      <point x="96" y="502" type="curve" smooth="yes"/>
      <point x="96" y="513" type="line" smooth="yes"/>
      <point x="96" y="534"/>
      <point x="102" y="542"/>
      <point x="114" y="542" type="curve" smooth="yes"/>
      <point x="125" y="542" type="line" smooth="yes"/>
      <point x="163" y="542"/>
      <point x="186" y="562"/>
      <point x="186" y="591" type="curve" smooth="yes"/>
      <point x="186" y="620"/>
      <point x="170" y="639"/>
      <point x="138" y="639" type="curve" smooth="yes"/>
      <point x="93" y="639"/>
      <point x="79" y="620"/>
      <point x="69" y="620" type="curve" smooth="yes"/>
      <point x="57" y="620"/>
      <point x="39" y="649"/>
      <point x="39" y="665" type="curve" smooth="yes"/>
      <point x="39" y="694"/>
      <point x="95" y="708"/>
    </contour>
    <contour>
      <point x="560" y="700" type="curve" smooth="yes"/>
      <point x="577" y="700" type="line" smooth="yes"/>
      <point x="591" y="700"/>
      <point x="598" y="696"/>
      <point x="598" y="689" type="curve" smooth="yes"/>
      <point x="598" y="685"/>
      <point x="596" y="680"/>
      <point x="592" y="674" type="curve" smooth="yes"/>
      <point x="233" y="26" type="line" smooth="yes"/>
      <point x="222" y="7"/>
      <point x="208" y="0"/>
      <point x="188" y="0" type="curve" smooth="yes"/>
      <point x="171" y="0" type="line" smooth="yes"/>
      <point x="157" y="0"/>
      <point x="150" y="3"/>
      <point x="150" y="11" type="curve" smooth="yes"/>
      <point x="150" y="15"/>
      <point x="152" y="20"/>
      <point x="156" y="26" type="curve" smooth="yes"/>
      <point x="515" y="674" type="line" smooth="yes"/>
      <point x="525" y="692"/>
      <point x="540" y="700"/>
    </contour>
    <contour>
      <point x="596" y="410" type="curve" smooth="yes"/>
      <point x="611" y="410" type="line" smooth="yes"/>
      <point x="636" y="410"/>
      <point x="646" y="403"/>
      <point x="646" y="391" type="curve" smooth="yes"/>
      <point x="646" y="150" type="line"/>
      <point x="669" y="150" type="line" smooth="yes"/>
      <point x="681" y="150"/>
      <point x="686" y="141"/>
      <point x="686" y="121" type="curve" smooth="yes"/>
      <point x="686" y="111" type="line" smooth="yes"/>
      <point x="686" y="91"/>
      <point x="681" y="82"/>
      <point x="669" y="82" type="curve" smooth="yes"/>
      <point x="646" y="82" type="line"/>
      <point x="646" y="17" type="line" smooth="yes"/>
      <point x="646" y="4"/>
      <point x="636" y="-2"/>
      <point x="611" y="-2" type="curve" smooth="yes"/>
      <point x="595" y="-2" type="line" smooth="yes"/>
      <point x="571" y="-2"/>
      <point x="560" y="4"/>
      <point x="560" y="17" type="curve" smooth="yes"/>
      <point x="560" y="82" type="line"/>
      <point x="407" y="82" type="line" smooth="yes"/>
      <point x="397" y="82"/>
      <point x="386" y="120"/>
      <point x="386" y="136" type="curve" smooth="yes"/>
      <point x="386" y="139"/>
      <point x="386" y="141"/>
      <point x="387" y="143" type="curve" smooth="yes"/>
      <point x="560" y="399" type="line" smooth="yes"/>
      <point x="567" y="408"/>
      <point x="579" y="410"/>
    </contour>
    <contour>
      <point x="563" y="293" type="line"/>
      <point x="473" y="150" type="line"/>
      <point x="560" y="150" type="line"/>
      <point x="560" y="240" type="line"/>
      <point x="567" y="293" type="line"/>
    </contour>
  </outline>
</glyph>
<glyph name="questiondown" format="1">
  <advance width="425"/>
  <unicode hex="00BF"/>
  <outline>
    <contour>
      <point x="253" y="525" type="curve" smooth="yes"/>
      <point x="285" y="525" type="line" smooth="yes"/>
      <point x="327" y="525"/>
      <point x="345" y="514"/>
      <point x="345" y="493" type="curve" smooth="yes"/>
      <point x="345" y="401" type="line" smooth="yes"/>
      <point x="345" y="380"/>
      <point x="327" y="369"/>
      <point x="285" y="369" type="curve" smooth="yes"/>
      <point x="253" y="369" type="line" smooth="yes"/>
      <point x="211" y="369"/>
      <point x="193" y="380"/>
      <point x="193" y="401" type="curve" smooth="yes"/>
      <point x="193" y="493" type="line" smooth="yes"/>
      <point x="193" y="514"/>
      <point x="211" y="525"/>
    </contour>
    <contour>
      <point x="257" y="301" type="curve" smooth="yes"/>
      <point x="280" y="301" type="line" smooth="yes"/>
      <point x="315" y="301"/>
      <point x="329" y="293"/>
      <point x="329" y="272" type="curve" smooth="yes"/>
      <point x="329" y="215"/>
      <point x="297" y="167"/>
      <point x="262" y="125" type="curve" smooth="yes"/>
      <point x="220" y="76"/>
      <point x="174" y="37"/>
      <point x="174" y="3" type="curve" smooth="yes"/>
      <point x="174" y="-32"/>
      <point x="197" y="-53"/>
      <point x="248" y="-53" type="curve" smooth="yes"/>
      <point x="306" y="-53"/>
      <point x="346" y="-22"/>
      <point x="360" y="-22" type="curve" smooth="yes"/>
      <point x="388" y="-22"/>
      <point x="423" y="-83"/>
      <point x="423" y="-104" type="curve" smooth="yes"/>
      <point x="423" y="-163"/>
      <point x="313" y="-185"/>
      <point x="235" y="-185" type="curve" smooth="yes"/>
      <point x="101" y="-185"/>
      <point x="18" y="-117"/>
      <point x="18" y="-7" type="curve" smooth="yes"/>
      <point x="18" y="146"/>
      <point x="186" y="178"/>
      <point x="204" y="274" type="curve" smooth="yes"/>
      <point x="210" y="295"/>
      <point x="224" y="301"/>
    </contour>
  </outline>
</glyph>
<glyph name="Aacute" format="1">
  <advance width="613"/>
  <unicode hex="00C1"/>
  <outline>
    <contour>
      <point x="313" y="877" type="move" name="Anchor-1"/>
    </contour>
    <contour>
      <point x="310" y="0" type="move" name="Anchor-0"/>
    </contour>
    <contour>
      <point x="387" y="911" type="curve" smooth="yes"/>
      <point x="427" y="911"/>
      <point x="447" y="908"/>
      <point x="447" y="897" type="curve" smooth="yes"/>
      <point x="447" y="885"/>
      <point x="440" y="883"/>
      <point x="343" y="777" type="curve" smooth="yes"/>
      <point x="332" y="765"/>
      <point x="315" y="752"/>
      <point x="268" y="752" type="curve" smooth="yes"/>
      <point x="244" y="752"/>
      <point x="237" y="756"/>
      <point x="237" y="767" type="curve" smooth="yes"/>
      <point x="237" y="778"/>
      <point x="256" y="803"/>
      <point x="302" y="884" type="curve" smooth="yes"/>
      <point x="314" y="905"/>
      <point x="347" y="911"/>
    </contour>
    <contour>
      <point x="281" y="702" type="curve" smooth="yes"/>
      <point x="333" y="702" type="line" smooth="yes"/>
      <point x="362" y="702"/>
      <point x="384" y="697"/>
      <point x="390" y="681" type="curve" smooth="yes"/>
      <point x="610" y="38" type="line" smooth="yes"/>
      <point x="612" y="31"/>
      <point x="613" y="25"/>
      <point x="613" y="20" type="curve" smooth="yes"/>
      <point x="613" y="6"/>
      <point x="598" y="-2"/>
      <point x="563" y="-2" type="curve" smooth="yes"/>
      <point x="519" y="-2" type="line" smooth="yes"/>
      <point x="490" y="-2"/>
      <point x="468" y="3"/>
      <point x="463" y="19" type="curve" smooth="yes"/>
      <point x="423" y="141" type="line"/>
      <point x="187" y="141" type="line"/>
      <point x="147" y="19" type="line" smooth="yes"/>
      <point x="142" y="4"/>
      <point x="125" y="-2"/>
      <point x="101" y="-2" type="curve" smooth="yes"/>
      <point x="61" y="-2" type="line" smooth="yes"/>
      <point x="19" y="-2"/>
      <point x="0" y="6"/>
      <point x="0" y="20" type="curve" smooth="yes"/>
      <point x="0" y="25"/>
      <point x="2" y="31"/>
      <point x="4" y="38" type="curve" smooth="yes"/>
      <point x="224" y="681" type="line" smooth="yes"/>
      <point x="230" y="697"/>
      <point x="252" y="702"/>
    </contour>
    <contour>
      <point x="308" y="515" type="curve"/>
      <point x="304" y="515" type="line"/>
      <point x="300" y="494"/>
      <point x="297" y="472"/>
      <point x="289" y="451" type="curve" smooth="yes"/>
      <point x="230" y="273" type="line"/>
      <point x="380" y="273" type="line"/>
      <point x="323" y="451" type="line" smooth="yes"/>
      <point x="316" y="472"/>
      <point x="312" y="494"/>
    </contour>
  </outline>
</glyph>
<glyph name="Atilde" format="1">
  <advance width="613"/>
  <unicode hex="00C3"/>
  <outline>
    <contour>
      <point x="306" y="877" type="move" name="Anchor-1"/>
    </contour>
    <contour>
      <point x="310" y="0" type="move" name="Anchor-0"/>
    </contour>
    <contour>
      <point x="426" y="858" type="curve" smooth="yes"/>
      <point x="439" y="866"/>
      <point x="455" y="868"/>
      <point x="470" y="852" type="curve" smooth="yes"/>
      <point x="483" y="837"/>
      <point x="483" y="823"/>
      <point x="462" y="798" type="curve" smooth="yes"/>
      <point x="437" y="773"/>
      <point x="397" y="757"/>
      <point x="356" y="757" type="curve" smooth="yes"/>
      <point x="321" y="757"/>
      <point x="303" y="765"/>
      <point x="284" y="773" type="curve" smooth="yes"/>
      <point x="270" y="779"/>
      <point x="255" y="784"/>
      <point x="233" y="784" type="curve" smooth="yes"/>
      <point x="211" y="784"/>
      <point x="197" y="777"/>
      <point x="183" y="770" type="curve" smooth="yes"/>
      <point x="169" y="762"/>
      <point x="153" y="769"/>
      <point x="141" y="784" type="curve" smooth="yes"/>
      <point x="129" y="799"/>
      <point x="133" y="816"/>
      <point x="146" y="829" type="curve" smooth="yes"/>
      <point x="175" y="852"/>
      <point x="208" y="870"/>
      <point x="249" y="870" type="curve" smooth="yes"/>
      <point x="287" y="870"/>
      <point x="308" y="861"/>
      <point x="327" y="854" type="curve" smooth="yes"/>
      <point x="341" y="848"/>
      <point x="353" y="843"/>
      <point x="372" y="843" type="curve" smooth="yes"/>
      <point x="394" y="843"/>
      <point x="409" y="848"/>
    </contour>
    <contour>
      <point x="281" y="702" type="curve" smooth="yes"/>
      <point x="333" y="702" type="line" smooth="yes"/>
      <point x="362" y="702"/>
      <point x="384" y="697"/>
      <point x="390" y="681" type="curve" smooth="yes"/>
      <point x="610" y="38" type="line" smooth="yes"/>
      <point x="612" y="31"/>
      <point x="613" y="25"/>
      <point x="613" y="20" type="curve" smooth="yes"/>
      <point x="613" y="6"/>
      <point x="598" y="-2"/>
      <point x="563" y="-2" type="curve" smooth="yes"/>
      <point x="519" y="-2" type="line" smooth="yes"/>
      <point x="490" y="-2"/>
      <point x="468" y="3"/>
      <point x="463" y="19" type="curve" smooth="yes"/>
      <point x="423" y="141" type="line"/>
      <point x="187" y="141" type="line"/>
      <point x="147" y="19" type="line" smooth="yes"/>
      <point x="142" y="4"/>
      <point x="125" y="-2"/>
      <point x="101" y="-2" type="curve" smooth="yes"/>
      <point x="61" y="-2" type="line" smooth="yes"/>
      <point x="19" y="-2"/>
      <point x="0" y="6"/>
      <point x="0" y="20" type="curve" smooth="yes"/>
      <point x="0" y="25"/>
      <point x="2" y="31"/>
      <point x="4" y="38" type="curve" smooth="yes"/>
      <point x="224" y="681" type="line" smooth="yes"/>
      <point x="230" y="697"/>
      <point x="252" y="702"/>
    </contour>
    <contour>
      <point x="308" y="515" type="curve"/>
      <point x="304" y="515" type="line"/>
      <point x="300" y="494"/>
      <point x="297" y="472"/>
      <point x="289" y="451" type="curve" smooth="yes"/>
      <point x="230" y="273" type="line"/>
      <point x="380" y="273" type="line"/>
      <point x="323" y="451" type="line" smooth="yes"/>
      <point x="316" y="472"/>
      <point x="312" y="494"/>
    </contour>
  </outline>
</glyph>
<glyph name="Adieresis" format="1">
  <advance width="613"/>
  <unicode hex="00C4"/>
  <outline>
    <contour>
      <point x="313" y="877" type="move" name="Anchor-1"/>
    </contour>
    <contour>
      <point x="310" y="0" type="move" name="Anchor-0"/>
    </contour>
    <contour>
      <point x="217" y="879" type="curve" smooth="yes"/>
      <point x="259" y="879"/>
      <point x="277" y="868"/>
      <point x="277" y="847" type="curve" smooth="yes"/>
      <point x="277" y="787" type="line" smooth="yes"/>
      <point x="277" y="766"/>
      <point x="259" y="755"/>
      <point x="217" y="755" type="curve" smooth="yes"/>
      <point x="175" y="755"/>
      <point x="157" y="766"/>
      <point x="157" y="787" type="curve" smooth="yes"/>
      <point x="157" y="847" type="line" smooth="yes"/>
      <point x="157" y="868"/>
      <point x="175" y="879"/>
    </contour>
    <contour>
      <point x="397" y="879" type="curve" smooth="yes"/>
      <point x="439" y="879"/>
      <point x="457" y="868"/>
      <point x="457" y="847" type="curve" smooth="yes"/>
      <point x="457" y="787" type="line" smooth="yes"/>
      <point x="457" y="766"/>
      <point x="439" y="755"/>
      <point x="397" y="755" type="curve" smooth="yes"/>
      <point x="355" y="755"/>
      <point x="337" y="766"/>
      <point x="337" y="787" type="curve" smooth="yes"/>
      <point x="337" y="847" type="line" smooth="yes"/>
      <point x="337" y="868"/>
      <point x="355" y="879"/>
    </contour>
    <contour>
      <point x="281" y="702" type="curve" smooth="yes"/>
      <point x="333" y="702" type="line" smooth="yes"/>
      <point x="362" y="702"/>
      <point x="384" y="697"/>
      <point x="390" y="681" type="curve" smooth="yes"/>
      <point x="610" y="38" type="line" smooth="yes"/>
      <point x="612" y="31"/>
      <point x="613" y="25"/>
      <point x="613" y="20" type="curve" smooth="yes"/>
      <point x="613" y="6"/>
      <point x="598" y="-2"/>
      <point x="563" y="-2" type="curve" smooth="yes"/>
      <point x="519" y="-2" type="line" smooth="yes"/>
      <point x="490" y="-2"/>
      <point x="468" y="3"/>
      <point x="463" y="19" type="curve" smooth="yes"/>
      <point x="423" y="141" type="line"/>
      <point x="187" y="141" type="line"/>
      <point x="147" y="19" type="line" smooth="yes"/>
      <point x="142" y="4"/>
      <point x="125" y="-2"/>
      <point x="101" y="-2" type="curve" smooth="yes"/>
      <point x="61" y="-2" type="line" smooth="yes"/>
      <point x="19" y="-2"/>
      <point x="0" y="6"/>
      <point x="0" y="20" type="curve" smooth="yes"/>
      <point x="0" y="25"/>
      <point x="2" y="31"/>
      <point x="4" y="38" type="curve" smooth="yes"/>
      <point x="224" y="681" type="line" smooth="yes"/>
      <point x="230" y="697"/>
      <point x="252" y="702"/>
    </contour>
    <contour>
      <point x="308" y="515" type="curve"/>
      <point x="304" y="515" type="line"/>
      <point x="300" y="494"/>
      <point x="297" y="472"/>
      <point x="289" y="451" type="curve" smooth="yes"/>
      <point x="230" y="273" type="line"/>
      <point x="380" y="273" type="line"/>
      <point x="323" y="451" type="line" smooth="yes"/>
      <point x="316" y="472"/>
      <point x="312" y="494"/>
    </contour>
  </outline>
</glyph>
<glyph name="AE" format="1">
  <advance width="915"/>
  <unicode hex="00C6"/>
  <outline>
    <contour>
      <point x="458" y="700" type="move" name="Anchor-1"/>
    </contour>
    <contour>
      <point x="0" y="0" type="move" name="Anchor-0"/>
    </contour>
    <contour>
      <point x="370" y="700" type="curve" smooth="yes"/>
      <point x="834" y="700" type="line" smooth="yes"/>
      <point x="855" y="700"/>
      <point x="864" y="685"/>
      <point x="864" y="650" type="curve" smooth="yes"/>
      <point x="864" y="619" type="line" smooth="yes"/>
      <point x="864" y="584"/>
      <point x="855" y="569"/>
      <point x="834" y="569" type="curve" smooth="yes"/>
      <point x="517" y="569" type="line"/>
      <point x="545" y="424" type="line"/>
      <point x="807" y="424" type="line" smooth="yes"/>
      <point x="828" y="424"/>
      <point x="837" y="409"/>
      <point x="837" y="374" type="curve" smooth="yes"/>
      <point x="837" y="343" type="line" smooth="yes"/>
      <point x="837" y="308"/>
      <point x="828" y="293"/>
      <point x="807" y="293" type="curve" smooth="yes"/>
      <point x="571" y="293" type="line"/>
      <point x="602" y="131" type="line"/>
      <point x="835" y="131" type="line" smooth="yes"/>
      <point x="856" y="131"/>
      <point x="865" y="116"/>
      <point x="865" y="81" type="curve" smooth="yes"/>
      <point x="865" y="50" type="line" smooth="yes"/>
      <point x="865" y="15"/>
      <point x="856" y="0"/>
      <point x="835" y="0" type="curve" smooth="yes"/>
      <point x="504" y="0" type="line" smooth="yes"/>
      <point x="482" y="0"/>
      <point x="473" y="9"/>
      <point x="469" y="30" type="curve" smooth="yes"/>
      <point x="448" y="141" type="line"/>
      <point x="205" y="141" type="line"/>
      <point x="145" y="19" type="line" smooth="yes"/>
      <point x="138" y="5"/>
      <point x="123" y="-2"/>
      <point x="99" y="-2" type="curve" smooth="yes"/>
      <point x="62" y="-2" type="line" smooth="yes"/>
      <point x="20" y="-2"/>
      <point x="1" y="6"/>
      <point x="1" y="20" type="curve" smooth="yes"/>
      <point x="1" y="25"/>
      <point x="2" y="32"/>
      <point x="5" y="38" type="curve" smooth="yes"/>
      <point x="326" y="673" type="line" smooth="yes"/>
      <point x="336" y="692"/>
      <point x="349" y="700"/>
    </contour>
    <contour>
      <point x="387" y="537" type="line"/>
      <point x="359" y="455" type="line"/>
      <point x="270" y="273" type="line"/>
      <point x="424" y="273" type="line"/>
      <point x="391" y="454" type="line"/>
      <point x="391" y="537" type="line"/>
    </contour>
  </outline>
</glyph>
<glyph name="Egrave" format="1">
  <advance width="546"/>
  <unicode hex="00C8"/>
  <outline>
    <contour>
      <point x="292" y="877" type="move" name="Anchor-1"/>
    </contour>
    <contour>
      <point x="287" y="0" type="move" name="Anchor-0"/>
    </contour>
    <contour>
      <point x="221" y="911" type="curve" smooth="yes"/>
      <point x="261" y="911"/>
      <point x="294" y="905"/>
      <point x="306" y="884" type="curve" smooth="yes"/>
      <point x="352" y="803"/>
      <point x="371" y="778"/>
      <point x="371" y="767" type="curve" smooth="yes"/>
      <point x="371" y="756"/>
      <point x="364" y="752"/>
      <point x="340" y="752" type="curve" smooth="yes"/>
      <point x="293" y="752"/>
      <point x="276" y="765"/>
      <point x="265" y="777" type="curve" smooth="yes"/>
      <point x="168" y="883"/>
      <point x="161" y="885"/>
      <point x="161" y="897" type="curve" smooth="yes"/>
      <point x="161" y="908"/>
      <point x="181" y="911"/>
    </contour>
    <contour>
      <point x="109" y="700" type="curve" smooth="yes"/>
      <point x="475" y="700" type="line" smooth="yes"/>
      <point x="496" y="700"/>
      <point x="505" y="685"/>
      <point x="505" y="650" type="curve" smooth="yes"/>
      <point x="505" y="619" type="line" smooth="yes"/>
      <point x="505" y="584"/>
      <point x="496" y="569"/>
      <point x="475" y="569" type="curve" smooth="yes"/>
      <point x="223" y="569" type="line"/>
      <point x="223" y="424" type="line"/>
      <point x="448" y="424" type="line" smooth="yes"/>
      <point x="469" y="424"/>
      <point x="478" y="409"/>
      <point x="478" y="374" type="curve" smooth="yes"/>
      <point x="478" y="343" type="line" smooth="yes"/>
      <point x="478" y="308"/>
      <point x="469" y="293"/>
      <point x="448" y="293" type="curve" smooth="yes"/>
      <point x="223" y="293" type="line"/>
      <point x="223" y="131" type="line"/>
      <point x="476" y="131" type="line" smooth="yes"/>
      <point x="497" y="131"/>
      <point x="506" y="116"/>
      <point x="506" y="81" type="curve" smooth="yes"/>
      <point x="506" y="50" type="line" smooth="yes"/>
      <point x="506" y="15"/>
      <point x="497" y="0"/>
      <point x="476" y="0" type="curve" smooth="yes"/>
      <point x="109" y="0" type="line" smooth="yes"/>
      <point x="81" y="0"/>
      <point x="69" y="12"/>
      <point x="69" y="40" type="curve" smooth="yes"/>
      <point x="69" y="660" type="line" smooth="yes"/>
      <point x="69" y="688"/>
      <point x="81" y="700"/>
    </contour>
  </outline>
</glyph>
<glyph name="Edieresis" format="1">
  <advance width="546"/>
  <unicode hex="00CB"/>
  <outline>
    <contour>
      <point x="301" y="877" type="move" name="Anchor-1"/>
    </contour>
    <contour>
      <point x="287" y="0" type="move" name="Anchor-0"/>
    </contour>
    <contour>
      <point x="205" y="879" type="curve" smooth="yes"/>
      <point x="247" y="879"/>
      <point x="265" y="868"/>
      <point x="265" y="847" type="curve" smooth="yes"/>
      <point x="265" y="787" type="line" smooth="yes"/>
      <point x="265" y="766"/>
      <point x="247" y="755"/>
      <point x="205" y="755" type="curve" smooth="yes"/>
      <point x="163" y="755"/>
      <point x="145" y="766"/>
      <point x="145" y="787" type="curve" smooth="yes"/>
      <point x="145" y="847" type="line" smooth="yes"/>
      <point x="145" y="868"/>
      <point x="163" y="879"/>
    </contour>
    <contour>
      <point x="385" y="879" type="curve" smooth="yes"/>
      <point x="427" y="879"/>
      <point x="445" y="868"/>
      <point x="445" y="847" type="curve" smooth="yes"/>
      <point x="445" y="787" type="line" smooth="yes"/>
      <point x="445" y="766"/>
      <point x="427" y="755"/>
      <point x="385" y="755" type="curve" smooth="yes"/>
      <point x="343" y="755"/>
      <point x="325" y="766"/>
      <point x="325" y="787" type="curve" smooth="yes"/>
      <point x="325" y="847" type="line" smooth="yes"/>
      <point x="325" y="868"/>
      <point x="343" y="879"/>
    </contour>
    <contour>
      <point x="109" y="700" type="curve" smooth="yes"/>
      <point x="475" y="700" type="line" smooth="yes"/>
      <point x="496" y="700"/>
      <point x="505" y="685"/>
      <point x="505" y="650" type="curve" smooth="yes"/>
      <point x="505" y="619" type="line" smooth="yes"/>
      <point x="505" y="584"/>
      <point x="496" y="569"/>
      <point x="475" y="569" type="curve" smooth="yes"/>
      <point x="223" y="569" type="line"/>
      <point x="223" y="424" type="line"/>
      <point x="448" y="424" type="line" smooth="yes"/>
      <point x="469" y="424"/>
      <point x="478" y="409"/>
      <point x="478" y="374" type="curve" smooth="yes"/>
      <point x="478" y="343" type="line" smooth="yes"/>
      <point x="478" y="308"/>
      <point x="469" y="293"/>
      <point x="448" y="293" type="curve" smooth="yes"/>
      <point x="223" y="293" type="line"/>
      <point x="223" y="131" type="line"/>
      <point x="476" y="131" type="line" smooth="yes"/>
      <point x="497" y="131"/>
      <point x="506" y="116"/>
      <point x="506" y="81" type="curve" smooth="yes"/>
      <point x="506" y="50" type="line" smooth="yes"/>
      <point x="506" y="15"/>
      <point x="497" y="0"/>
      <point x="476" y="0" type="curve" smooth="yes"/>
      <point x="109" y="0" type="line" smooth="yes"/>
      <point x="81" y="0"/>
      <point x="69" y="12"/>
      <point x="69" y="40" type="curve" smooth="yes"/>
      <point x="69" y="660" type="line" smooth="yes"/>
      <point x="69" y="688"/>
      <point x="81" y="700"/>
    </contour>
  </outline>
</glyph>
<glyph name="Iacute" format="1">
  <advance width="282"/>
  <unicode hex="00CD"/>
  <outline>
    <contour>
      <point x="147" y="877" type="move" name="Anchor-1"/>
    </contour>
    <contour>
      <point x="141" y="0" type="move" name="Anchor-0"/>
    </contour>
    <contour>
      <point x="221" y="911" type="curve" smooth="yes"/>
      <point x="261" y="911"/>
      <point x="281" y="908"/>
      <point x="281" y="897" type="curve" smooth="yes"/>
      <point x="281" y="885"/>
      <point x="274" y="883"/>
      <point x="177" y="777" type="curve" smooth="yes"/>
      <point x="166" y="765"/>
      <point x="149" y="752"/>
      <point x="102" y="752" type="curve" smooth="yes"/>
      <point x="78" y="752"/>
      <point x="71" y="756"/>
      <point x="71" y="767" type="curve" smooth="yes"/>
      <point x="71" y="778"/>
      <point x="90" y="803"/>
      <point x="136" y="884" type="curve" smooth="yes"/>
      <point x="148" y="905"/>
      <point x="181" y="911"/>
    </contour>
    <contour>
      <point x="123" y="703" type="curve" smooth="yes"/>
      <point x="158" y="703" type="line" smooth="yes"/>
      <point x="200" y="703"/>
      <point x="218" y="691"/>
      <point x="218" y="670" type="curve" smooth="yes"/>
      <point x="218" y="30" type="line" smooth="yes"/>
      <point x="218" y="9"/>
      <point x="200" y="-3"/>
      <point x="158" y="-3" type="curve" smooth="yes"/>
      <point x="123" y="-3" type="line" smooth="yes"/>
      <point x="81" y="-3"/>
      <point x="63" y="9"/>
      <point x="63" y="30" type="curve" smooth="yes"/>
      <point x="63" y="670" type="line" smooth="yes"/>
      <point x="63" y="691"/>
      <point x="81" y="703"/>
    </contour>
  </outline>
</glyph>
<glyph name="Icircumflex" format="1">
  <advance width="282"/>
  <unicode hex="00CE"/>
  <outline>
    <contour>
      <point x="290" y="793" type="move" name="Anchor-1"/>
    </contour>
    <contour>
      <point x="141" y="0" type="move" name="Anchor-0"/>
    </contour>
    <contour>
      <point x="135" y="895" type="curve" smooth="yes"/>
      <point x="146" y="895" type="line" smooth="yes"/>
      <point x="175" y="895"/>
      <point x="196" y="894"/>
      <point x="207" y="876" type="curve" smooth="yes"/>
      <point x="272" y="774" type="line" smooth="yes"/>
      <point x="276" y="768"/>
      <point x="278" y="763"/>
      <point x="278" y="759" type="curve" smooth="yes"/>
      <point x="278" y="752"/>
      <point x="271" y="749"/>
      <point x="258" y="749" type="curve" smooth="yes"/>
      <point x="236" y="749" type="line" smooth="yes"/>
      <point x="207" y="749"/>
      <point x="181" y="754"/>
      <point x="168" y="773" type="curve" smooth="yes"/>
      <point x="140" y="813" type="line"/>
      <point x="112" y="774" type="line" smooth="yes"/>
      <point x="97" y="753"/>
      <point x="74" y="749"/>
      <point x="45" y="749" type="curve" smooth="yes"/>
      <point x="23" y="749" type="line" smooth="yes"/>
      <point x="9" y="749"/>
      <point x="3" y="752"/>
      <point x="3" y="759" type="curve" smooth="yes"/>
      <point x="3" y="763"/>
      <point x="5" y="768"/>
      <point x="9" y="774" type="curve" smooth="yes"/>
      <point x="74" y="876" type="line" smooth="yes"/>
      <point x="85" y="894"/>
      <point x="106" y="895"/>
    </contour>
    <contour>
      <point x="123" y="703" type="curve" smooth="yes"/>
      <point x="158" y="703" type="line" smooth="yes"/>
      <point x="200" y="703"/>
      <point x="218" y="691"/>
      <point x="218" y="670" type="curve" smooth="yes"/>
      <point x="218" y="30" type="line" smooth="yes"/>
      <point x="218" y="9"/>
      <point x="200" y="-3"/>
      <point x="158" y="-3" type="curve" smooth="yes"/>
      <point x="123" y="-3" type="line" smooth="yes"/>
      <point x="81" y="-3"/>
      <point x="63" y="9"/>
      <point x="63" y="30" type="curve" smooth="yes"/>
      <point x="63" y="670" type="line" smooth="yes"/>
      <point x="63" y="691"/>
      <point x="81" y="703"/>
    </contour>
  </outline>
</glyph>
<glyph name="Idieresis" format="1">
  <advance width="282"/>
  <unicode hex="00CF"/>
  <outline>
    <contour>
      <point x="147" y="877" type="move" name="Anchor-1"/>
    </contour>
    <contour>
      <point x="141" y="0" type="move" name="Anchor-0"/>
    </contour>
    <contour>
      <point x="51" y="879" type="curve" smooth="yes"/>
      <point x="93" y="879"/>
      <point x="111" y="868"/>
      <point x="111" y="847" type="curve" smooth="yes"/>
      <point x="111" y="787" type="line" smooth="yes"/>
      <point x="111" y="766"/>
      <point x="93" y="755"/>
      <point x="51" y="755" type="curve" smooth="yes"/>
      <point x="9" y="755"/>
      <point x="-9" y="766"/>
      <point x="-9" y="787" type="curve" smooth="yes"/>
      <point x="-9" y="847" type="line" smooth="yes"/>
      <point x="-9" y="868"/>
      <point x="9" y="879"/>
    </contour>
    <contour>
      <point x="231" y="879" type="curve" smooth="yes"/>
      <point x="273" y="879"/>
      <point x="291" y="868"/>
      <point x="291" y="847" type="curve" smooth="yes"/>
      <point x="291" y="787" type="line" smooth="yes"/>
      <point x="291" y="766"/>
      <point x="273" y="755"/>
      <point x="231" y="755" type="curve" smooth="yes"/>
      <point x="189" y="755"/>
      <point x="171" y="766"/>
      <point x="171" y="787" type="curve" smooth="yes"/>
      <point x="171" y="847" type="line" smooth="yes"/>
      <point x="171" y="868"/>
      <point x="189" y="879"/>
    </contour>
    <contour>
      <point x="123" y="703" type="curve" smooth="yes"/>
      <point x="158" y="703" type="line" smooth="yes"/>
      <point x="200" y="703"/>
      <point x="218" y="691"/>
      <point x="218" y="670" type="curve" smooth="yes"/>
      <point x="218" y="30" type="line" smooth="yes"/>
      <point x="218" y="9"/>
      <point x="200" y="-3"/>
      <point x="158" y="-3" type="curve" smooth="yes"/>
      <point x="123" y="-3" type="line" smooth="yes"/>
      <point x="81" y="-3"/>
      <point x="63" y="9"/>
      <point x="63" y="30" type="curve" smooth="yes"/>
      <point x="63" y="670" type="line" smooth="yes"/>
      <point x="63" y="691"/>
      <point x="81" y="703"/>
    </contour>
  </outline>
</glyph>
